<svg xmlns="http://www.w3.org/2000/svg" xmlns:xlink="http://www.w3.org/1999/xlink" width="294.633" height="253.698" viewBox="0 0 294.633 253.698">
  <defs>
    <clipPath id="clip-path">
      <circle id="Ellipse_60" data-name="Ellipse 60" cx="126" cy="126" r="126" transform="translate(181 2071)" fill="#fff"/>
    </clipPath>
  </defs>
  <g id="Group_483" data-name="Group 483" transform="translate(-82.358 -1890)">
    <g id="Mask_Group_7" data-name="Mask Group 7" transform="translate(-86 -181)" clip-path="url(#clip-path)">
      <g id="_52324-01" data-name="52324-01" transform="translate(20.312 2100.692)">
        <g id="Group_477" data-name="Group 477" transform="translate(29.688 14.456)">
          <path id="Path_472" data-name="Path 472" d="M166.253,352.338s-28.1-69.467,13.006-110.946c53.014-53.5,121.521-8.781,147.227-10.084s27.154-52.638,103.96-58.769c59.387-4.741,156.917-5.115,136.11,78.755-15.819,63.765,72.2,30.736,55.059,101.179Z" transform="translate(-133.501 -142.105)" fill="#fcecdb"/>
          <g id="Group_467" data-name="Group 467" transform="translate(56.512 113.537)">
            <g id="Group_462" data-name="Group 462" transform="translate(51.077 38.147)">
              <path id="Path_473" data-name="Path 473" d="M662.685,855.79s-6.685-7.8-.412-12.752c0,0,4.582-2.774,8.318-2.548,0,0-5.294,8.877-3.581,9.76s5.186-10.316,5.186-10.316,10.426-1.011,13.78.6c0,0-8.913,7.294-7.036,7.728s11.5-6.725,11.5-6.725,9.7,1.651,9.187,7.571-3.861,7.748-5.331,7.59-10.066-3.439-10.253-2.235,4.987,5.139,8.611,5.323c0,0-6.841,7.545-11.388,5.367s-4.935-5.629-7.77-6.924-5.254-1.291-4.084.029,6.3,2.6,7.921,5.47,3.075,4.8-1.629,4.093-12.351-4.15-12.687-8.092Z" transform="translate(-651.386 -839.62)" fill="#599dad"/>
              <g id="Group_461" data-name="Group 461" transform="translate(0 9.602)">
                <path id="Path_474" data-name="Path 474" d="M682.568,891.9s-26.356-1.016-32.177,6.522a19.063,19.063,0,0,1-5.248,7.366l-.617,1.683s4.567-4.815,6.2-5.107C650.727,902.366,648.171,893.028,682.568,891.9Z" transform="translate(-639.093 -891.857)" fill="#599dad"/>
                <path id="Path_475" data-name="Path 475" d="M621.021,964.71a16.552,16.552,0,0,0-6.05,11.659l1.027.092s1.807-7.73,5.072-10.752S621.021,964.71,621.021,964.71Z" transform="translate(-614.971 -950.777)" fill="#599dad"/>
              </g>
            </g>
            <g id="Group_464" data-name="Group 464" transform="translate(0 16.974)">
              <path id="Path_476" data-name="Path 476" d="M376.118,751.974s10.633-5.955,5.671-14.036c0,0-3.97-4.962-8.223-6.238,0,0,2.269,12.051,0,12.335s-1.56-13.611-1.56-13.611-11.2-5.388-15.6-4.962c0,0,6.947,11.768,4.679,11.484s-10.067-12.193-10.067-12.193-11.484-2.127-13.327,4.679,1.134,10.208,2.835,10.634,12.618.283,12.335,1.7-7.656,3.686-11.768,2.41c0,0,4.537,11.2,10.492,10.633s7.8-4.253,11.484-4.537,6.38.709,4.537,1.7-8.081.325-11.059,2.856-5.388,4.091.142,5.225,15.454.425,17.439-3.828Z" transform="translate(-337.114 -724.438)" fill="#6bb7bf"/>
              <g id="Group_463" data-name="Group 463" transform="translate(5.827 7.12)">
                <path id="Path_477" data-name="Path 477" d="M368.814,763.169s29.774,9.641,33.176,20.416a22.618,22.618,0,0,0,2.836,10.35v2.127s-3.119-7.231-4.821-8.223C400.005,787.839,406.669,778.481,368.814,763.169Z" transform="translate(-368.814 -763.169)" fill="#6bb7bf"/>
                <path id="Path_478" data-name="Path 478" d="M558.4,924.661a19.637,19.637,0,0,1,1.974,15.46L559.2,939.8s1.147-9.348-1.256-14.05S558.4,924.661,558.4,924.661Z" transform="translate(-522.391 -893.894)" fill="#6bb7bf"/>
              </g>
            </g>
            <g id="Group_466" data-name="Group 466" transform="translate(46.706)">
              <path id="Path_479" data-name="Path 479" d="M600.407,668.4s-14.017-7.849-7.476-18.5c0,0,5.233-6.541,10.84-8.223,0,0-2.99,15.886,0,16.259s2.056-17.942,2.056-17.942,14.764-7.1,20.558-6.541c0,0-9.158,15.512-6.168,15.138s13.27-16.073,13.27-16.073,15.138-2.8,17.568,6.167-1.5,13.456-3.738,14.017-16.633.374-16.259,2.242,10.092,4.859,15.512,3.177c0,0-5.981,14.764-13.83,14.017s-10.279-5.607-15.138-5.98-8.41.935-5.98,2.243,10.653.429,14.577,3.765,7.1,5.392-.187,6.887-20.371.561-22.988-5.046Z" transform="translate(-591.193 -632.098)" fill="#86d1cd"/>
              <g id="Group_465" data-name="Group 465" transform="translate(1.812 9.385)">
                <path id="Path_480" data-name="Path 480" d="M668.458,683.155s-39.247,12.709-43.732,26.912a29.815,29.815,0,0,1-3.738,13.643v2.8s4.112-9.531,6.354-10.839C627.342,715.674,618.558,703.339,668.458,683.155Z" transform="translate(-617.323 -683.155)" fill="#6bb7bf"/>
                <path id="Path_481" data-name="Path 481" d="M604.714,896.029a25.884,25.884,0,0,0-2.6,20.379l1.557-.418s-1.512-12.323,1.655-18.521S604.714,896.029,604.714,896.029Z" transform="translate(-601.048 -855.474)" fill="#6bb7bf"/>
              </g>
            </g>
            <path id="Path_482" data-name="Path 482" d="M516.844,1024.723A27.457,27.457,0,0,0,544.3,997.266H489.387A27.458,27.458,0,0,0,516.844,1024.723Z" transform="translate(-461.396 -930.14)" fill="#efcbab"/>
            <path id="Path_483" data-name="Path 483" d="M538.458,1024.5a27.473,27.473,0,0,1-30.867-27.247h6.821A27.461,27.461,0,0,0,538.458,1024.5Z" transform="translate(-476.254 -930.132)" fill="#ffebdc"/>
            <path id="Path_484" data-name="Path 484" d="M543,1139.179H487.324a3.388,3.388,0,0,1,3.388-3.387h48.9a3.39,3.39,0,0,1,3.387,3.387Z" transform="translate(-459.712 -1043.201)" fill="#efcbab"/>
            <rect id="Rectangle_82" data-name="Rectangle 82" width="56.441" height="0.842" transform="translate(27.089 67.125)" fill="#efcdaf"/>
          </g>
          <g id="Group_469" data-name="Group 469" transform="translate(331.391 13.392)">
            <path id="Path_485" data-name="Path 485" d="M2116.31,1090.559s.569,9.178,2.344,9.309c.236.018,9.006.018,9.006.018l11.194-.065a3.631,3.631,0,0,0-3.345-3.267c-3.272-.57-8.75-2.87-10.732-7.2C2122.692,1084.807,2116.31,1090.559,2116.31,1090.559Z" transform="translate(-2064.13 -903.727)" fill="#163560"/>
            <path id="Path_486" data-name="Path 486" d="M2075.011,513.21s5.285,3.005,6.764,3,7.288-1.123,8.906-.3a18.923,18.923,0,0,1,5.1,5.243c.988,1.955-3.98,1.091-6.328-.574a1.482,1.482,0,0,0-1.174-.242c-1.216.265-3.743.724-4.963.273-1.641-.608-10.283-1.282-10.283-1.282Z" transform="translate(-2028.807 -434.919)" fill="#e49963"/>
            <path id="Path_487" data-name="Path 487" d="M1865.06,266.417s5.479,38.939,14.55,42.426c4.477,1.721,24.26,5.622,30.111,6.014,0,0,1.434-1.163,1.084-5.9,0,0-20.726-7.609-23.671-11.747-4.382-6.159,2.72-25.16-2.778-30.945S1869.6,258,1865.06,266.417Z" transform="translate(-1859.066 -229.056)" fill="#ed7d2b"/>
            <path id="Path_488" data-name="Path 488" d="M1844.055,635.316a68.268,68.268,0,0,0,5.352,7.657c5.888,7.433,12.3,13.562,13.415,19.356a26.186,26.186,0,0,0,1.035,3.708c.467,1.327,1.043,2.722,1.708,4.165a128.279,128.279,0,0,0,9.966,17.038c6.45,9.557,12.514,17.531,12.514,17.531l11.122-.474c-.446-1.115-5.3-14.31-11.786-30.436-2.635-6.546-5.437-13.509-8.141-20.224q-.541-1.345-1.077-2.675c-.826-2.055-1.64-4.078-2.434-6.048-6.093-15.142-10.947-27.2-10.947-27.2s-24.353-9.225-26.882-3.247C1835.816,619.4,1837.514,624.226,1844.055,635.316Z" transform="translate(-1836.213 -515.919)" fill="#599dad"/>
            <path id="Path_489" data-name="Path 489" d="M1944.957,961.033s-7.736,4.971-6.985,6.585c.1.215,4.375,7.871,4.375,7.871l5.514,9.743a3.633,3.633,0,0,0,1.222-4.514c-1.1-3.135-1.759-9.038,1.05-12.877C1953.09,963.8,1944.957,961.033,1944.957,961.033Z" transform="translate(-1918.533 -800.422)" fill="#163560"/>
            <path id="Path_490" data-name="Path 490" d="M1866.22,690.4s-4.835-4.264-5.687-7.392c0,0,19.922-23.869,24.243-29.219.2-.245.148-.515-.114-.81-3.263-3.679-39.51-11.157-44.247-18.527a22.833,22.833,0,0,1-3.061-7.057,16.679,16.679,0,0,1-.225-7.6l36.2-1.047s30.141,18.767,33.554,31.563S1866.22,690.4,1866.22,690.4Z" transform="translate(-1836.009 -521.055)" fill="#6bb7bf"/>
            <path id="Path_491" data-name="Path 491" d="M1887.072,660.309c-3.262-3.679-39.51-11.157-44.247-18.527a22.834,22.834,0,0,1-3.061-7.057v-4.581l15.385-2.42s4.363,13.426,17.285,18.46C1884.537,650.9,1886.83,659.266,1887.072,660.309Z" transform="translate(-1838.42 -528.382)" fill="#5aa9ad"/>
            <path id="Path_492" data-name="Path 492" d="M1895.162,202.184c-7.324,1.893-19.464-4.892-19.464-4.892a17.971,17.971,0,0,0,6.461-10.128c.089-.351.168-.71.24-1.079l3.761-.8,5.594,5.011a48.135,48.135,0,0,1-.827,5.657q-.182.936-.421,2.007A17.248,17.248,0,0,1,1895.162,202.184Z" transform="translate(-1867.749 -167.277)" fill="#e49963"/>
            <path id="Path_493" data-name="Path 493" d="M1832.649,272.967c1.049,14.108-.331,35.565.859,39.281,1.027,3.206,12.729,1.3,17.4.23,1.729-.4,3.823-.962,5.986-1.631,6.032-1.868,12.605-4.535,13.311-6.515a1.667,1.667,0,0,0,.065-.228,1.813,1.813,0,0,0-.013-.83c-.235-1.009-1.141-2.1-1.248-4.6-.119-2.79-.1-6.076-.206-9.609-.005-.4-.01-.832-.054-1.228l0-.145c0-.076,0-.15-.005-.226-.1-3.94-.307-8.083-.546-12.191-.152-2.58-.327-5.136-.53-7.584a101.379,101.379,0,0,0-2.173-15.493,24.878,24.878,0,0,0-7.993-12.338l-2.226-1.91a12.871,12.871,0,0,1-8.077-1.076c-2.875-1.365-3.868-2.344-4.368-1.975C1836.185,240.022,1831.41,255.719,1832.649,272.967Z" transform="translate(-1832.453 -207.704)" fill="#f99746"/>
            <path id="Path_494" data-name="Path 494" d="M1889.188,406.641c6.032-1.868,12.605-4.535,13.311-6.515a1.64,1.64,0,0,0,.065-.228c0-.277-.007-.553-.013-.83-.235-1.009-1.141-2.1-1.248-4.6-.119-2.79-.1-6.076-.206-9.609-.005-.4-.011-.832-.054-1.228l0-.145c0-.076,0-.15-.005-.226l-24.388-31.07S1860.256,386.326,1889.188,406.641Z" transform="translate(-1864.749 -303.498)" fill="#ed7d2b"/>
            <path id="Path_495" data-name="Path 495" d="M1920.442,190.3a48.069,48.069,0,0,1-.827,5.657c-5.463-1.765-7.939-6.7-8.767-8.792.089-.351.168-.71.24-1.079l3.761-.8Z" transform="translate(-1896.437 -167.276)" fill="#d68d5d"/>
            <path id="Path_496" data-name="Path 496" d="M1919.68,135.656s-11.912-1.988-10.56-9.387.726-12.639,8.388-11.683,8.621,4.049,8.77,6.629S1922.812,135.983,1919.68,135.656Z" transform="translate(-1894.939 -109.48)" fill="#e49963"/>
            <g id="Group_468" data-name="Group 468" transform="translate(42.329 61.975)">
              <rect id="Rectangle_83" data-name="Rectangle 83" width="1.104" height="28.922" transform="translate(30.335 27.849) rotate(-162.002)" fill="#4a75cb"/>
              <rect id="Rectangle_84" data-name="Rectangle 84" width="30.35" height="1.815" transform="matrix(-1, -0.021, 0.021, -1, 30.344, 27.83)" fill="#4a75cb"/>
            </g>
            <path id="Path_497" data-name="Path 497" d="M2066.06,555.816s9.75,2.57,13.406,2.3,6.7-2.009,7.157-2.916,1.427-2.518-1.062-2.221-5.887.826-5.993.348,2.029-.433,2.029-.433.646-.938-.167-.972-3.183-.677-4.063-.237-1.692,2.065-2.336,2-8.158-3.385-8.158-3.385Z" transform="translate(-2023.117 -465.19)" fill="#e49963"/>
            <path id="Path_498" data-name="Path 498" d="M1878.22,279.114s1.153,39.305,9.785,43.772c4.259,2.2,23.491,8.262,29.264,9.3,0,0,1.553-1,1.728-5.741,0,0-19.761-9.848-22.231-14.285-3.677-6.6,5.478-24.707.65-31.062S1883.656,271.246,1878.22,279.114Z" transform="translate(-1869.807 -240.155)" fill="#f99746"/>
            <path id="Path_499" data-name="Path 499" d="M1899.7,107.2a5.635,5.635,0,0,1,1.429-3.993s-.545-2.545.462-2.965,1.217,1.72,1.678,1.385a10.282,10.282,0,0,0,3.4-4.279c.881-2.349,8.945.5,9.885.919s3.961-1.129,4.548-2.388a17.711,17.711,0,0,1-2.434-2.349c-.755-1.007-6.041-7.8-13.425-5.874s-8.391,5.454-7.971,8.475S1896.677,106.182,1899.7,107.2Z" transform="translate(-1885.29 -87.309)" fill="#2b478b"/>
          </g>
          <g id="Group_470" data-name="Group 470" transform="translate(118.358)">
            <path id="Path_500" data-name="Path 500" d="M688.02,274.86l6.355-.607a1.167,1.167,0,0,1,1.188.714l4.8,11.55a1.167,1.167,0,0,1-.967,1.609l-6.613.632a1.167,1.167,0,0,1-1.2-.735l-4.541-11.575A1.167,1.167,0,0,1,688.02,274.86Z" transform="translate(-684.499 -226.492)" fill="#233862"/>
            <path id="Path_501" data-name="Path 501" d="M930.125,611.279l-3.372,1.79s-18.234-19.335-22.619-37.889a28.849,28.849,0,0,1-.763-9.68s-.265-.84-.729-2.326l-.062-.2c-.2-.652-.447-1.419-.717-2.287-.88-2.8-2.09-6.641-3.468-11.009-3.174-10.052-10.433-32.723-13.535-42.153l22.294-8.066s2.532,5.775,6.171,21.47c.56,2.049,1.122,4.314,1.646,6.782.594,2.8,1.149,5.853,1.611,9.155a140.561,140.561,0,0,1,1.336,18.793c.012,2.808-.056,5.721-.223,8.726a38.5,38.5,0,0,0,.82,8.479C921.325,588.136,930.125,611.279,930.125,611.279Z" transform="translate(-846.017 -410.306)" fill="#2b478b"/>
            <path id="Path_502" data-name="Path 502" d="M1116.623,1112.7H1098.6s-.674-2.875.509-4.831c1.047-1.731.646-2.717-.13-4.149a7,7,0,0,0,3.036.572,6.349,6.349,0,0,0,2.68-.943,64.794,64.794,0,0,0,5.135,5.4C1111.009,1109.593,1116.261,1109.291,1116.623,1112.7Z" transform="translate(-1020.309 -903.185)" fill="#233862"/>
            <path id="Path_503" data-name="Path 503" d="M916.58,536.871l-14,26.107c-.2-.652-.447-1.419-.717-2.287-.88-2.8-2.09-6.641-3.468-11.009-3.174-10.052-10.433-32.723-13.535-42.152l22.294-8.066s2.532,5.775,6.171,21.47c.56,2.049,1.122,4.314,1.646,6.782C915.564,530.512,916.119,533.569,916.58,536.871Z" transform="translate(-846.015 -410.308)" fill="#233862"/>
            <path id="Path_504" data-name="Path 504" d="M690.345,344.779c-.112.1-5.454-5.365-8.307-8.391l2.858-1.74,15.6,9.8Z" transform="translate(-680.479 -275.789)" fill="#ffb27d"/>
            <path id="Path_505" data-name="Path 505" d="M882.56,1119.936a11.661,11.661,0,0,0,.755,5.642h7.468a9.415,9.415,0,0,0-1.846-5.027C887.035,1117.756,882.56,1119.936,882.56,1119.936Z" transform="translate(-844.081 -916.062)" fill="#233862"/>
            <path id="Path_506" data-name="Path 506" d="M899.331,19.1c.1-.478,1.374-5.59,9.307-4.488,0,0-3.958-.213-4.925,1.376,0,0,3.007-1.647,5.039-.6s2.64,5.039,2.437,6.28S909.1,26.7,907.672,26.8a4.224,4.224,0,0,1-1.654-.286,18.854,18.854,0,0,1,.73,2.075c2.022,7.007-2.321,12.755-4.864,11.594-1.63-.745-2.621,2.087-2.621,2.087L885,25.945S893.3,14.391,899.331,19.1Z" transform="translate(-846.135 -14.456)" fill="#2c3a64"/>
            <path id="Path_507" data-name="Path 507" d="M883.55,179.244a20.368,20.368,0,0,0,7.121,3.031c10.976,2.536,15.183-6.741,16.763-13.109a9.436,9.436,0,0,0-3.719-1.142c-.793-.094-1.628-.156-2.319-.19-1.233-.944-3.069-4.808-3.475-10.807l-.517.139-8.651,2.368s.4,2.75.59,5.349c.15,2.034.174,3.977-.211,4.453-.675.146-1.08.242-1.08.242a.025.025,0,0,1,0,.008A55.671,55.671,0,0,0,883.55,179.244Z" transform="translate(-844.948 -130.819)" fill="#ffb27d"/>
            <path id="Path_508" data-name="Path 508" d="M911.857,160.157s.4,2.748.59,5.349c4.9-.491,7.175-5.157,8.061-7.716Z" transform="translate(-868.052 -131.442)" fill="#ed985f"/>
            <path id="Path_509" data-name="Path 509" d="M882.384,96.028s11.633-.642,11.122-7.88.646-12.2-6.8-12.092-8.7,2.968-9.112,5.425S879.345,96.009,882.384,96.028Z" transform="translate(-840.042 -64.731)" fill="#ffb27d"/>
            <path id="Path_510" data-name="Path 510" d="M873.649,70.81c1.64-2.306,3.031-1.926,3.839-1.326a8.142,8.142,0,0,1,10.563.922,13.861,13.861,0,0,0,5.108,7.844s-2.024,1.46-7,.555a8.319,8.319,0,0,1-4.15-2.445,27.172,27.172,0,0,0,5.074,5.363c-6.025-2.277-8.949-10.22-9.244-11.061a9.129,9.129,0,0,0-2.291,3.559c-.447,1.885-.435,5.7-1.551,5.648C874,79.867,871.189,74.268,873.649,70.81Z" transform="translate(-836.044 -58.109)" fill="#2c3a64"/>
            <path id="Path_511" data-name="Path 511" d="M831.541,215.375s18.951-4.6,27.191,2.2L854.614,275l-37.063-8.954s1.043-3.634,8.15-13.3S829.716,228.912,831.541,215.375Z" transform="translate(-791.081 -177.199)" fill="#ffb27d"/>
            <path id="Path_512" data-name="Path 512" d="M833.565,490.839s-.022.195-.06.566c-.017.159-.039.352-.062.577-.159,1.489-.461,4.345-.851,8.059-1.017,9.74-2.613,25.384-3.7,37.733-.851,9.655-1.391,17.3-1.1,18.522.878,3.692,0,47.829,0,47.829-3.15,1.51-7.926,0-7.926,0s-8.391-39.773-7.216-45.3a19.039,19.039,0,0,0-.785-10.247c-6.515-30.34-5.8-47.156-4.507-55.206a33.9,33.9,0,0,1,1.114-4.915,10.3,10.3,0,0,1,.446-1.208A30.659,30.659,0,0,1,833.565,490.839Z" transform="translate(-782.058 -399.429)" fill="#2b478b"/>
            <path id="Path_513" data-name="Path 513" d="M849.42,501.7a36.556,36.556,0,0,1-13,2.809,43.566,43.566,0,0,1-10.7-1.015,49.249,49.249,0,0,1-14.538-5.656,33.908,33.908,0,0,1,1.114-4.915c4.375-3.115,15.193-.134,24.03,3.17l.942.357C844.039,499.038,849.42,501.7,849.42,501.7Z" transform="translate(-785.886 -403.897)" fill="#233862"/>
            <path id="Path_514" data-name="Path 514" d="M772.285,235.9c-.914,6.909-4.575,15.364-5.882,19.915,0,0,2.185,15.8.1,20.138a1.921,1.921,0,0,1-.89,1c-7.728,3.366-37.825.1-39.1-9.611-.462-3.527,11.464-15.936,12.159-17.441.289-.623.6-2.642-.8-6.825-1.982,6.11-5.642,13.165-9.324,14.369-4.046,1.324-20.044-10.6-20.044-10.6s-.092-1.448,1.93-2.818a12.337,12.337,0,0,1,4.288-1.178l10.23,4.578c1.284-2.2,4.483-17.395,8.054-24.255,2.685-5.157,9.854-5.9,9.854-5.9s2.984,4.733,10.2,4.061,8.536-5.089,8.536-5.089,6.4.851,8.372,2.442C770.311,218.954,773.485,226.845,772.285,235.9Z" transform="translate(-702.08 -179.145)" fill="#f99746"/>
            <path id="Path_515" data-name="Path 515" d="M974.429,343.1s2.185,15.8.1,20.138c-5.63-2.826-12.969-8.927-10.735-18.458,3.244-13.849,16.518-21.6,16.518-21.6C979.4,330.1,975.736,338.551,974.429,343.1Z" transform="translate(-910.104 -266.435)" fill="#ed7d2b"/>
            <path id="Path_516" data-name="Path 516" d="M947.355,373.75s-8.015,1.162-8.655,1.76-2.851,4.075-2.578,5.284.244,2.456.735,2.37,2.091-3.159,2.7-3.3,1.1-.555,1.177-.285-1.23,1.563-1.166,1.93,1.091-.063,1.552-.776,1.612-1.067,1.785-1.511.967-1.916,2.046-1.848S947.355,373.75,947.355,373.75Z" transform="translate(-887.837 -307.703)" fill="#ffb27d"/>
            <path id="Path_517" data-name="Path 517" d="M993.284,372.033l-7.8.316-2.668,3.637,10.607.355Z" transform="translate(-925.967 -306.302)" fill="#ffb27d"/>
            <path id="Path_518" data-name="Path 518" d="M997.331,216.236s9.295,1.1,11.854,5.089c3.236,5.04,14.668,21.753,14.422,26.81,0,0-7.122,2.837-26.269,1.316,0,0-.348-2.9,3.68-5.22,0,0,10.279-1.408,11.412-2.405l-7.632-8.11Z" transform="translate(-937.813 -179.144)" fill="#f99746"/>
            <path id="Path_519" data-name="Path 519" d="M680.489,275.545l6.355-.607a1.167,1.167,0,0,1,1.188.714l4.8,11.55a1.167,1.167,0,0,1-.966,1.609l-6.613.632a1.167,1.167,0,0,1-1.2-.736l-4.54-11.574A1.167,1.167,0,0,1,680.489,275.545Z" transform="translate(-678.352 -227.05)" fill="#2b478b"/>
            <path id="Path_520" data-name="Path 520" d="M675.115,306.6s-1.678-2.895-1.552-3.608,1.863-4.021,2.755-4.349c1.594-.587,3.832-.951,3.217.727-.406,1.108-2.014,2.713-1.734,3.217a7.036,7.036,0,0,1,.172,2.274Z" transform="translate(-673.556 -246)" fill="#ffb27d"/>
          </g>
          <g id="Group_475" data-name="Group 475" transform="translate(186.877 43.3)">
            <path id="Path_521" data-name="Path 521" d="M1781.6,732.717c-2.277,14.594-17.17,23.887-32.445,23.887H1718.9l2.366-85.061s28.866-9.265,36.116-.452c6.352,7.721,23.577,38.286,24.483,56.377A25.663,25.663,0,0,1,1781.6,732.717Z" transform="translate(-1595.257 -590.582)" fill="#f9ddbf"/>
            <path id="Path_522" data-name="Path 522" d="M1623.07,686.879s40.813-20.832,48.543-7.224c4.1,7.225,15.4,36.051,16.234,54.142.81,17.578-14.418,29.135-30.083,29.135h-27.823Z" transform="translate(-1517.045 -596.91)" fill="#c6916d"/>
            <path id="Path_523" data-name="Path 523" d="M1273.455,459.806c-.344,1.77-3.648,3.413-8.552,4.867q-1.3.385-2.734.752c-16.689,4.262-46.251,6.642-49.069,5.385-3.894-1.737-27.791-86.644-27.791-86.644s22.812-.857,40.928-1.275c6.2-.141,11.845-.232,15.842-.22a9.85,9.85,0,0,1,1.375.1,6.525,6.525,0,0,1,4.031,2.063c2.917,3.135,3.64,9.326,6.34,16.169,2.67,6.767,5.947,15.211,9.055,23.592.8,2.16,1.591,4.315,2.356,6.438q.325.9.642,1.787C1270.473,445.669,1274.01,456.938,1273.455,459.806Z" transform="translate(-1159.755 -358.283)" fill="#efcbab"/>
            <path id="Path_524" data-name="Path 524" d="M1850.036,1021.469c-2.278,14.594-17.17,23.887-32.445,23.887h-14.84C1812.646,1038.649,1821.594,1017.976,1850.036,1021.469Z" transform="translate(-1663.696 -879.334)" fill="#eac3a0"/>
            <path id="Path_525" data-name="Path 525" d="M1438.1,433.243c-.759-.124-1.737-.285-2.846-.473a2.587,2.587,0,0,1-.524-.713c-.447-.982-.141-3.8.371-7.038-3.108-8.381-6.385-16.826-9.056-23.592-2.7-6.844-3.423-13.035-6.34-16.169a6.526,6.526,0,0,0-4.031-2.063c-2.408.034-4.951.076-7.573.124a11.708,11.708,0,0,1-5.312,5.051c-12.376,6.515-3.2,19.94-3.2,19.94.089.06,4.912,9.647,4.912,9.647-.017-.67.633-1.868,1.745-3.393A78.748,78.748,0,0,0,1410,430.335c-.875,4.425-3.118,11.017-4.32,16.059-.961,4.021-1.259,7.052.329,7.2a3.606,3.606,0,0,0,.589,0,8.192,8.192,0,0,0,.967,4.408c3.1,6,18.022,7.075,29.555,7.1,4.9-1.453,8.208-3.1,8.552-4.867C1446.226,457.365,1442.689,446.1,1438.1,433.243Z" transform="translate(-1331.971 -358.711)" fill="#e0b594"/>
            <path id="Path_526" data-name="Path 526" d="M1538.649,793.165c-5.84,8.114-14.8,13.315-24.777,13.154l-42.9.022-20.553.01,23.124-76.158s58.529-5.823,65.745,1.942c3.352,3.6,5.232,19.93,6.286,36.386A38.031,38.031,0,0,1,1538.649,793.165Z" transform="translate(-1376.133 -640.211)" fill="#d39e7a"/>
            <path id="Path_527" data-name="Path 527" d="M1629.9,1070.807c-5.84,8.114-14.8,13.315-24.777,13.154l-42.9.022c5.048-4.238,20.924-16.262,37.922-15.693C1613.034,1068.72,1623.268,1068.534,1629.9,1070.807Z" transform="translate(-1467.388 -917.853)" fill="#c6916d"/>
            <g id="Group_474" data-name="Group 474" transform="translate(70.138)">
              <path id="Path_528" data-name="Path 528" d="M1613.684,449.521s3.564,5.274,5.6,16.362c1.78,9.711,3.341,13.3,5.912,15.287s16.9,7.871,16.9,7.871l-1.071,2.509s-21-2.86-23.355-6.369-11.35-24.243-10.652-29.018S1613.684,449.521,1613.684,449.521Z" transform="translate(-1574.045 -412.845)" fill="#f4a269"/>
              <g id="Group_471" data-name="Group 471" transform="translate(89.925 137.995)">
                <path id="Path_529" data-name="Path 529" d="M1918.169,1015.205c-.189,2.048,2.662,2.546,5.964,2.71s2.3.841,6.829,1.66,6.338-.419,6.666-1.03c.292-.542-1.812-1.391-4.054-2.349-.282-.12-.565-.243-.847-.366-2.524-1.109-3.939-3.373-5.906-5.471-1.864-1.987-3.633-8.351-3.633-8.351l-6.149-1.313s1.727,5.727,2.326,8.172a7.578,7.578,0,0,1-.629,4.27A7.965,7.965,0,0,0,1918.169,1015.205Z" transform="translate(-1917.038 -1000.695)" fill="#ffb27d"/>
                <path id="Path_530" data-name="Path 530" d="M1929.112,1073.151c3.3.165,2.3.841,6.829,1.66s6.339-.418,6.666-1.03c.292-.542-1.812-1.391-4.054-2.35l-.035.038a12.885,12.885,0,0,1-6.854.082c-2.993-.813-5.888-2.6-7.95-3.18a8.037,8.037,0,0,0-.566,2.069C1922.959,1072.489,1925.81,1072.987,1929.112,1073.151Z" transform="translate(-1922.017 -1055.931)" fill="#c65447"/>
              </g>
              <path id="Path_531" data-name="Path 531" d="M1554.479,662.506s40.861-3.075,48.553,1.78,20.03,61.4,20.03,61.4a5.019,5.019,0,0,1-2.462.794,20.641,20.641,0,0,1-5.065-.759s-17.73-25.3-18.979-31.677-.944-12.062-3.788-12.214-38.294,4.31-43.657-5.137-.929-18.8-.929-18.8Z" transform="translate(-1524.656 -582.919)" fill="#163560"/>
              <g id="Group_472" data-name="Group 472" transform="translate(74.289 144.557)">
                <path id="Path_532" data-name="Path 532" d="M1833.108,1050.9c-.189,2.048,2.662,2.546,5.964,2.71s2.3.841,6.829,1.66,6.338-.419,6.666-1.03c.292-.543-1.812-1.391-4.054-2.35-.282-.119-.565-.243-.847-.366-2.523-1.109-3.939-3.372-5.906-5.471-1.864-1.988-3.633-8.35-3.633-8.35l-6.149-1.313s1.727,5.727,2.326,8.172a7.577,7.577,0,0,1-.63,4.27A8.064,8.064,0,0,0,1833.108,1050.9Z" transform="translate(-1831.977 -1036.394)" fill="#ffb27d"/>
                <path id="Path_533" data-name="Path 533" d="M1844.052,1108.861c3.3.165,2.3.841,6.829,1.66s6.338-.419,6.666-1.03c.292-.542-1.812-1.391-4.054-2.35l-.035.039a12.884,12.884,0,0,1-6.854.082c-2.994-.813-5.888-2.6-7.95-3.18a8.038,8.038,0,0,0-.566,2.069C1837.9,1108.2,1840.75,1108.7,1844.052,1108.861Z" transform="translate(-1836.957 -1091.639)" fill="#c65447"/>
              </g>
              <path id="Path_534" data-name="Path 534" d="M1495.24,696.732s36.3,1.718,43.8,6.869,17.625,62.137,17.625,62.137a5.02,5.02,0,0,1-2.491.7,20.646,20.646,0,0,1-5.031-.955s-16.732-25.973-17.732-32.391-.474-12.09-3.31-12.353-38.433,2.816-43.424-6.832S1495.24,696.732,1495.24,696.732Z" transform="translate(-1473.421 -614.613)" fill="#1c468a"/>
              <path id="Path_535" data-name="Path 535" d="M1462.6,252.248a9.413,9.413,0,0,0-5.019-1.312,2.382,2.382,0,0,1,1.106-.437,7.9,7.9,0,0,0-2.861.546c-11.794-5.471-14.885,12.225-14.906,16.383s-.311,8.926-6.6,12.236c-12.376,6.514-3.2,19.94-3.2,19.94.09.061,4.913,9.648,4.913,9.648-.083-3.367,16.534-20,24.941-24.747,2.154-2.756,3.19-7.809,3.269-8.207a22.063,22.063,0,0,1-2.154,7.479C1469.331,277.953,1466.868,255.066,1462.6,252.248Z" transform="translate(-1427.845 -250.005)" fill="#b5453c"/>
              <path id="Path_536" data-name="Path 536" d="M1538,416.471s3.2.139,6.584.46a25.6,25.6,0,0,1,6.042,1.012c3.2,1.337,2.864,7-3.849,5.952S1537.527,418.151,1538,416.471Z" transform="translate(-1517.704 -385.871)" fill="#ffb27d"/>
              <path id="Path_537" data-name="Path 537" d="M1551.972,383.057c.039.021.958,4.872-3.438,4.678-2.885-.127-9.108-3.619-8.559-6.089.261-1.174,2.442-4.221,2.88-11.176l.525.14,8.832,2.369s-.392,2.8-.574,5.456C1551.483,380.663,1551.478,382.785,1551.972,383.057Z" transform="translate(-1519.335 -348.326)" fill="#ffb27d"/>
              <path id="Path_538" data-name="Path 538" d="M1567.487,373.6s-.391,2.8-.574,5.456c-5-.475-7.342-5.22-8.258-7.825Z" transform="translate(-1534.609 -348.95)" fill="#f4a269"/>
              <path id="Path_539" data-name="Path 539" d="M1541.694,285.4a26.38,26.38,0,0,1-2.741-7.91c-.281-2.562,1.634-11.86,10.973-9.879a12.84,12.84,0,0,1,5.179,2.363c1.955,1.519,4.711,4.7.862,12.67l-1.043,2.709Z" transform="translate(-1518.507 -264.147)" fill="#b5453c"/>
              <path id="Path_540" data-name="Path 540" d="M1564.307,308.09s-11.862-.594-11.378-7.976-.722-12.43,6.873-12.362,8.88,2.981,9.317,5.484S1567.4,308.055,1564.307,308.09Z" transform="translate(-1529.924 -280.813)" fill="#ffb27d"/>
              <path id="Path_541" data-name="Path 541" d="M1548.667,281.142s-3.821,8.443-8.886,9.391-7.135-.53-7.135-.53a14.13,14.13,0,0,0,5.167-8.022S1546.494,276.857,1548.667,281.142Z" transform="translate(-1513.381 -274.024)" fill="#b5453c"/>
              <path id="Path_542" data-name="Path 542" d="M1615.17,286.594s2.294,2.095,2.76,4.014.473,5.806,1.61,5.749c0,0,2.837-5.723.312-9.235C1617.174,283.4,1615.17,286.594,1615.17,286.594Z" transform="translate(-1580.735 -278.826)" fill="#b5453c"/>
              <path id="Path_543" data-name="Path 543" d="M1512.173,466.078c-.96,1.148-3.957,1.5-7.161,2.027a21.516,21.516,0,0,0-7.052,2.044c-4.276,2.51-18.247,11-22.341,10.609-1.588-.149-1.291-3.18-.329-7.2,1.514-6.35,4.682-15.169,4.682-19a111.418,111.418,0,0,1,1.626-12.708q.114-.684.23-1.381c1.839-11.009,4.387-23.99,4.387-23.99s2.841,6.2,8.378,6.2,4.249-4.728,4.249-4.728,5.052.594,6.245,1.88a49.433,49.433,0,0,1,4.822,8.358s.123,1.928-4.652,2.846a62.681,62.681,0,0,1,1.3,8.723c.1,2.578-1.759,10.645-2.294,15.663a9.261,9.261,0,0,0,.074,3.8,7.389,7.389,0,0,0,2.923,2.41C1509.958,463.2,1513.313,464.713,1512.173,466.078Z" transform="translate(-1465.922 -385.874)" fill="#1c468a"/>
              <path id="Path_544" data-name="Path 544" d="M1507.26,553.265c3.064,5.224-8.311,6.8-10.193,7.9-4.276,2.51-17.353,11.613-21.448,11.227-1.588-.149-1.291-3.18-.329-7.2,1.514-6.35,4.682-15.169,4.682-19a111.321,111.321,0,0,1,1.626-12.708l4.929-4.732s5.281,13.65,10.316,15.888a42.36,42.36,0,0,0,7.419,2.415,9.261,9.261,0,0,0,.074,3.8A7.406,7.406,0,0,0,1507.26,553.265Z" transform="translate(-1465.923 -477.509)" fill="#163560"/>
              <path id="Path_545" data-name="Path 545" d="M1487.795,435.71s-4.214-2.559-8.289,2.3,2.9,39.559,8.934,41.342c6.706,1.98,26.079-.317,26.079-.317l-.373-3.028s-20.624-3.954-21.481-5.056S1489.938,436.27,1487.795,435.71Z" transform="translate(-1469.016 -401.023)" fill="#ffb27d"/>
              <path id="Path_546" data-name="Path 546" d="M1474.23,416.471s-8.655.781-11.168,3.627-3.248,10.56-3.248,10.56,7.622,6.153,16.8,3.765Z" transform="translate(-1453.937 -385.871)" fill="#1c468a"/>
              <g id="Group_473" data-name="Group 473" transform="translate(47.527 64.023)">
                <rect id="Rectangle_85" data-name="Rectangle 85" width="11.432" height="1.351" transform="translate(0 15.607)" fill="#9e332e"/>
                <path id="Path_547" data-name="Path 547" d="M1735.36,615.063c.112-.447,10.509-16.773,10.509-16.773H1769l-11.6,16.334Z" transform="translate(-1726.358 -598.29)" fill="#9e332e"/>
                <path id="Path_548" data-name="Path 548" d="M1740.66,615.248c.112-.447,10.543-16.958,10.543-16.958h22.126l-11.039,16.958Z" transform="translate(-1730.684 -598.29)" fill="#b5453c"/>
                <path id="Path_549" data-name="Path 549" d="M1835.826,639.394a1.847,1.847,0,0,1-1.61,1.2.825.825,0,0,1-.785-1.2,1.848,1.848,0,0,1,1.61-1.2A.825.825,0,0,1,1835.826,639.394Z" transform="translate(-1806.344 -630.86)" fill="#9e332e"/>
              </g>
              <path id="Path_550" data-name="Path 550" d="M1664.19,652.359s6.715-1.3,7.473-.975,4.982,4.116,4.549,4.874-2.167,1.3-4.116.65-6.174-.975-6.932-1.949A6.371,6.371,0,0,1,1664.19,652.359Z" transform="translate(-1620.744 -577.559)" fill="#ffb27d"/>
            </g>
            <path id="Path_551" data-name="Path 551" d="M1481.52,733.478c-2.453,14.154-15.916,23.124-29.716,23.124h-27.823l2.177-85.061s26.546-9.265,33.213-.452c5.842,7.721,21.683,38.286,22.517,56.377A27.655,27.655,0,0,1,1481.52,733.478Z" transform="translate(-1354.554 -590.58)" fill="#f9ddbf"/>
            <path id="Path_552" data-name="Path 552" d="M1506.2,1025.565c-2.454,14.154-15.916,23.124-29.716,23.124h-22.265C1464.639,1041.626,1478.67,1022.109,1506.2,1025.565Z" transform="translate(-1379.231 -882.667)" fill="#eac3a0"/>
            <path id="Path_553" data-name="Path 553" d="M1130.128,523.02q-.312.023-.624.04-.66.035-1.324.045c-.146,0-.294,0-.441,0h-27.823l0-.013-1.606.02c-2.865.035-5.857.069-8.633.092q-.7.008-1.375.012l-.5,0c-2.742.018-5.167.027-6.9.015a45.911,45.911,0,0,1-6.881-.53,30.729,30.729,0,0,1-7.668-2.193,25.082,25.082,0,0,1-2.439-1.238,24.028,24.028,0,0,1-3.018-2.058,27.211,27.211,0,0,1-6.419-7.537,41.246,41.246,0,0,1-3.334-7.268,70.247,70.247,0,0,1-2.927-11.662,151.536,151.536,0,0,1-1.865-21.959q-.111-5.087-.017-10.734.148-9.027.806-19.549c.611-9.863,1.546-20.742,2.781-32.718,1.126-10.939,2.425-18.584,4.315-20.326,2.787-2.569,8.6-3.6,12.645-4.017h0c2.51-.257,4.335-.277,4.335-.277,4.941,0,9.333,3.548,10.918,8.819,3.228,10.734,8.993,29.924,14.993,50l.091.3,1.035,3.467c.052.177.106.353.159.529.338-.151.688-.309,1.051-.468a.26.26,0,0,1,.037-.017c1.438-.638,3.066-1.336,4.823-2.048h0q1.367-.554,2.828-1.116c2.745-1.052,5.709-2.093,8.713-2.989,1.333-.4,2.675-.77,4.009-1.1,1.713-.425,3.413-.784,5.07-1.051l.144-.023c.2-.032.391-.06.586-.089,7.144-1.049,13.343-.32,15.907,4.2,4.1,7.247,15.4,36.157,16.233,54.3C1158.593,510.617,1144.913,521.91,1130.128,523.02Z" transform="translate(-1046.294 -357.059)" fill="#d39e7a"/>
            <path id="Path_554" data-name="Path 554" d="M1176.926,447.684s-14.28-58.178-15.311-63.067a3.691,3.691,0,0,0-3.3-3.169c2.51-.257,4.336-.276,4.336-.276,4.941,0,9.332,3.536,10.918,8.792,3.458,11.464,9.827,32.6,16.278,54.137C1189.52,444.092,1176.926,447.684,1176.926,447.684Z" transform="translate(-1137.723 -357.06)" fill="#f9ddbf"/>
            <path id="Path_555" data-name="Path 555" d="M1369.054,716.367c-3.821-6.317-.613-7.5-1.2-21.652s-7.175-12.981-9.908-15.716a7.378,7.378,0,0,1-1.326-2.907c-.195.029-.389.057-.586.089l-.144.024c-1.656.267-3.356.626-5.07,1.051-1.334.329-2.677.7-4.01,1.1-3,.9-5.968,1.937-8.713,2.989-.974.373-1.917.747-2.828,1.116-2.365,14.844-6.023,81.364-6.023,81.364.03.032.059.062.089.092,2.987-.027,6.216-.062,9.287-.1.438-.007.873-.011,1.3-.017l0,.013h21c.028-.015.057-.034.085-.05l.057-.035c5.639-3.5,4.38-10.514,3.052-14.913-.535-4.7-2.613-10.213-4.311-15.335.527-1.559,1.267-2.45,4.444-3.623,3.53-1.3,4.456-6.855,4.456-6.855.943,2.484-1.213,5.912-1.27,6C1367.562,728.86,1372.834,722.61,1369.054,716.367Z" transform="translate(-1277.235 -597.767)" fill="#c6916d"/>
          </g>
          <g id="girl_2_5_" transform="translate(174.407 98.889)">
            <path id="Path_556" data-name="Path 556" d="M1057.252,739.2s-21.182,9.228-25.026,9.06-27.537-7.216-27.537-7.216l.6,4.076s18.284,10.515,24.676,11.112c6.293.587,27.812-5.648,29.889-6.965S1063.289,740.529,1057.252,739.2Z" transform="translate(-999.867 -704.861)" fill="#ed985f"/>
            <path id="Path_557" data-name="Path 557" d="M1257.345,552.8s7.814-1.484,11.706,1.358c7.049,5.148,7.428,22.9,10.07,25.54s9.011,1.516,9.578,15.2-2.536,14.824,1.16,20.931-1.563,12.219-1.563,12.219,2.154-3.371,1.231-5.8c0,0-.9,5.37-4.309,6.629s-3.916,2.182-4.461,4.028c0,0-29.1-14.914-29.136-25.492s-5.728-21.057-2.931-25.64a10.143,10.143,0,0,0-1.4,4.143,5.454,5.454,0,0,1,1.231-6.209c2.909-2.993-3.412-9.188-2.476-16.363C1246.689,558.409,1250.145,553.013,1257.345,552.8Z" transform="translate(-1196.779 -552.411)" fill="#233862"/>
            <path id="Path_558" data-name="Path 558" d="M1276.63,695.377a20.371,20.371,0,0,0,7.121,3.03c10.976,2.536,15.183-6.741,16.763-13.109a9.429,9.429,0,0,0-3.719-1.142c-.793-.094-1.628-.156-2.319-.19-1.232-.944-3.069-4.808-3.475-10.807l-.517.139-8.651,2.368s.4,2.75.591,5.349c.15,2.034.174,3.978-.211,4.453-.675.146-1.08.242-1.08.242a.033.033,0,0,1,0,.008A55.416,55.416,0,0,0,1276.63,695.377Z" transform="translate(-1221.819 -650.963)" fill="#ffb27d"/>
            <path id="Path_559" data-name="Path 559" d="M1304.93,676.29s.4,2.747.59,5.349c4.9-.491,7.175-5.157,8.061-7.716Z" transform="translate(-1244.917 -651.586)" fill="#ed985f"/>
            <path id="Path_560" data-name="Path 560" d="M1275.46,612.161s11.633-.642,11.122-7.88.646-12.2-6.8-12.092-8.7,2.968-9.112,5.425S1272.422,612.141,1275.46,612.161Z" transform="translate(-1216.91 -584.876)" fill="#ffb27d"/>
            <path id="Path_561" data-name="Path 561" d="M1263.483,586.943c1.64-2.306,3.031-1.926,3.839-1.326a8.142,8.142,0,0,1,10.563.921,13.86,13.86,0,0,0,5.108,7.844s-2.024,1.46-7,.555a8.319,8.319,0,0,1-4.15-2.445,27.174,27.174,0,0,0,5.074,5.364c-6.025-2.278-8.949-10.22-9.243-11.061a9.127,9.127,0,0,0-2.292,3.558c-.447,1.885-2.376,4.831-3.49,4.781C1261.895,595.134,1261.023,590.4,1263.483,586.943Z" transform="translate(-1209.67 -578.253)" fill="#233862"/>
            <path id="Path_562" data-name="Path 562" d="M1272.3,761.6c1.051-5.37,4.476-26.826,1.051-33.73-1.23-2.48-6.057-2.7-11.353-2.486-1.648,1.064-7.928,5.084-10.507,4.583-.028-.005-.078-.017-.145-.034-1.214-.3-1.673-1.157-.66-1.893a23.112,23.112,0,0,0-5.88.36c-1.84.346-6.8,2.914-6.8,2.914s2.5,4.515,6.184,6.073c-.626,5.605.305,8.078,6.12,21.024,4.914,10.944-.663,20.8-.663,20.8s28.926,23.257,29.086,11.415C1278.854,781.708,1270.958,768.465,1272.3,761.6Z" transform="translate(-1190.294 -693.536)" fill="#b5453c"/>
            <path id="Path_563" data-name="Path 563" d="M1173.382,873.556a5.377,5.377,0,0,1-3.869-2.355q-.21-.313-.448-.673c-3.292-4.984-4.573-20.249-11.979-36.51-1.8-3.959-8.279-4.671-10.045-9.147,0,0-4.346-14.506,8.318-14.934s33.916,40.362,34.251,44.64C1189.936,858.719,1197.983,876.331,1173.382,873.556Z" transform="translate(-1115.464 -762.594)" fill="#dd6d22"/>
            <path id="Path_564" data-name="Path 564" d="M1019.72,1112.7h18.025s.674-2.875-.51-4.831c-1.047-1.731-.646-2.717.13-4.149a7,7,0,0,1-3.036.572,6.351,6.351,0,0,1-2.681-.943,64.852,64.852,0,0,1-5.135,5.4C1025.336,1109.593,1020.082,1109.291,1019.72,1112.7Z" transform="translate(-1012.135 -1002.074)" fill="#9e332e"/>
            <path id="Path_565" data-name="Path 565" d="M1293.232,769.79s2.346,21.343-12.868,25.816-19.533-19.638-7.249-21.372A118.218,118.218,0,0,0,1293.232,769.79Z" transform="translate(-1213.125 -729.831)" fill="#9e332e"/>
            <path id="Path_566" data-name="Path 566" d="M1089.253,811.585c-1.085,8.137-5.324,33.819-12.8,46.348-2.41,4.04,6.073,6.3,6.118,6.292,1.138-.3,3.033-2.112,3.907-2.9,6.07-5.471,18.392-20.96,18.392-33.379,0-6.056.106-17.62-4.3-20.559C1097.862,805.578,1089.683,808.353,1089.253,811.585Z" transform="translate(-1058.088 -760.05)" fill="#ed7d2b"/>
            <path id="Path_567" data-name="Path 567" d="M1231.927,869.11s-.668-.93-1.833-2.7c-1.386-2.1-2.92-6.231-4.781-11.527-1.955-5.56-4.274-12.4-7.173-19.517-.894-2.2-1.844-4.421-2.854-6.641-1.8-3.959-6.766-3.412-8.532-7.887,0,0-6.889-15.515,5.774-15.943s36.728,41.5,38.11,45.565C1252.154,854.909,1259.538,873.37,1231.927,869.11Z" transform="translate(-1163.262 -758.483)" fill="#f99746"/>
            <path id="Path_568" data-name="Path 568" d="M1091.7,1112.7h18.025s.674-2.875-.509-4.831c-1.048-1.731-.646-2.717.13-4.149a7,7,0,0,1-3.036.572,6.348,6.348,0,0,1-2.68-.943,64.879,64.879,0,0,1-5.136,5.4C1097.314,1109.593,1092.062,1109.291,1091.7,1112.7Z" transform="translate(-1070.883 -1002.074)" fill="#b5453c"/>
            <path id="Path_569" data-name="Path 569" d="M1284.173,936.864c-1.955-5.56-4.275-12.4-7.173-19.517.757-5.392,2.39-10.11,5.135-12.011C1282.136,905.337,1288.8,925.971,1284.173,936.864Z" transform="translate(-1222.121 -840.46)" fill="#ed7d2b"/>
            <path id="Path_570" data-name="Path 570" d="M1158.514,812.441c-1.085,8.137-2.614,34.4-10.09,46.925-2.41,4.04,6.073,6.3,6.119,6.292,1.137-.3,3.033-2.112,3.907-2.9,6.07-5.47,18.392-20.96,18.392-33.379,0-6.055-7.106-17.134-11.509-20.073A4.43,4.43,0,0,0,1158.514,812.441Z" transform="translate(-1116.829 -761.483)" fill="#f99746"/>
            <g id="Group_476" data-name="Group 476" transform="translate(0 23.727)">
              <path id="Path_571" data-name="Path 571" d="M988.247,683.452l18.459-1.96a1.192,1.192,0,0,1,1.239.761l6.6,17.354a1.191,1.191,0,0,1-1.065,1.614l-18.316.739a1.192,1.192,0,0,1-1.147-.731L987.274,685.1A1.192,1.192,0,0,1,988.247,683.452Z" transform="translate(-985.577 -681.484)" fill="#9e332e"/>
              <path id="Path_572" data-name="Path 572" d="M979.525,684.365l18.459-1.96a1.191,1.191,0,0,1,1.239.761l6.6,17.354a1.191,1.191,0,0,1-1.065,1.614l-18.316.739a1.191,1.191,0,0,1-1.147-.731l-6.747-16.132A1.191,1.191,0,0,1,979.525,684.365Z" transform="translate(-978.459 -682.23)" fill="#b5453c"/>
              <path id="Path_573" data-name="Path 573" d="M1039.6,732.2a.759.759,0,0,1,.713-1.122,1.774,1.774,0,0,1,1.53,1.122.759.759,0,0,1-.714,1.122A1.775,1.775,0,0,1,1039.6,732.2Z" transform="translate(-1028.3 -721.961)" fill="#9e332e"/>
              <path id="Path_574" data-name="Path 574" d="M987.107,699.574a.373.373,0,0,1,.35-.551.872.872,0,0,1,.752.551.373.373,0,0,1-.35.551A.871.871,0,0,1,987.107,699.574Z" transform="translate(-985.488 -695.799)" fill="#9e332e"/>
            </g>
            <path id="Path_575" data-name="Path 575" d="M1164.941,739.2s-25.583,9.421-29.427,9.228c-2.485-.125-23.136-7.384-23.136-7.384l-1.854,3.507s20.1,12.919,25.626,12.855c10.91-.126,29.318-6.823,31.4-8.139S1170.979,740.529,1164.941,739.2Z" transform="translate(-1086.247 -704.861)" fill="#ffb27d"/>
            <path id="Path_576" data-name="Path 576" d="M1061.7,736.172s-1.854-2.853-3.7-2.937-5.035,1.259-6.125,1.468-4.2,1.217-3.273,2.727,5.2,1.846,7.049,1.51a8.555,8.555,0,0,1,4.2.738Z" transform="translate(-1035.574 -699.993)" fill="#ffb27d"/>
            <path id="Path_577" data-name="Path 577" d="M1083.687,726.221s-2.936-1.347-3.775-1.6-.671,0-.419.8,1.762,1.554,1.762,1.8S1083.687,726.221,1083.687,726.221Z" transform="translate(-1060.753 -692.89)" fill="#ffb27d"/>
            <path id="Path_578" data-name="Path 578" d="M994.292,727.317s1.851-2.928,2.457-3.048c1.846-.365,1.846,2.067,1.455,3.635-.42,1.682-1.842,3.271-2.236,3.132S993.857,728.864,994.292,727.317Z" transform="translate(-991.324 -692.647)" fill="#ffb27d"/>
            <path id="Path_579" data-name="Path 579" d="M994.023,744.207a4.9,4.9,0,0,0,2.527,5Z" transform="translate(-991.126 -708.95)" fill="#ffb27d"/>
            <path id="Path_580" data-name="Path 580" d="M1285.13,677.036a10.737,10.737,0,0,1,4.194-.184s-.165,1.207-2.447,1.327A1.819,1.819,0,0,1,1285.13,677.036Z" transform="translate(-1228.756 -653.913)" fill="#fff"/>
            <path id="Path_581" data-name="Path 581" d="M1334.85,741.2A14.055,14.055,0,0,0,1345,750.1s12.977-4,6.515-12.839C1351.512,737.258,1345.124,732.511,1334.85,741.2Z" transform="translate(-1269.337 -702.223)" fill="#b5453c"/>
          </g>
          <path id="Path_582" data-name="Path 582" d="M542.171,1155.588H30.269a.583.583,0,0,1-.581-.581v-.2a.583.583,0,0,1,.581-.581h511.9a.583.583,0,0,1,.581.581v.2A.583.583,0,0,1,542.171,1155.588Z" transform="translate(-29.688 -944.71)" fill="#2e3552"/>
        </g>
      </g>
    </g>
    <g id="Group_481" data-name="Group 481" transform="translate(295.391 1947.54)">
      <path id="Path_485-2" data-name="Path 485" d="M2116.31,1090.559s.569,9.178,2.344,9.309c.236.018,9.006.018,9.006.018l11.194-.065a3.631,3.631,0,0,0-3.345-3.267c-3.272-.57-8.75-2.87-10.732-7.2C2122.692,1084.807,2116.31,1090.559,2116.31,1090.559Z" transform="translate(-2064.13 -903.727)" fill="#163560"/>
      <path id="Path_486-2" data-name="Path 486" d="M2075.011,513.21s5.285,3.005,6.764,3,7.288-1.123,8.906-.3a18.923,18.923,0,0,1,5.1,5.243c.988,1.955-3.98,1.091-6.328-.574a1.482,1.482,0,0,0-1.174-.242c-1.216.265-3.743.724-4.963.273-1.641-.608-10.283-1.282-10.283-1.282Z" transform="translate(-2028.807 -434.919)" fill="#e49963"/>
      <path id="Path_487-2" data-name="Path 487" d="M1865.06,266.417s5.479,38.939,14.55,42.426c4.477,1.721,24.26,5.622,30.111,6.014,0,0,1.434-1.163,1.084-5.9,0,0-20.726-7.609-23.671-11.747-4.382-6.159,2.72-25.16-2.778-30.945S1869.6,258,1865.06,266.417Z" transform="translate(-1859.066 -229.056)" fill="#ed7d2b"/>
      <path id="Path_488-2" data-name="Path 488" d="M1844.055,635.316a68.268,68.268,0,0,0,5.352,7.657c5.888,7.433,12.3,13.562,13.415,19.356a26.186,26.186,0,0,0,1.035,3.708c.467,1.327,1.043,2.722,1.708,4.165a128.279,128.279,0,0,0,9.966,17.038c6.45,9.557,12.514,17.531,12.514,17.531l11.122-.474c-.446-1.115-5.3-14.31-11.786-30.436-2.635-6.546-5.437-13.509-8.141-20.224q-.541-1.345-1.077-2.675c-.826-2.055-1.64-4.078-2.434-6.048-6.093-15.142-10.947-27.2-10.947-27.2s-24.353-9.225-26.882-3.247C1835.816,619.4,1837.514,624.226,1844.055,635.316Z" transform="translate(-1836.213 -515.919)" fill="#599dad"/>
      <path id="Path_489-2" data-name="Path 489" d="M1944.957,961.033s-7.736,4.971-6.985,6.585c.1.215,4.375,7.871,4.375,7.871l5.514,9.743a3.633,3.633,0,0,0,1.222-4.514c-1.1-3.135-1.759-9.038,1.05-12.877C1953.09,963.8,1944.957,961.033,1944.957,961.033Z" transform="translate(-1918.533 -800.422)" fill="#163560"/>
      <path id="Path_490-2" data-name="Path 490" d="M1866.22,690.4s-4.835-4.264-5.687-7.392c0,0,19.922-23.869,24.243-29.219.2-.245.148-.515-.114-.81-3.263-3.679-39.51-11.157-44.247-18.527a22.833,22.833,0,0,1-3.061-7.057,16.679,16.679,0,0,1-.225-7.6l36.2-1.047s30.141,18.767,33.554,31.563S1866.22,690.4,1866.22,690.4Z" transform="translate(-1836.009 -521.055)" fill="#6bb7bf"/>
      <path id="Path_491-2" data-name="Path 491" d="M1887.072,660.309c-3.262-3.679-39.51-11.157-44.247-18.527a22.834,22.834,0,0,1-3.061-7.057v-4.581l15.385-2.42s4.363,13.426,17.285,18.46C1884.537,650.9,1886.83,659.266,1887.072,660.309Z" transform="translate(-1838.42 -528.382)" fill="#5aa9ad"/>
      <path id="Path_492-2" data-name="Path 492" d="M1895.162,202.184c-7.324,1.893-19.464-4.892-19.464-4.892a17.971,17.971,0,0,0,6.461-10.128c.089-.351.168-.71.24-1.079l3.761-.8,5.594,5.011a48.135,48.135,0,0,1-.827,5.657q-.182.936-.421,2.007A17.248,17.248,0,0,1,1895.162,202.184Z" transform="translate(-1867.749 -167.277)" fill="#e49963"/>
      <path id="Path_493-2" data-name="Path 493" d="M1832.649,272.967c1.049,14.108-.331,35.565.859,39.281,1.027,3.206,12.729,1.3,17.4.23,1.729-.4,3.823-.962,5.986-1.631,6.032-1.868,12.605-4.535,13.311-6.515a1.667,1.667,0,0,0,.065-.228,1.813,1.813,0,0,0-.013-.83c-.235-1.009-1.141-2.1-1.248-4.6-.119-2.79-.1-6.076-.206-9.609-.005-.4-.01-.832-.054-1.228l0-.145c0-.076,0-.15-.005-.226-.1-3.94-.307-8.083-.546-12.191-.152-2.58-.327-5.136-.53-7.584a101.379,101.379,0,0,0-2.173-15.493,24.878,24.878,0,0,0-7.993-12.338l-2.226-1.91a12.871,12.871,0,0,1-8.077-1.076c-2.875-1.365-3.868-2.344-4.368-1.975C1836.185,240.022,1831.41,255.719,1832.649,272.967Z" transform="translate(-1832.453 -207.704)" fill="#f99746"/>
      <path id="Path_494-2" data-name="Path 494" d="M1889.188,406.641c6.032-1.868,12.605-4.535,13.311-6.515a1.64,1.64,0,0,0,.065-.228c0-.277-.007-.553-.013-.83-.235-1.009-1.141-2.1-1.248-4.6-.119-2.79-.1-6.076-.206-9.609-.005-.4-.011-.832-.054-1.228l0-.145c0-.076,0-.15-.005-.226l-24.388-31.07S1860.256,386.326,1889.188,406.641Z" transform="translate(-1864.749 -303.498)" fill="#ed7d2b"/>
      <path id="Path_495-2" data-name="Path 495" d="M1920.442,190.3a48.069,48.069,0,0,1-.827,5.657c-5.463-1.765-7.939-6.7-8.767-8.792.089-.351.168-.71.24-1.079l3.761-.8Z" transform="translate(-1896.437 -167.276)" fill="#d68d5d"/>
      <path id="Path_496-2" data-name="Path 496" d="M1919.68,135.656s-11.912-1.988-10.56-9.387.726-12.639,8.388-11.683,8.621,4.049,8.77,6.629S1922.812,135.983,1919.68,135.656Z" transform="translate(-1894.939 -109.48)" fill="#e49963"/>
      <g id="Group_468-2" data-name="Group 468" transform="translate(42.329 61.975)">
        <rect id="Rectangle_83-2" data-name="Rectangle 83" width="1.104" height="28.922" transform="translate(30.335 27.849) rotate(-162.002)" fill="#4a75cb"/>
        <rect id="Rectangle_84-2" data-name="Rectangle 84" width="30.35" height="1.815" transform="matrix(-1, -0.021, 0.021, -1, 30.344, 27.83)" fill="#4a75cb"/>
      </g>
      <path id="Path_497-2" data-name="Path 497" d="M2066.06,555.816s9.75,2.57,13.406,2.3,6.7-2.009,7.157-2.916,1.427-2.518-1.062-2.221-5.887.826-5.993.348,2.029-.433,2.029-.433.646-.938-.167-.972-3.183-.677-4.063-.237-1.692,2.065-2.336,2-8.158-3.385-8.158-3.385Z" transform="translate(-2023.117 -465.19)" fill="#e49963"/>
      <path id="Path_498-2" data-name="Path 498" d="M1878.22,279.114s1.153,39.305,9.785,43.772c4.259,2.2,23.491,8.262,29.264,9.3,0,0,1.553-1,1.728-5.741,0,0-19.761-9.848-22.231-14.285-3.677-6.6,5.478-24.707.65-31.062S1883.656,271.246,1878.22,279.114Z" transform="translate(-1869.807 -240.155)" fill="#f99746"/>
      <path id="Path_499-2" data-name="Path 499" d="M1899.7,107.2a5.635,5.635,0,0,1,1.429-3.993s-.545-2.545.462-2.965,1.217,1.72,1.678,1.385a10.282,10.282,0,0,0,3.4-4.279c.881-2.349,8.945.5,9.885.919s3.961-1.129,4.548-2.388a17.711,17.711,0,0,1-2.434-2.349c-.755-1.007-6.041-7.8-13.425-5.874s-8.391,5.454-7.971,8.475S1896.677,106.182,1899.7,107.2Z" transform="translate(-1885.29 -87.309)" fill="#2b478b"/>
    </g>
    <g id="Group_482" data-name="Group 482" transform="translate(82.358 1934.148)">
      <path id="Path_500-2" data-name="Path 500" d="M688.02,274.86l6.355-.607a1.167,1.167,0,0,1,1.188.714l4.8,11.55a1.167,1.167,0,0,1-.967,1.609l-6.613.632a1.167,1.167,0,0,1-1.2-.735l-4.541-11.575A1.167,1.167,0,0,1,688.02,274.86Z" transform="translate(-684.499 -226.492)" fill="#233862"/>
      <path id="Path_501-2" data-name="Path 501" d="M930.125,611.279l-3.372,1.79s-18.234-19.335-22.619-37.889a28.849,28.849,0,0,1-.763-9.68s-.265-.84-.729-2.326l-.062-.2c-.2-.652-.447-1.419-.717-2.287-.88-2.8-2.09-6.641-3.468-11.009-3.174-10.052-10.433-32.723-13.535-42.153l22.294-8.066s2.532,5.775,6.171,21.47c.56,2.049,1.122,4.314,1.646,6.782.594,2.8,1.149,5.853,1.611,9.155a140.561,140.561,0,0,1,1.336,18.793c.012,2.808-.056,5.721-.223,8.726a38.5,38.5,0,0,0,.82,8.479C921.325,588.136,930.125,611.279,930.125,611.279Z" transform="translate(-846.017 -410.306)" fill="#2b478b"/>
      <path id="Path_502-2" data-name="Path 502" d="M1116.623,1112.7H1098.6s-.674-2.875.509-4.831c1.047-1.731.646-2.717-.13-4.149a7,7,0,0,0,3.036.572,6.349,6.349,0,0,0,2.68-.943,64.794,64.794,0,0,0,5.135,5.4C1111.009,1109.593,1116.261,1109.291,1116.623,1112.7Z" transform="translate(-1020.309 -903.185)" fill="#233862"/>
      <path id="Path_503-2" data-name="Path 503" d="M916.58,536.871l-14,26.107c-.2-.652-.447-1.419-.717-2.287-.88-2.8-2.09-6.641-3.468-11.009-3.174-10.052-10.433-32.723-13.535-42.152l22.294-8.066s2.532,5.775,6.171,21.47c.56,2.049,1.122,4.314,1.646,6.782C915.564,530.512,916.119,533.569,916.58,536.871Z" transform="translate(-846.015 -410.308)" fill="#233862"/>
      <path id="Path_504-2" data-name="Path 504" d="M690.345,344.779c-.112.1-5.454-5.365-8.307-8.391l2.858-1.74,15.6,9.8Z" transform="translate(-680.479 -275.789)" fill="#ffb27d"/>
      <path id="Path_505-2" data-name="Path 505" d="M882.56,1119.936a11.661,11.661,0,0,0,.755,5.642h7.468a9.415,9.415,0,0,0-1.846-5.027C887.035,1117.756,882.56,1119.936,882.56,1119.936Z" transform="translate(-844.081 -916.062)" fill="#233862"/>
      <path id="Path_506-2" data-name="Path 506" d="M899.331,19.1c.1-.478,1.374-5.59,9.307-4.488,0,0-3.958-.213-4.925,1.376,0,0,3.007-1.647,5.039-.6s2.64,5.039,2.437,6.28S909.1,26.7,907.672,26.8a4.224,4.224,0,0,1-1.654-.286,18.854,18.854,0,0,1,.73,2.075c2.022,7.007-2.321,12.755-4.864,11.594-1.63-.745-2.621,2.087-2.621,2.087L885,25.945S893.3,14.391,899.331,19.1Z" transform="translate(-846.135 -14.456)" fill="#2c3a64"/>
      <path id="Path_507-2" data-name="Path 507" d="M883.55,179.244a20.368,20.368,0,0,0,7.121,3.031c10.976,2.536,15.183-6.741,16.763-13.109a9.436,9.436,0,0,0-3.719-1.142c-.793-.094-1.628-.156-2.319-.19-1.233-.944-3.069-4.808-3.475-10.807l-.517.139-8.651,2.368s.4,2.75.59,5.349c.15,2.034.174,3.977-.211,4.453-.675.146-1.08.242-1.08.242a.025.025,0,0,1,0,.008A55.671,55.671,0,0,0,883.55,179.244Z" transform="translate(-844.948 -130.819)" fill="#ffb27d"/>
      <path id="Path_508-2" data-name="Path 508" d="M911.857,160.157s.4,2.748.59,5.349c4.9-.491,7.175-5.157,8.061-7.716Z" transform="translate(-868.052 -131.442)" fill="#ed985f"/>
      <path id="Path_509-2" data-name="Path 509" d="M882.384,96.028s11.633-.642,11.122-7.88.646-12.2-6.8-12.092-8.7,2.968-9.112,5.425S879.345,96.009,882.384,96.028Z" transform="translate(-840.042 -64.731)" fill="#ffb27d"/>
      <path id="Path_510-2" data-name="Path 510" d="M873.649,70.81c1.64-2.306,3.031-1.926,3.839-1.326a8.142,8.142,0,0,1,10.563.922,13.861,13.861,0,0,0,5.108,7.844s-2.024,1.46-7,.555a8.319,8.319,0,0,1-4.15-2.445,27.172,27.172,0,0,0,5.074,5.363c-6.025-2.277-8.949-10.22-9.244-11.061a9.129,9.129,0,0,0-2.291,3.559c-.447,1.885-.435,5.7-1.551,5.648C874,79.867,871.189,74.268,873.649,70.81Z" transform="translate(-836.044 -58.109)" fill="#2c3a64"/>
      <path id="Path_511-2" data-name="Path 511" d="M831.541,215.375s18.951-4.6,27.191,2.2L854.614,275l-37.063-8.954s1.043-3.634,8.15-13.3S829.716,228.912,831.541,215.375Z" transform="translate(-791.081 -177.199)" fill="#ffb27d"/>
      <path id="Path_512-2" data-name="Path 512" d="M833.565,490.839s-.022.195-.06.566c-.017.159-.039.352-.062.577-.159,1.489-.461,4.345-.851,8.059-1.017,9.74-2.613,25.384-3.7,37.733-.851,9.655-1.391,17.3-1.1,18.522.878,3.692,0,47.829,0,47.829-3.15,1.51-7.926,0-7.926,0s-8.391-39.773-7.216-45.3a19.039,19.039,0,0,0-.785-10.247c-6.515-30.34-5.8-47.156-4.507-55.206a33.9,33.9,0,0,1,1.114-4.915,10.3,10.3,0,0,1,.446-1.208A30.659,30.659,0,0,1,833.565,490.839Z" transform="translate(-782.058 -399.429)" fill="#2b478b"/>
      <path id="Path_513-2" data-name="Path 513" d="M849.42,501.7a36.556,36.556,0,0,1-13,2.809,43.566,43.566,0,0,1-10.7-1.015,49.249,49.249,0,0,1-14.538-5.656,33.908,33.908,0,0,1,1.114-4.915c4.375-3.115,15.193-.134,24.03,3.17l.942.357C844.039,499.038,849.42,501.7,849.42,501.7Z" transform="translate(-785.886 -403.897)" fill="#233862"/>
      <path id="Path_514-2" data-name="Path 514" d="M772.285,235.9c-.914,6.909-4.575,15.364-5.882,19.915,0,0,2.185,15.8.1,20.138a1.921,1.921,0,0,1-.89,1c-7.728,3.366-37.825.1-39.1-9.611-.462-3.527,11.464-15.936,12.159-17.441.289-.623.6-2.642-.8-6.825-1.982,6.11-5.642,13.165-9.324,14.369-4.046,1.324-20.044-10.6-20.044-10.6s-.092-1.448,1.93-2.818a12.337,12.337,0,0,1,4.288-1.178l10.23,4.578c1.284-2.2,4.483-17.395,8.054-24.255,2.685-5.157,9.854-5.9,9.854-5.9s2.984,4.733,10.2,4.061,8.536-5.089,8.536-5.089,6.4.851,8.372,2.442C770.311,218.954,773.485,226.845,772.285,235.9Z" transform="translate(-702.08 -179.145)" fill="#f99746"/>
      <path id="Path_515-2" data-name="Path 515" d="M974.429,343.1s2.185,15.8.1,20.138c-5.63-2.826-12.969-8.927-10.735-18.458,3.244-13.849,16.518-21.6,16.518-21.6C979.4,330.1,975.736,338.551,974.429,343.1Z" transform="translate(-910.104 -266.435)" fill="#ed7d2b"/>
      <path id="Path_516-2" data-name="Path 516" d="M947.355,373.75s-8.015,1.162-8.655,1.76-2.851,4.075-2.578,5.284.244,2.456.735,2.37,2.091-3.159,2.7-3.3,1.1-.555,1.177-.285-1.23,1.563-1.166,1.93,1.091-.063,1.552-.776,1.612-1.067,1.785-1.511.967-1.916,2.046-1.848S947.355,373.75,947.355,373.75Z" transform="translate(-887.837 -307.703)" fill="#ffb27d"/>
      <path id="Path_517-2" data-name="Path 517" d="M993.284,372.033l-7.8.316-2.668,3.637,10.607.355Z" transform="translate(-925.967 -306.302)" fill="#ffb27d"/>
      <path id="Path_518-2" data-name="Path 518" d="M997.331,216.236s9.295,1.1,11.854,5.089c3.236,5.04,14.668,21.753,14.422,26.81,0,0-7.122,2.837-26.269,1.316,0,0-.348-2.9,3.68-5.22,0,0,10.279-1.408,11.412-2.405l-7.632-8.11Z" transform="translate(-937.813 -179.144)" fill="#f99746"/>
      <path id="Path_519-2" data-name="Path 519" d="M680.489,275.545l6.355-.607a1.167,1.167,0,0,1,1.188.714l4.8,11.55a1.167,1.167,0,0,1-.966,1.609l-6.613.632a1.167,1.167,0,0,1-1.2-.736l-4.54-11.574A1.167,1.167,0,0,1,680.489,275.545Z" transform="translate(-678.352 -227.05)" fill="#2b478b"/>
      <path id="Path_520-2" data-name="Path 520" d="M675.115,306.6s-1.678-2.895-1.552-3.608,1.863-4.021,2.755-4.349c1.594-.587,3.832-.951,3.217.727-.406,1.108-2.014,2.713-1.734,3.217a7.036,7.036,0,0,1,.172,2.274Z" transform="translate(-673.556 -246)" fill="#ffb27d"/>
    </g>
  </g>
</svg>
