<svg xmlns="http://www.w3.org/2000/svg" width="47.285" height="20" viewBox="0 0 47.285 20">
  <g id="Group_7" data-name="Group 7" transform="translate(-296.253 -293)">
    <text id="X-ray" transform="translate(301.895 307)" fill="#eee" font-size="13" font-family="Poppins-Regular, Poppins"><tspan x="0" y="0">X-ray</tspan></text>
    <g id="Path_25" data-name="Path 25" transform="translate(296.253 293)" fill="none">
      <path d="M5.629,0H41.655c3.109,0,5.629,2.239,5.629,5V15c0,2.761-2.52,5-5.629,5H5.629C2.52,20,0,17.761,0,15V5C0,2.239,2.52,0,5.629,0Z" stroke="none"/>
      <path d="M 5.629123687744141 1 C 3.076614379882813 1 1.000003814697266 2.794389724731445 1.000003814697266 5 L 1.000003814697266 15 C 1.000003814697266 17.20561027526855 3.076614379882813 19 5.629123687744141 19 L 41.65548324584961 19 C 44.20799255371094 19 46.28460311889648 17.20561027526855 46.28460311889648 15 L 46.28460311889648 5 C 46.28460311889648 2.794389724731445 44.20799255371094 1 41.65548324584961 1 L 5.629123687744141 1 M 5.629123687744141 0 L 41.65548324584961 0 C 44.76436233520508 0 47.28460311889648 2.238580703735352 47.28460311889648 5 L 47.28460311889648 15 C 47.28460311889648 17.76141929626465 44.76436233520508 20 41.65548324584961 20 L 5.629123687744141 20 C 2.520244598388672 20 3.814697265625e-06 17.76141929626465 3.814697265625e-06 15 L 3.814697265625e-06 5 C 3.814697265625e-06 2.238580703735352 2.520244598388672 0 5.629123687744141 0 Z" stroke="none" fill="#e8e8e8"/>
    </g>
  </g>
</svg>
