<svg xmlns="http://www.w3.org/2000/svg" xmlns:xlink="http://www.w3.org/1999/xlink" width="283.808" height="264.345" viewBox="0 0 283.808 264.345">
  <defs>
    <clipPath id="clip-path">
      <circle id="Ellipse_62" data-name="Ellipse 62" cx="126" cy="126" r="126" transform="translate(920 2085)" fill="#fff"/>
    </clipPath>
  </defs>
  <g id="Group_485" data-name="Group 485" transform="translate(-1033 -1877.655)">
    <g id="Mask_Group_9" data-name="Mask Group 9" transform="translate(113 -195)" clip-path="url(#clip-path)">
      <g id="_4537621-01" data-name="4537621-01" transform="translate(892.943 2049.658)">
        <g id="Floor" transform="translate(27.057 160.507)">
          <path id="Path_365" data-name="Path 365" d="M289.854,248.174c60.118,34.709,60.117,90.984,0,125.693s-157.59,34.709-217.707,0-60.119-90.983,0-125.693S229.735,213.465,289.854,248.174Z" transform="translate(-27.057 -222.143)" fill="#f5f5f5"/>
        </g>
        <g id="Shadows" transform="translate(47.216 197.041)">
          <path id="Path_366" data-name="Path 366" d="M94.6,349.147c8.772,5.065,8.772,13.276,0,18.341s-23,5.065-31.768,0-8.772-13.276,0-18.341S85.827,344.083,94.6,349.147Z" transform="translate(-56.252 -296.808)" fill="#e0e0e0"/>
          <path id="Path_367" data-name="Path 367" d="M175.181,311.284l-61.874,35.723L68.323,320.841,130.2,285.117Z" transform="translate(-59.988 -278.166)" fill="#e0e0e0"/>
          <path id="Path_368" data-name="Path 368" d="M300.468,381.53,148.357,293.708a2.078,2.078,0,0,1,0-3.6l24.551-14.175a6.589,6.589,0,0,1,6.588,0l152.111,87.822a2.078,2.078,0,0,1,0,3.6l-24.552,14.175A6.59,6.59,0,0,1,300.468,381.53Z" transform="translate(-84.437 -275.051)" fill="#e0e0e0"/>
        </g>
        <g id="Plant" transform="translate(283.647 211.25)">
          <g id="Group_428" data-name="Group 428">
            <g id="Group_426" data-name="Group 426">
              <path id="Path_369" data-name="Path 369" d="M401.984,342.521l8.55,4.966s-4.314-13.771-1.92-27.624a26.556,26.556,0,0,1,3.477-9.222c.672-1.4,5.826-10.036,1.288-14.02s-15.185,3.941-14.708,25.277A82.887,82.887,0,0,0,401.984,342.521Z" transform="translate(-398.657 -295.629)" fill="#ba68c8"/>
              <path id="Path_370" data-name="Path 370" d="M401.984,342.521l8.55,4.966s-4.314-13.771-1.92-27.624a26.556,26.556,0,0,1,3.477-9.222c.672-1.4,5.826-10.036,1.288-14.02s-15.185,3.941-14.708,25.277A82.887,82.887,0,0,0,401.984,342.521Z" transform="translate(-398.657 -295.629)" opacity="0.3"/>
              <path id="Path_371" data-name="Path 371" d="M407.712,346.731a.309.309,0,0,1-.291-.2c-.032-.088-3.261-9.052-3.091-23.436.171-14.453,7.76-22.154,7.837-22.231a.31.31,0,0,1,.436.44c-.075.074-7.486,7.611-7.654,21.8-.168,14.261,3.02,23.128,3.053,23.216a.309.309,0,0,1-.184.4A.3.3,0,0,1,407.712,346.731Z" transform="translate(-400.41 -297.22)" fill="#fff"/>
            </g>
            <g id="Group_427" data-name="Group 427" transform="translate(2.287 14.627)">
              <path id="Path_372" data-name="Path 372" d="M405.416,350.363l14.124,8.307s6.467-.953,5.978-7.04-3.117-7.522.155-10.2,4.116-2.852,3.959-5.474-1.92-3.765-2.75-4.8-3.143-3.218-1.515-6.38,3.833-6.217.559-7.666c-1.954-.865-5.242.219-7.422,2.532s-3.977,3.977-6.041,4.514-6.369.579-6.225,4.137,1.069,4.786.206,6.365C404.817,337.631,397.875,339.234,405.416,350.363Z" transform="translate(-401.969 -316.812)" fill="#ba68c8"/>
              <path id="Path_373" data-name="Path 373" d="M415.128,354.88a.309.309,0,0,1-.308-.284c-.017-.211-1.552-21.233,13.053-35.037a.31.31,0,1,1,.425.451c-14.385,13.6-12.879,34.329-12.861,34.537a.31.31,0,0,1-.284.334Z" transform="translate(-405.929 -317.636)" fill="#fff"/>
              <path id="Path_374" data-name="Path 374" d="M416.823,340.444a.309.309,0,0,1-.308-.287,12.061,12.061,0,0,0-4.325-8.452.31.31,0,0,1,.362-.5,12.462,12.462,0,0,1,4.581,8.91.31.31,0,0,1-.286.332Z" transform="translate(-405.092 -321.248)" fill="#fff"/>
              <path id="Path_375" data-name="Path 375" d="M417.309,348.165a.309.309,0,0,1-.231-.516c.152-.168,3.812-4.12,12.283-2.957a.309.309,0,1,1-.084.613c-8.124-1.117-11.7,2.719-11.738,2.758A.309.309,0,0,1,417.309,348.165Z" transform="translate(-406.621 -325.374)" fill="#fff"/>
            </g>
          </g>
        </g>
        <g id="Folder" transform="translate(118.12 87.247)">
          <g id="Group_432" data-name="Group 432">
            <g id="Group_429" data-name="Group 429" transform="translate(135.732 97.208)">
              <path id="Path_376" data-name="Path 376" d="M375.223,268.363l-19.717-11.54,11.745,16.143Z" transform="translate(-355.506 -256.823)" fill="#ba68c8"/>
              <path id="Path_377" data-name="Path 377" d="M375.223,268.363l-19.717-11.54,11.745,16.143Z" transform="translate(-355.506 -256.823)" opacity="0.6"/>
            </g>
            <path id="Path_378" data-name="Path 378" d="M314.643,267.524,199.256,200.9a3.258,3.258,0,0,1-1.628-2.821V119.307a3.257,3.257,0,0,1,4.885-2.821L317.9,183.105a3.257,3.257,0,0,1,1.629,2.821V264.7A3.257,3.257,0,0,1,314.643,267.524Z" transform="translate(-170.911 -116.045)" fill="#e0e0e0"/>
            <path id="Path_379" data-name="Path 379" d="M371.482,278.138l7.972-4.6v93.258a4.779,4.779,0,0,1-2.4,4.143l-7.88,4.565Z" transform="translate(-224.005 -164.788)" fill="#ba68c8"/>
            <path id="Path_380" data-name="Path 380" d="M371.482,278.138l7.972-4.6v93.258a4.779,4.779,0,0,1-2.4,4.143l-7.88,4.565Z" transform="translate(-224.005 -164.788)" opacity="0.3"/>
            <path id="Path_381" data-name="Path 381" d="M307.062,271.789,191.675,205.171a3.258,3.258,0,0,1-1.628-2.821V123.572a3.257,3.257,0,0,1,4.885-2.821L310.319,187.37a3.256,3.256,0,0,1,1.628,2.821v78.777A3.257,3.257,0,0,1,307.062,271.789Z" transform="translate(-168.565 -117.365)" fill="#ebebeb"/>
            <path id="Path_382" data-name="Path 382" d="M299.474,276.258,184.087,209.639a3.256,3.256,0,0,1-1.628-2.821V128.04a3.257,3.257,0,0,1,4.885-2.821l115.387,66.619a3.256,3.256,0,0,1,1.628,2.821v78.778A3.257,3.257,0,0,1,299.474,276.258Z" transform="translate(-166.216 -118.748)" fill="#fafafa"/>
            <path id="Path_383" data-name="Path 383" d="M158.936,126v115.8a9.368,9.368,0,0,0,4.684,8.113l136.007,78.52a4.524,4.524,0,0,0,6.786-3.917V231.107l-71.745-41.42-12.377-28.594a27.1,27.1,0,0,0-11.321-12.7l-45.406-26.214A4.419,4.419,0,0,0,158.936,126Z" transform="translate(-158.936 -117.757)" fill="#ba68c8"/>
            <path id="Path_384" data-name="Path 384" d="M158.936,126v115.8a9.368,9.368,0,0,0,4.684,8.113l136.007,78.52a4.524,4.524,0,0,0,6.786-3.917V231.107l-71.745-41.42-12.377-28.594a27.1,27.1,0,0,0-11.321-12.7l-45.406-26.214A4.419,4.419,0,0,0,158.936,126Z" transform="translate(-158.936 -117.757)" opacity="0.2"/>
            <g id="Group_431" data-name="Group 431" transform="translate(34.326 82.589)">
              <g id="Group_430" data-name="Group 430">
                <path id="Path_385" data-name="Path 385" d="M282.126,287.648q-.575-.333-1.137-.586c-.3-8.876-6.5-19.406-14.114-23.8a12.162,12.162,0,0,0-7.04-1.893c-2.9-9.4-9.566-18.661-17.326-23.141-9.9-5.717-18.019-1.6-18.809,9.146-.474-.331-.956-.64-1.443-.922-7.516-4.34-13.61-.822-13.61,7.857s6.094,19.233,13.61,23.573l59.869,34.565c5.931,3.424,10.739.648,10.739-6.2S288.057,291.072,282.126,287.648Z" transform="translate(-208.648 -235.652)" fill="#ba68c8"/>
                <path id="Path_386" data-name="Path 386" d="M282.126,287.648q-.575-.333-1.137-.586c-.3-8.876-6.5-19.406-14.114-23.8a12.162,12.162,0,0,0-7.04-1.893c-2.9-9.4-9.566-18.661-17.326-23.141-9.9-5.717-18.019-1.6-18.809,9.146-.474-.331-.956-.64-1.443-.922-7.516-4.34-13.61-.822-13.61,7.857s6.094,19.233,13.61,23.573l59.869,34.565c5.931,3.424,10.739.648,10.739-6.2S288.057,291.072,282.126,287.648Z" transform="translate(-208.648 -235.652)" fill="#fff" opacity="0.4"/>
              </g>
              <path id="Path_387" data-name="Path 387" d="M241.19,300.2l14.1,25.718,15.075-9.135-5.96-3.366V287.964l-16.057-9.256v25.664Z" transform="translate(-218.72 -248.978)" fill="#fff"/>
            </g>
          </g>
        </g>
        <g id="Arrow" transform="translate(59.147 58.507)">
          <g id="Group_433" data-name="Group 433" transform="translate(0)">
            <path id="Path_388" data-name="Path 388" d="M148.72,74.424a70.8,70.8,0,0,0-67.487,49.385l-5.709-3.292a1.147,1.147,0,0,0-1.714.908,70.507,70.507,0,0,0,4.664,32.552A58.786,58.786,0,0,0,86.58,168.3a.989.989,0,0,0,1.694-.253,65.49,65.49,0,0,1,10.174-17.269,64.641,64.641,0,0,1,9.24-9.321,1.512,1.512,0,0,0-.205-2.486l-6.849-3.954a61.041,61.041,0,0,1,118.585,3.831A70.788,70.788,0,0,0,148.72,74.424Z" transform="translate(-73.531 -74.424)" fill="#ba68c8"/>
            <path id="Path_389" data-name="Path 389" d="M148.72,74.424a70.8,70.8,0,0,0-67.487,49.385l-5.709-3.292a1.147,1.147,0,0,0-1.714.908,70.507,70.507,0,0,0,4.664,32.552A58.786,58.786,0,0,0,86.58,168.3a.989.989,0,0,0,1.694-.253,65.49,65.49,0,0,1,10.174-17.269,64.641,64.641,0,0,1,9.24-9.321,1.512,1.512,0,0,0-.205-2.486l-6.849-3.954a61.041,61.041,0,0,1,118.585,3.831A70.788,70.788,0,0,0,148.72,74.424Z" transform="translate(-73.531 -74.424)" fill="#fff" opacity="0.4"/>
          </g>
        </g>
        <g id="Files" transform="translate(196.838 22.997)">
          <g id="Group_448" data-name="Group 448">
            <g id="Group_437" data-name="Group 437" transform="translate(38.418)">
              <g id="Group_434" data-name="Group 434">
                <path id="Path_390" data-name="Path 390" d="M370.149,60.259c0,12.717-8.928,17.871-19.941,11.513S330.266,49.95,330.266,37.233s8.928-17.871,19.942-11.513S370.149,47.543,370.149,60.259Z" transform="translate(-329.098 -22.997)" fill="#ba68c8"/>
                <path id="Path_391" data-name="Path 391" d="M370.149,60.259c0,12.717-8.928,17.871-19.941,11.513S330.266,49.95,330.266,37.233s8.928-17.871,19.942-11.513S370.149,47.543,370.149,60.259Z" transform="translate(-329.098 -22.997)" opacity="0.2"/>
                <path id="Path_392" data-name="Path 392" d="M368.457,61.236c0,12.717-8.927,17.871-19.941,11.513S328.575,50.927,328.575,38.21,337.5,20.339,348.516,26.7,368.457,48.519,368.457,61.236Z" transform="translate(-328.575 -23.299)" fill="#ba68c8"/>
              </g>
              <g id="Group_436" data-name="Group 436" transform="translate(10.653 10.626)">
                <path id="Path_393" data-name="Path 393" d="M345.345,60.931l15.389,8.885a1.23,1.23,0,0,0,1.846-1.065V49.761a2.684,2.684,0,0,0-1.341-2.324l-15.389-8.885A1.231,1.231,0,0,0,344,39.618V58.606A2.684,2.684,0,0,0,345.345,60.931Z" transform="translate(-344.003 -38.385)" fill="#ba68c8"/>
                <path id="Path_394" data-name="Path 394" d="M345.345,60.931l15.389,8.885a1.23,1.23,0,0,0,1.846-1.065V49.761a2.684,2.684,0,0,0-1.341-2.324l-15.389-8.885A1.231,1.231,0,0,0,344,39.618V58.606A2.684,2.684,0,0,0,345.345,60.931Z" transform="translate(-344.003 -38.385)" fill="#fff" opacity="0.6"/>
                <path id="Path_395" data-name="Path 395" d="M347.745,59.293l12.339,7.124a.988.988,0,0,0,1.481-.855V51.314a2.151,2.151,0,0,0-1.077-1.863l-12.339-7.124a.987.987,0,0,0-1.48.855V57.429A2.152,2.152,0,0,0,347.745,59.293Z" transform="translate(-344.828 -39.564)" fill="#ba68c8"/>
                <path id="Path_396" data-name="Path 396" d="M361.566,51.313V65.561a.985.985,0,0,1-1.482.853l-12.339-7.123a2.147,2.147,0,0,1-1.073-1.86V43.183a.983.983,0,0,1,1.476-.854l12.337,7.124A2.139,2.139,0,0,1,361.566,51.313Z" transform="translate(-344.829 -39.565)" fill="#fff" opacity="0.4"/>
                <g id="Group_435" data-name="Group 435" transform="translate(1.844 8.3)">
                  <path id="Path_397" data-name="Path 397" d="M361.566,70.013v.525a.985.985,0,0,1-1.482.853l-12.339-7.123a2.147,2.147,0,0,1-1.073-1.86V61.018l3.226-2.739,3.812,5.428,3.726-4.428Z" transform="translate(-346.673 -52.843)" fill="#fafafa"/>
                  <path id="Path_398" data-name="Path 398" d="M352.828,51.592a3.674,3.674,0,0,0,1.661,2.879c.918.53,1.662.1,1.662-.96a3.672,3.672,0,0,0-1.662-2.878C353.572,50.1,352.828,50.532,352.828,51.592Z" transform="translate(-348.578 -50.406)" fill="#fafafa"/>
                </g>
              </g>
            </g>
            <g id="Group_441" data-name="Group 441" transform="translate(72.978 70.898)">
              <g id="Group_438" data-name="Group 438">
                <path id="Path_399" data-name="Path 399" d="M420.2,162.935c0,12.717-8.928,17.871-19.941,11.513s-19.941-21.822-19.941-34.539,8.928-17.871,19.941-11.513S420.2,150.219,420.2,162.935Z" transform="translate(-379.148 -125.673)" fill="#ba68c8"/>
                <path id="Path_400" data-name="Path 400" d="M420.2,162.935c0,12.717-8.928,17.871-19.941,11.513s-19.941-21.822-19.941-34.539,8.928-17.871,19.941-11.513S420.2,150.219,420.2,162.935Z" transform="translate(-379.148 -125.673)" opacity="0.2"/>
                <path id="Path_401" data-name="Path 401" d="M418.507,163.912c0,12.717-8.928,17.872-19.941,11.513s-19.941-21.822-19.941-34.539,8.928-17.871,19.941-11.513S418.507,151.2,418.507,163.912Z" transform="translate(-378.625 -125.975)" fill="#ba68c8"/>
              </g>
              <g id="Group_440" data-name="Group 440" transform="translate(10.652 10.626)">
                <path id="Path_402" data-name="Path 402" d="M395.9,141.228a1.231,1.231,0,0,0-1.846,1.065v18.989a2.683,2.683,0,0,0,1.342,2.324l15.389,8.885a1.231,1.231,0,0,0,1.846-1.065V157.31l-4.176-8.834Z" transform="translate(-394.052 -141.061)" fill="#ba68c8"/>
                <path id="Path_403" data-name="Path 403" d="M395.9,141.228a1.231,1.231,0,0,0-1.846,1.065v18.989a2.683,2.683,0,0,0,1.342,2.324l15.389,8.885a1.231,1.231,0,0,0,1.846-1.065V157.31l-4.176-8.834Z" transform="translate(-394.052 -141.061)" fill="#fff" opacity="0.6"/>
                <path id="Path_404" data-name="Path 404" d="M414.111,155.028l.539-3.228,4.165,8.838-3.763-3.1A2.685,2.685,0,0,1,414.111,155.028Z" transform="translate(-400.249 -144.385)" fill="#ba68c8"/>
                <path id="Path_405" data-name="Path 405" d="M414.111,155.028l.539-3.228,4.165,8.838-3.763-3.1A2.685,2.685,0,0,1,414.111,155.028Z" transform="translate(-400.249 -144.385)" fill="#fff" opacity="0.4"/>
                <g id="Group_439" data-name="Group 439" transform="translate(2.791 10.201)">
                  <path id="Path_406" data-name="Path 406" d="M410.665,163.693a.416.416,0,0,1-.211-.057l-12.148-7.013a.422.422,0,1,1,.422-.732l12.148,7.013a.422.422,0,0,1-.211.789Z" transform="translate(-398.094 -155.835)" fill="#fafafa"/>
                  <path id="Path_407" data-name="Path 407" d="M410.665,169.655a.416.416,0,0,1-.211-.057l-12.148-7.013a.422.422,0,1,1,.422-.732l12.148,7.013a.422.422,0,0,1-.211.789Z" transform="translate(-398.094 -157.68)" fill="#fafafa"/>
                  <path id="Path_408" data-name="Path 408" d="M410.665,175.617a.416.416,0,0,1-.211-.057l-12.148-7.013a.422.422,0,1,1,.422-.732l12.148,7.013a.422.422,0,0,1-.211.789Z" transform="translate(-398.094 -159.525)" fill="#fafafa"/>
                </g>
              </g>
            </g>
            <g id="Group_444" data-name="Group 444" transform="translate(0 29.491)">
              <g id="Group_442" data-name="Group 442">
                <path id="Path_409" data-name="Path 409" d="M314.511,102.969c0,12.717-8.928,17.872-19.941,11.513S274.629,92.66,274.629,79.943s8.928-17.872,19.941-11.513S314.511,90.252,314.511,102.969Z" transform="translate(-273.461 -65.706)" fill="#ba68c8"/>
                <path id="Path_410" data-name="Path 410" d="M314.511,102.969c0,12.717-8.928,17.872-19.941,11.513S274.629,92.66,274.629,79.943s8.928-17.872,19.941-11.513S314.511,90.252,314.511,102.969Z" transform="translate(-273.461 -65.706)" opacity="0.2"/>
                <path id="Path_411" data-name="Path 411" d="M312.819,103.946c0,12.717-8.928,17.871-19.941,11.513S272.937,93.637,272.937,80.92s8.928-17.872,19.941-11.513S312.819,91.229,312.819,103.946Z" transform="translate(-272.937 -66.009)" fill="#ba68c8"/>
              </g>
              <g id="Group_443" data-name="Group 443" transform="translate(10.654 10.627)">
                <path id="Path_412" data-name="Path 412" d="M289.707,103.641l15.389,8.885a1.231,1.231,0,0,0,1.846-1.065V92.472a2.684,2.684,0,0,0-1.342-2.324l-15.389-8.885a1.231,1.231,0,0,0-1.846,1.065v18.989A2.681,2.681,0,0,0,289.707,103.641Z" transform="translate(-288.366 -81.097)" fill="#ba68c8"/>
                <path id="Path_413" data-name="Path 413" d="M289.707,103.641l15.389,8.885a1.231,1.231,0,0,0,1.846-1.065V92.472a2.684,2.684,0,0,0-1.342-2.324l-15.389-8.885a1.231,1.231,0,0,0-1.846,1.065v18.989A2.681,2.681,0,0,0,289.707,103.641Z" transform="translate(-288.366 -81.097)" fill="#fff" opacity="0.6"/>
                <path id="Path_414" data-name="Path 414" d="M296.381,98.88v6.444a.957.957,0,0,0,.958.958h5.59a.958.958,0,0,0,.724-1.585l-5.59-6.444A.957.957,0,0,0,296.381,98.88Z" transform="translate(-290.847 -86.304)" fill="#fafafa"/>
              </g>
            </g>
            <g id="Group_445" data-name="Group 445" transform="translate(59.039 51.246)">
              <path id="Path_415" data-name="Path 415" d="M358.927,99.495a.488.488,0,0,1-.489-.489V97.7a.489.489,0,1,1,.978,0v1.3A.489.489,0,0,1,358.927,99.495Z" transform="translate(-358.438 -97.212)" fill="#ba68c8"/>
              <path id="Path_416" data-name="Path 416" d="M358.927,174.29a.488.488,0,0,1-.489-.489v-2.609a.489.489,0,0,1,.978,0V173.8A.488.488,0,0,1,358.927,174.29Zm0-5.217a.488.488,0,0,1-.489-.489v-2.609a.489.489,0,1,1,.978,0v2.609A.489.489,0,0,1,358.927,169.074Zm0-5.217a.488.488,0,0,1-.489-.489v-2.609a.489.489,0,1,1,.978,0v2.609A.488.488,0,0,1,358.927,163.856Zm0-5.217a.488.488,0,0,1-.489-.489v-2.609a.489.489,0,0,1,.978,0v2.609A.488.488,0,0,1,358.927,158.639Zm0-5.217a.488.488,0,0,1-.489-.489v-2.609a.489.489,0,1,1,.978,0v2.609A.488.488,0,0,1,358.927,153.421Zm0-5.217a.488.488,0,0,1-.489-.489v-2.609a.489.489,0,1,1,.978,0v2.609A.489.489,0,0,1,358.927,148.2Zm0-5.217a.488.488,0,0,1-.489-.489V139.89a.489.489,0,0,1,.978,0V142.5A.489.489,0,0,1,358.927,142.987Zm0-5.217a.488.488,0,0,1-.489-.489v-2.609a.489.489,0,1,1,.978,0v2.609A.488.488,0,0,1,358.927,137.77Zm0-5.217a.488.488,0,0,1-.489-.489v-2.609a.489.489,0,1,1,.978,0v2.609A.489.489,0,0,1,358.927,132.553Zm0-5.217a.488.488,0,0,1-.489-.489v-2.609a.489.489,0,1,1,.978,0v2.609A.489.489,0,0,1,358.927,127.335Zm0-5.217a.488.488,0,0,1-.489-.489V119.02a.489.489,0,0,1,.978,0v2.609A.488.488,0,0,1,358.927,122.118Zm0-5.217a.488.488,0,0,1-.489-.489V113.8a.489.489,0,1,1,.978,0v2.609A.488.488,0,0,1,358.927,116.9Zm0-5.217a.488.488,0,0,1-.489-.489v-2.609a.489.489,0,1,1,.978,0v2.609A.488.488,0,0,1,358.927,111.683Zm0-5.217a.488.488,0,0,1-.489-.489v-2.609a.489.489,0,1,1,.978,0v2.609A.489.489,0,0,1,358.927,106.466Z" transform="translate(-358.438 -98.966)" fill="#ba68c8"/>
              <path id="Path_417" data-name="Path 417" d="M358.927,210.942a.488.488,0,0,1-.489-.489v-1.3a.489.489,0,0,1,.978,0v1.3A.489.489,0,0,1,358.927,210.942Z" transform="translate(-358.438 -131.705)" fill="#ba68c8"/>
            </g>
            <g id="Group_446" data-name="Group 446" transform="translate(61.584 96.833)">
              <path id="Path_418" data-name="Path 418" d="M376.783,164.792a.489.489,0,0,1-.219-.927l1.167-.581a.489.489,0,0,1,.436.876L377,164.74A.481.481,0,0,1,376.783,164.792Z" transform="translate(-366.51 -163.232)" fill="#ba68c8"/>
              <path id="Path_419" data-name="Path 419" d="M368.464,168.552a.489.489,0,0,1-.219-.927l2.872-1.429a.489.489,0,0,1,.436.876l-2.872,1.429A.492.492,0,0,1,368.464,168.552Z" transform="translate(-363.935 -164.133)" fill="#ba68c8"/>
              <path id="Path_420" data-name="Path 420" d="M362.614,171.843a.489.489,0,0,1-.219-.927l1.167-.581a.489.489,0,0,1,.436.876l-1.167.581A.481.481,0,0,1,362.614,171.843Z" transform="translate(-362.124 -165.414)" fill="#ba68c8"/>
            </g>
            <g id="Group_447" data-name="Group 447" transform="translate(42.829 65.785)">
              <path id="Path_421" data-name="Path 421" d="M336.129,120.363a.487.487,0,0,1-.418-.236l-.676-1.116a.489.489,0,1,1,.836-.507l.676,1.116a.489.489,0,0,1-.418.743Z" transform="translate(-334.963 -118.268)" fill="#ba68c8"/>
              <path id="Path_422" data-name="Path 422" d="M347.745,139.536a.488.488,0,0,1-.418-.235l-1.339-2.21a.489.489,0,1,1,.836-.507l1.339,2.21a.488.488,0,0,1-.418.742Zm-2.678-4.421a.488.488,0,0,1-.418-.235l-1.339-2.21a.489.489,0,1,1,.836-.507l1.339,2.21a.488.488,0,0,1-.418.742Zm-2.678-4.421a.488.488,0,0,1-.418-.235l-1.339-2.21a.489.489,0,1,1,.836-.507l1.339,2.21a.488.488,0,0,1-.418.742Zm-2.678-4.42a.488.488,0,0,1-.418-.235l-1.339-2.21a.489.489,0,1,1,.836-.507l1.339,2.21a.489.489,0,0,1-.164.672A.5.5,0,0,1,339.711,126.275Z" transform="translate(-335.867 -119.759)" fill="#ba68c8"/>
              <path id="Path_423" data-name="Path 423" d="M354.562,150.788a.488.488,0,0,1-.418-.235l-.676-1.116a.489.489,0,1,1,.836-.507l.676,1.116a.489.489,0,0,1-.164.672A.494.494,0,0,1,354.562,150.788Z" transform="translate(-340.668 -127.685)" fill="#ba68c8"/>
            </g>
          </g>
        </g>
        <g id="Stairs" transform="translate(64.542 185.607)">
          <g id="Group_449" data-name="Group 449">
            <path id="Path_424" data-name="Path 424" d="M81.344,322.926l30.006,17.41v9.2L81.344,332.13Z" transform="translate(-81.344 -278.435)" fill="#455a64"/>
            <path id="Path_425" data-name="Path 425" d="M140.966,302.024v17.118L124.8,328.2v9.2l47.143-26.454V283.706Z" transform="translate(-94.793 -266.296)" fill="#263238"/>
            <path id="Path_426" data-name="Path 426" d="M111.35,336.277l16.167-9.055L97.511,309.813l-16.167,9.055Z" transform="translate(-81.344 -274.376)" fill="#37474f"/>
            <path id="Path_427" data-name="Path 427" d="M134.764,319.549V302.432l-30.006-17.41V302.14Z" transform="translate(-88.591 -266.704)" fill="#455a64"/>
            <path id="Path_428" data-name="Path 428" d="M134.764,294.221l-30.006-17.41,30.975-18.318,30.006,17.41Z" transform="translate(-88.591 -258.493)" fill="#37474f"/>
          </g>
        </g>
        <g id="Character" transform="translate(51.133 123.112)">
          <g id="Group_460" data-name="Group 460">
            <path id="Path_429" data-name="Path 429" d="M158.555,193.368s-7.39,10.331-3,13.941,14.024.666,14.412-1.016S158.555,193.368,158.555,193.368Z" transform="translate(-90.472 -175.842)" fill="#263238"/>
            <path id="Path_430" data-name="Path 430" d="M107.851,324.652,96.983,339.1,100,341.48s4.347-.911,5.89-6.661A68.8,68.8,0,0,0,107.851,324.652Z" transform="translate(-72.775 -216.474)" fill="#ffa8a7"/>
            <path id="Path_431" data-name="Path 431" d="M107.732,323.23s3.015,2.734,1.683,5.189-3.646,4.417-3.716,7.643-1.683,8.975-5.259,9.887-7.082-.336-7.012-1.605,2.455-5.687,2.455-5.687,3.284,2.034,5.709.07,2.986-10.237,2.986-10.237Z" transform="translate(-71.675 -216.034)" fill="#ba68c8"/>
            <path id="Path_432" data-name="Path 432" d="M107.732,323.23s3.015,2.734,1.683,5.189-3.646,4.417-3.716,7.643-1.683,8.975-5.259,9.887-7.082-.336-7.012-1.605,2.455-5.687,2.455-5.687,3.284,2.034,5.709.07,2.986-10.237,2.986-10.237Z" transform="translate(-71.675 -216.034)" opacity="0.2"/>
            <path id="Path_433" data-name="Path 433" d="M126.973,258.468s-24.209,10.244-26.171,11.249-5.4,2.778-5.049,10.656,2.321,27.442,2.321,27.442l13.277-25.523,34.278-16.314Z" transform="translate(-72.387 -195.99)" fill="#ba68c8"/>
            <path id="Path_434" data-name="Path 434" d="M126.973,258.468s-24.209,10.244-26.171,11.249-5.4,2.778-5.049,10.656,2.321,27.442,2.321,27.442l13.277-25.523,34.278-16.314Z" transform="translate(-72.387 -195.99)" opacity="0.5"/>
            <path id="Path_435" data-name="Path 435" d="M97.721,301.213c.513,5.581.969,10.119.969,10.119l13.277-25.523,24.438-11.631-5.554-4.344c-7.81,3.917-19.155,9.611-22.543,11.347-4.311,2.209-5.645,8.461-9.36,17.144C98.554,299.244,98.142,300.215,97.721,301.213Z" transform="translate(-73.004 -199.508)" fill="#ba68c8"/>
            <path id="Path_436" data-name="Path 436" d="M97.721,301.213c.513,5.581.969,10.119.969,10.119l13.277-25.523,24.438-11.631-5.554-4.344c-7.81,3.917-19.155,9.611-22.543,11.347-4.311,2.209-5.645,8.461-9.36,17.144C98.554,299.244,98.142,300.215,97.721,301.213Z" transform="translate(-73.004 -199.508)" opacity="0.7"/>
            <path id="Path_437" data-name="Path 437" d="M143.892,266.029l2.5,3.778-1.956.295Z" transform="translate(-87.293 -198.33)" fill="#ba68c8"/>
            <path id="Path_438" data-name="Path 438" d="M143.892,266.029l2.5,3.778-1.956.295Z" transform="translate(-87.293 -198.33)" opacity="0.7"/>
            <g id="Group_451" data-name="Group 451" transform="translate(0 66.117)">
              <path id="Path_439" data-name="Path 439" d="M86.277,353.807s.346.58.346,3.5-1.139,3.5-2.612,4.028a28.625,28.625,0,0,0-6.916,5c-1.183,1.367-5.916,2.788-10.6,1.946s-5.67-3.9-3.418-5.89,8.666-5.589,8.666-5.589Z" transform="translate(-61.925 -291.615)" fill="#ba68c8"/>
              <g id="Group_450" data-name="Group 450" transform="translate(6.054)">
                <path id="Path_440" data-name="Path 440" d="M150.645,266.147l-10.413-2.408s-28.924,14.5-33.237,16.712-5.646,8.461-9.361,17.144c-2.8,6.531-6.443,15.495-8.852,20.879a5.975,5.975,0,0,0,7.14,3.4v0c1.842-4.013,5.088-7.609,9.81-13.978a34.811,34.811,0,0,0,6.309-13.323,4.676,4.676,0,0,1,3.467-3.586c4.774-1.161,14.5-3.678,24.774-7.218C154.745,278.792,150.645,266.147,150.645,266.147Z" transform="translate(-76.292 -263.739)" fill="#ba68c8"/>
                <path id="Path_441" data-name="Path 441" d="M150.645,266.147l-10.413-2.408s-28.924,14.5-33.237,16.712-5.646,8.461-9.361,17.144c-2.8,6.531-6.443,15.495-8.852,20.879a5.975,5.975,0,0,0,7.14,3.4v0c1.842-4.013,5.088-7.609,9.81-13.978a34.811,34.811,0,0,0,6.309-13.323,4.676,4.676,0,0,1,3.467-3.586c4.774-1.161,14.5-3.678,24.774-7.218C154.745,278.792,150.645,266.147,150.645,266.147Z" transform="translate(-76.292 -263.739)" opacity="0.5"/>
                <path id="Path_442" data-name="Path 442" d="M83.184,343.009c-.793,1.774-1.453,3.161-1.9,3.943-1.813,3.155-7.113,6.574-8.966,8.187s-2.262,2.225-.479,3.592c4.506,3.457,8.419-.316,10.944-2.734a31.732,31.732,0,0,1,5.543-4.055,1.13,1.13,0,0,0,.537-.792,18.768,18.768,0,0,1,1.465-4.735v0A5.975,5.975,0,0,1,83.184,343.009Z" transform="translate(-70.693 -288.273)" fill="#ffa8a7"/>
              </g>
            </g>
            <path id="Path_443" data-name="Path 443" d="M140.646,273.6l-18.211,10.514L92.159,266.606l18.208-10.728Z" transform="translate(-71.282 -195.189)" fill="#37474f"/>
            <path id="Path_444" data-name="Path 444" d="M135.782,274.336l-6.833-3.944,4.282-2.472,6.832,3.944Z" transform="translate(-82.669 -198.916)" fill="#263238"/>
            <path id="Path_445" data-name="Path 445" d="M130.948,285.662l9.2-5.417-17.986-10.886Z" transform="translate(-80.569 -199.361)" fill="#263238"/>
            <g id="Group_452" data-name="Group 452" transform="translate(31.889 53.814)">
              <path id="Path_446" data-name="Path 446" d="M127.135,245.921l-7.285,3.417a64.7,64.7,0,0,0-6.433,1.988s-5.068,2.071-5.3,3.43,3.8,4.633,7.35,3.04a11.491,11.491,0,0,1,2.956-1.071,10.359,10.359,0,0,0,5.823-2.5l5.891-1.616S133.171,246.767,127.135,245.921Z" transform="translate(-108.107 -245.921)" fill="#ffa8a7"/>
              <path id="Path_447" data-name="Path 447" d="M126.77,259.486c-.844.9-3.25,3.183-3.775,3.841s-1.765-1.035.409-3.56a20.456,20.456,0,0,0,5.249-2.857A21.036,21.036,0,0,1,126.77,259.486Z" transform="translate(-112.458 -249.322)" fill="#ffa8a7"/>
            </g>
            <g id="Group_453" data-name="Group 453" transform="translate(48.083 28.399)">
              <path id="Path_448" data-name="Path 448" d="M149.3,209.2h0a7.16,7.16,0,0,0-7.915,4.8,31.3,31.3,0,0,0-1.479,7.157c-.631,7.5-.807,11.254-.807,11.254l-7.537,3.418s4.071.2,3.794,5.942l9.387-2.366Z" transform="translate(-131.56 -209.114)" fill="#ba68c8"/>
              <path id="Path_449" data-name="Path 449" d="M149.3,209.2h0a7.16,7.16,0,0,0-7.915,4.8,31.3,31.3,0,0,0-1.479,7.157c-.631,7.5-.807,11.254-.807,11.254l-7.537,3.418s4.035.2,3.794,5.942l9.387-2.366Z" transform="translate(-131.56 -209.114)" fill="#fff" opacity="0.3"/>
              <path id="Path_450" data-name="Path 450" d="M142.476,242.454a5.222,5.222,0,0,1,2.227,1.367,5.611,5.611,0,0,0-2.181-2.261Z" transform="translate(-134.938 -219.156)" fill="#ba68c8"/>
              <path id="Path_451" data-name="Path 451" d="M142.476,242.454a5.222,5.222,0,0,1,2.227,1.367,5.611,5.611,0,0,0-2.181-2.261Z" transform="translate(-134.938 -219.156)" fill="#fff" opacity="0.1"/>
            </g>
            <path id="Path_452" data-name="Path 452" d="M150.972,179.442s-4.656-1.375-2.974-6.634,13.544-7.5,22.479,0c0,0,6.27-.968,6.27,7.792s-3.506,12.749,1.893,15.03c0,0-3.3,3.118-5.96,0,0,0-.561,6.839-10.658,4.455Z" transform="translate(-88.451 -167.986)" fill="#263238"/>
            <path id="Path_453" data-name="Path 453" d="M164.106,212.222l5.289,2.252V229.98a34.419,34.419,0,0,0-2.644,12.516v7.678s-10.815,3.852-19.2-.316c-4.062-2.019-6.574-6.626-6.574-6.626s4.47-2.629,4.47-5.838a44.568,44.568,0,0,0-.894-7.468,8.969,8.969,0,0,1-2.577-7.52c.6-5.119,10.235-13.166,10.235-13.166l3.59.492Z" transform="translate(-86.391 -180.755)" fill="#ba68c8"/>
            <g id="Group_457" data-name="Group 457" transform="translate(60.741 3.942)">
              <g id="Group_455" data-name="Group 455" transform="translate(8.669 14.988)">
                <g id="Group_454" data-name="Group 454">
                  <path id="Path_454" data-name="Path 454" d="M170.751,207.938l-8.3-2.489V195.4h8.3Z" transform="translate(-162.447 -195.401)" fill="#ffa8a7"/>
                </g>
              </g>
              <path id="Path_455" data-name="Path 455" d="M162.447,205.45a13.363,13.363,0,0,0,7.628-7.254V195.4h-7.628Z" transform="translate(-153.778 -180.413)" fill="#f28f8f"/>
              <path id="Path_456" data-name="Path 456" d="M156.627,175.611s-7.593.445-6.655,13.428c.434,6,1.84,9.113,6.462,8.885,5.238-.258,12.673-3.858,12.186-14.13S156.627,175.611,156.627,175.611Z" transform="translate(-149.892 -174.234)" fill="#ffa8a7"/>
              <path id="Path_457" data-name="Path 457" d="M168.478,188.683s-2.082.548-2.082-2.433c0,0-9.251-.627-11.293-9.807,0,0,.911-2.748,6.688-2.748s10.631,5.107,9.123,12.127Z" transform="translate(-151.505 -173.695)" fill="#263238"/>
              <path id="Path_458" data-name="Path 458" d="M156.9,191.364v4.463l-2.614-.8Z" transform="translate(-151.251 -179.164)" fill="#f28f8f"/>
              <g id="Group_456" data-name="Group 456" transform="translate(1.53 8.672)">
                <circle id="Ellipse_58" data-name="Ellipse 58" cx="0.909" cy="0.909" r="0.909" transform="translate(6.23 3.094)" fill="#263238"/>
                <circle id="Ellipse_59" data-name="Ellipse 59" cx="0.909" cy="0.909" r="0.909" transform="translate(0.249 2.46)" fill="#263238"/>
                <path id="Path_459" data-name="Path 459" d="M152.158,187.729l1.778-1.056s-.683-.709-1.362-.283A1.24,1.24,0,0,0,152.158,187.729Z" transform="translate(-152.108 -186.254)" fill="#263238"/>
              </g>
              <path id="Path_460" data-name="Path 460" d="M158.4,199.618a4.639,4.639,0,0,0,2.927-.784s.2,1.542-1.092,1.837A1.672,1.672,0,0,1,158.4,199.618Z" transform="translate(-152.524 -181.475)" fill="#f28f8f"/>
              <path id="Path_461" data-name="Path 461" d="M173.405,194.194a5.055,5.055,0,0,1,.409-2.2,2.33,2.33,0,0,1,2.021-1.582c2.332-.064,2.647,2.181,2.615,2.98a4.783,4.783,0,0,1-4.945,4.454Z" transform="translate(-157.168 -178.868)" fill="#ffa8a7"/>
            </g>
            <path id="Path_462" data-name="Path 462" d="M161.061,209.954l-2.449,3.181a3.1,3.1,0,0,0,1.016,4.631h0a5.284,5.284,0,0,0,6.578-1.378l3.158-3.945Z" transform="translate(-91.65 -180.975)" fill="#ffa8a7"/>
            <g id="Group_459" data-name="Group 459" transform="translate(50.917 33.719)">
              <path id="Path_463" data-name="Path 463" d="M154.111,265.4l-6.942,3.778a21.089,21.089,0,0,0-3.191,0c-1.226.148-4.487.744-5.329.779s-.035,1.612,2.173,1.472c0,0-4.979,2.279-5.154,3.647s3.991,4.473,7.467,2.734a11.524,11.524,0,0,1,2.91-1.193,10.364,10.364,0,0,0,5.715-2.734l5.82-1.858S160.176,265.995,154.111,265.4Z" transform="translate(-135.663 -231.854)" fill="#ffa8a7"/>
              <g id="Group_458" data-name="Group 458" transform="translate(18.447)">
                <path id="Path_464" data-name="Path 464" d="M176.018,216.819s-4.214,2.908-3.51,11.864A105.46,105.46,0,0,1,172.516,245l-10.137,5.365a7.741,7.741,0,0,1,3.471,6.626s14.561-3,15.431-6.39,1.187-19.609,1.187-22.429S181.307,219.071,176.018,216.819Z" transform="translate(-162.379 -216.819)" fill="#ba68c8"/>
                <path id="Path_465" data-name="Path 465" d="M176.018,216.819s-4.214,2.908-3.51,11.864A105.46,105.46,0,0,1,172.516,245l-10.137,5.365a7.741,7.741,0,0,1,3.471,6.626s14.561-3,15.431-6.39,1.187-19.609,1.187-22.429S181.307,219.071,176.018,216.819Z" transform="translate(-162.379 -216.819)" fill="#fff" opacity="0.3"/>
                <path id="Path_466" data-name="Path 466" d="M177.06,257.267a8.191,8.191,0,0,1,3.256.6,6.969,6.969,0,0,0-3.191-1.405Z" transform="translate(-166.923 -229.087)" fill="#ba68c8"/>
                <path id="Path_467" data-name="Path 467" d="M177.06,257.267a8.191,8.191,0,0,1,3.256.6,6.969,6.969,0,0,0-3.191-1.405Z" transform="translate(-166.923 -229.087)" fill="#fff" opacity="0.1"/>
              </g>
            </g>
            <path id="Path_468" data-name="Path 468" d="M86.04,241.883,89.207,262.6a.05.05,0,0,0,.023.035l31.448,18.24a.049.049,0,0,0,.072-.049l-3.071-20.095a2.979,2.979,0,0,0-1.389-2.091L87.442,240.953A.928.928,0,0,0,86.04,241.883Z" transform="translate(-69.385 -190.526)" fill="#455a64"/>
            <path id="Path_469" data-name="Path 469" d="M136.145,293.484l16.8-9.73a2.555,2.555,0,0,0,1.274-2.21h0l-18.211,10.514Z" transform="translate(-84.853 -203.132)" fill="#263238"/>
            <path id="Path_470" data-name="Path 470" d="M110.324,269.339c0,1.48-1.04,2.08-2.321,1.34a5.13,5.13,0,0,1-2.32-4.02c0-1.48,1.039-2.08,2.32-1.34A5.132,5.132,0,0,1,110.324,269.339Z" transform="translate(-75.467 -198.012)" fill="#37474f"/>
            <path id="Path_471" data-name="Path 471" d="M157.248,239.45s6.348,1.725,9.713-3.044C166.961,236.406,164.784,242.563,157.248,239.45Z" transform="translate(-91.427 -189.162)" opacity="0.2"/>
          </g>
        </g>
        <g id="Files-2" data-name="Files" transform="translate(196.837 22.997)">
          <g id="Group_448-2" data-name="Group 448">
            <g id="Group_437-2" data-name="Group 437" transform="translate(38.418)">
              <g id="Group_434-2" data-name="Group 434">
                <path id="Path_390-2" data-name="Path 390" d="M370.149,60.259c0,12.717-8.928,17.871-19.941,11.513S330.266,49.95,330.266,37.233s8.928-17.871,19.942-11.513S370.149,47.543,370.149,60.259Z" transform="translate(-329.098 -22.997)" fill="#ba68c8"/>
                <path id="Path_391-2" data-name="Path 391" d="M370.149,60.259c0,12.717-8.928,17.871-19.941,11.513S330.266,49.95,330.266,37.233s8.928-17.871,19.942-11.513S370.149,47.543,370.149,60.259Z" transform="translate(-329.098 -22.997)" opacity="0.2"/>
                <path id="Path_392-2" data-name="Path 392" d="M368.457,61.236c0,12.717-8.927,17.871-19.941,11.513S328.575,50.927,328.575,38.21,337.5,20.339,348.516,26.7,368.457,48.519,368.457,61.236Z" transform="translate(-328.575 -23.299)" fill="#ba68c8"/>
              </g>
              <g id="Group_436-2" data-name="Group 436" transform="translate(10.653 10.626)">
                <path id="Path_393-2" data-name="Path 393" d="M345.345,60.931l15.389,8.885a1.23,1.23,0,0,0,1.846-1.065V49.761a2.684,2.684,0,0,0-1.341-2.324l-15.389-8.885A1.231,1.231,0,0,0,344,39.618V58.606A2.684,2.684,0,0,0,345.345,60.931Z" transform="translate(-344.003 -38.385)" fill="#ba68c8"/>
                <path id="Path_394-2" data-name="Path 394" d="M345.345,60.931l15.389,8.885a1.23,1.23,0,0,0,1.846-1.065V49.761a2.684,2.684,0,0,0-1.341-2.324l-15.389-8.885A1.231,1.231,0,0,0,344,39.618V58.606A2.684,2.684,0,0,0,345.345,60.931Z" transform="translate(-344.003 -38.385)" fill="#fff" opacity="0.6"/>
                <path id="Path_395-2" data-name="Path 395" d="M347.745,59.293l12.339,7.124a.988.988,0,0,0,1.481-.855V51.314a2.151,2.151,0,0,0-1.077-1.863l-12.339-7.124a.987.987,0,0,0-1.48.855V57.429A2.152,2.152,0,0,0,347.745,59.293Z" transform="translate(-344.828 -39.564)" fill="#ba68c8"/>
                <path id="Path_396-2" data-name="Path 396" d="M361.566,51.313V65.561a.985.985,0,0,1-1.482.853l-12.339-7.123a2.147,2.147,0,0,1-1.073-1.86V43.183a.983.983,0,0,1,1.476-.854l12.337,7.124A2.139,2.139,0,0,1,361.566,51.313Z" transform="translate(-344.829 -39.565)" fill="#fff" opacity="0.4"/>
                <g id="Group_435-2" data-name="Group 435" transform="translate(1.844 8.3)">
                  <path id="Path_397-2" data-name="Path 397" d="M361.566,70.013v.525a.985.985,0,0,1-1.482.853l-12.339-7.123a2.147,2.147,0,0,1-1.073-1.86V61.018l3.226-2.739,3.812,5.428,3.726-4.428Z" transform="translate(-346.673 -52.843)" fill="#fafafa"/>
                  <path id="Path_398-2" data-name="Path 398" d="M352.828,51.592a3.674,3.674,0,0,0,1.661,2.879c.918.53,1.662.1,1.662-.96a3.672,3.672,0,0,0-1.662-2.878C353.572,50.1,352.828,50.532,352.828,51.592Z" transform="translate(-348.578 -50.406)" fill="#fafafa"/>
                </g>
              </g>
            </g>
            <g id="Group_441-2" data-name="Group 441" transform="translate(72.978 70.898)">
              <g id="Group_438-2" data-name="Group 438">
                <path id="Path_399-2" data-name="Path 399" d="M420.2,162.935c0,12.717-8.928,17.871-19.941,11.513s-19.941-21.822-19.941-34.539,8.928-17.871,19.941-11.513S420.2,150.219,420.2,162.935Z" transform="translate(-379.148 -125.673)" fill="#ba68c8"/>
                <path id="Path_400-2" data-name="Path 400" d="M420.2,162.935c0,12.717-8.928,17.871-19.941,11.513s-19.941-21.822-19.941-34.539,8.928-17.871,19.941-11.513S420.2,150.219,420.2,162.935Z" transform="translate(-379.148 -125.673)" opacity="0.2"/>
                <path id="Path_401-2" data-name="Path 401" d="M418.507,163.912c0,12.717-8.928,17.872-19.941,11.513s-19.941-21.822-19.941-34.539,8.928-17.871,19.941-11.513S418.507,151.2,418.507,163.912Z" transform="translate(-378.625 -125.975)" fill="#ba68c8"/>
              </g>
              <g id="Group_440-2" data-name="Group 440" transform="translate(10.652 10.626)">
                <path id="Path_402-2" data-name="Path 402" d="M395.9,141.228a1.231,1.231,0,0,0-1.846,1.065v18.989a2.683,2.683,0,0,0,1.342,2.324l15.389,8.885a1.231,1.231,0,0,0,1.846-1.065V157.31l-4.176-8.834Z" transform="translate(-394.052 -141.061)" fill="#ba68c8"/>
                <path id="Path_403-2" data-name="Path 403" d="M395.9,141.228a1.231,1.231,0,0,0-1.846,1.065v18.989a2.683,2.683,0,0,0,1.342,2.324l15.389,8.885a1.231,1.231,0,0,0,1.846-1.065V157.31l-4.176-8.834Z" transform="translate(-394.052 -141.061)" fill="#fff" opacity="0.6"/>
                <path id="Path_404-2" data-name="Path 404" d="M414.111,155.028l.539-3.228,4.165,8.838-3.763-3.1A2.685,2.685,0,0,1,414.111,155.028Z" transform="translate(-400.249 -144.385)" fill="#ba68c8"/>
                <path id="Path_405-2" data-name="Path 405" d="M414.111,155.028l.539-3.228,4.165,8.838-3.763-3.1A2.685,2.685,0,0,1,414.111,155.028Z" transform="translate(-400.249 -144.385)" fill="#fff" opacity="0.4"/>
                <g id="Group_439-2" data-name="Group 439" transform="translate(2.791 10.201)">
                  <path id="Path_406-2" data-name="Path 406" d="M410.665,163.693a.416.416,0,0,1-.211-.057l-12.148-7.013a.422.422,0,1,1,.422-.732l12.148,7.013a.422.422,0,0,1-.211.789Z" transform="translate(-398.094 -155.835)" fill="#fafafa"/>
                  <path id="Path_407-2" data-name="Path 407" d="M410.665,169.655a.416.416,0,0,1-.211-.057l-12.148-7.013a.422.422,0,1,1,.422-.732l12.148,7.013a.422.422,0,0,1-.211.789Z" transform="translate(-398.094 -157.68)" fill="#fafafa"/>
                  <path id="Path_408-2" data-name="Path 408" d="M410.665,175.617a.416.416,0,0,1-.211-.057l-12.148-7.013a.422.422,0,1,1,.422-.732l12.148,7.013a.422.422,0,0,1-.211.789Z" transform="translate(-398.094 -159.525)" fill="#fafafa"/>
                </g>
              </g>
            </g>
            <g id="Group_444-2" data-name="Group 444" transform="translate(0 29.491)">
              <g id="Group_442-2" data-name="Group 442">
                <path id="Path_409-2" data-name="Path 409" d="M314.511,102.969c0,12.717-8.928,17.872-19.941,11.513S274.629,92.66,274.629,79.943s8.928-17.872,19.941-11.513S314.511,90.252,314.511,102.969Z" transform="translate(-273.461 -65.706)" fill="#ba68c8"/>
                <path id="Path_410-2" data-name="Path 410" d="M314.511,102.969c0,12.717-8.928,17.872-19.941,11.513S274.629,92.66,274.629,79.943s8.928-17.872,19.941-11.513S314.511,90.252,314.511,102.969Z" transform="translate(-273.461 -65.706)" opacity="0.2"/>
                <path id="Path_411-2" data-name="Path 411" d="M312.819,103.946c0,12.717-8.928,17.871-19.941,11.513S272.937,93.637,272.937,80.92s8.928-17.872,19.941-11.513S312.819,91.229,312.819,103.946Z" transform="translate(-272.937 -66.009)" fill="#ba68c8"/>
              </g>
              <g id="Group_443-2" data-name="Group 443" transform="translate(10.654 10.627)">
                <path id="Path_412-2" data-name="Path 412" d="M289.707,103.641l15.389,8.885a1.231,1.231,0,0,0,1.846-1.065V92.472a2.684,2.684,0,0,0-1.342-2.324l-15.389-8.885a1.231,1.231,0,0,0-1.846,1.065v18.989A2.681,2.681,0,0,0,289.707,103.641Z" transform="translate(-288.366 -81.097)" fill="#ba68c8"/>
                <path id="Path_413-2" data-name="Path 413" d="M289.707,103.641l15.389,8.885a1.231,1.231,0,0,0,1.846-1.065V92.472a2.684,2.684,0,0,0-1.342-2.324l-15.389-8.885a1.231,1.231,0,0,0-1.846,1.065v18.989A2.681,2.681,0,0,0,289.707,103.641Z" transform="translate(-288.366 -81.097)" fill="#fff" opacity="0.6"/>
                <path id="Path_414-2" data-name="Path 414" d="M296.381,98.88v6.444a.957.957,0,0,0,.958.958h5.59a.958.958,0,0,0,.724-1.585l-5.59-6.444A.957.957,0,0,0,296.381,98.88Z" transform="translate(-290.847 -86.304)" fill="#fafafa"/>
              </g>
            </g>
            <g id="Group_445-2" data-name="Group 445" transform="translate(59.039 51.246)">
              <path id="Path_415-2" data-name="Path 415" d="M358.927,99.495a.488.488,0,0,1-.489-.489V97.7a.489.489,0,1,1,.978,0v1.3A.489.489,0,0,1,358.927,99.495Z" transform="translate(-358.438 -97.212)" fill="#ba68c8"/>
              <path id="Path_416-2" data-name="Path 416" d="M358.927,174.29a.488.488,0,0,1-.489-.489v-2.609a.489.489,0,0,1,.978,0V173.8A.488.488,0,0,1,358.927,174.29Zm0-5.217a.488.488,0,0,1-.489-.489v-2.609a.489.489,0,1,1,.978,0v2.609A.489.489,0,0,1,358.927,169.074Zm0-5.217a.488.488,0,0,1-.489-.489v-2.609a.489.489,0,1,1,.978,0v2.609A.488.488,0,0,1,358.927,163.856Zm0-5.217a.488.488,0,0,1-.489-.489v-2.609a.489.489,0,0,1,.978,0v2.609A.488.488,0,0,1,358.927,158.639Zm0-5.217a.488.488,0,0,1-.489-.489v-2.609a.489.489,0,1,1,.978,0v2.609A.488.488,0,0,1,358.927,153.421Zm0-5.217a.488.488,0,0,1-.489-.489v-2.609a.489.489,0,1,1,.978,0v2.609A.489.489,0,0,1,358.927,148.2Zm0-5.217a.488.488,0,0,1-.489-.489V139.89a.489.489,0,0,1,.978,0V142.5A.489.489,0,0,1,358.927,142.987Zm0-5.217a.488.488,0,0,1-.489-.489v-2.609a.489.489,0,1,1,.978,0v2.609A.488.488,0,0,1,358.927,137.77Zm0-5.217a.488.488,0,0,1-.489-.489v-2.609a.489.489,0,1,1,.978,0v2.609A.489.489,0,0,1,358.927,132.553Zm0-5.217a.488.488,0,0,1-.489-.489v-2.609a.489.489,0,1,1,.978,0v2.609A.489.489,0,0,1,358.927,127.335Zm0-5.217a.488.488,0,0,1-.489-.489V119.02a.489.489,0,0,1,.978,0v2.609A.488.488,0,0,1,358.927,122.118Zm0-5.217a.488.488,0,0,1-.489-.489V113.8a.489.489,0,1,1,.978,0v2.609A.488.488,0,0,1,358.927,116.9Zm0-5.217a.488.488,0,0,1-.489-.489v-2.609a.489.489,0,1,1,.978,0v2.609A.488.488,0,0,1,358.927,111.683Zm0-5.217a.488.488,0,0,1-.489-.489v-2.609a.489.489,0,1,1,.978,0v2.609A.489.489,0,0,1,358.927,106.466Z" transform="translate(-358.438 -98.966)" fill="#ba68c8"/>
              <path id="Path_417-2" data-name="Path 417" d="M358.927,210.942a.488.488,0,0,1-.489-.489v-1.3a.489.489,0,0,1,.978,0v1.3A.489.489,0,0,1,358.927,210.942Z" transform="translate(-358.438 -131.705)" fill="#ba68c8"/>
            </g>
            <g id="Group_446-2" data-name="Group 446" transform="translate(61.584 96.833)">
              <path id="Path_418-2" data-name="Path 418" d="M376.783,164.792a.489.489,0,0,1-.219-.927l1.167-.581a.489.489,0,0,1,.436.876L377,164.74A.481.481,0,0,1,376.783,164.792Z" transform="translate(-366.51 -163.232)" fill="#ba68c8"/>
              <path id="Path_419-2" data-name="Path 419" d="M368.464,168.552a.489.489,0,0,1-.219-.927l2.872-1.429a.489.489,0,0,1,.436.876l-2.872,1.429A.492.492,0,0,1,368.464,168.552Z" transform="translate(-363.935 -164.133)" fill="#ba68c8"/>
              <path id="Path_420-2" data-name="Path 420" d="M362.614,171.843a.489.489,0,0,1-.219-.927l1.167-.581a.489.489,0,0,1,.436.876l-1.167.581A.481.481,0,0,1,362.614,171.843Z" transform="translate(-362.124 -165.414)" fill="#ba68c8"/>
            </g>
            <g id="Group_447-2" data-name="Group 447" transform="translate(42.829 65.785)">
              <path id="Path_421-2" data-name="Path 421" d="M336.129,120.363a.487.487,0,0,1-.418-.236l-.676-1.116a.489.489,0,1,1,.836-.507l.676,1.116a.489.489,0,0,1-.418.743Z" transform="translate(-334.963 -118.268)" fill="#ba68c8"/>
              <path id="Path_422-2" data-name="Path 422" d="M347.745,139.536a.488.488,0,0,1-.418-.235l-1.339-2.21a.489.489,0,1,1,.836-.507l1.339,2.21a.488.488,0,0,1-.418.742Zm-2.678-4.421a.488.488,0,0,1-.418-.235l-1.339-2.21a.489.489,0,1,1,.836-.507l1.339,2.21a.488.488,0,0,1-.418.742Zm-2.678-4.421a.488.488,0,0,1-.418-.235l-1.339-2.21a.489.489,0,1,1,.836-.507l1.339,2.21a.488.488,0,0,1-.418.742Zm-2.678-4.42a.488.488,0,0,1-.418-.235l-1.339-2.21a.489.489,0,1,1,.836-.507l1.339,2.21a.489.489,0,0,1-.164.672A.5.5,0,0,1,339.711,126.275Z" transform="translate(-335.867 -119.759)" fill="#ba68c8"/>
              <path id="Path_423-2" data-name="Path 423" d="M354.562,150.788a.488.488,0,0,1-.418-.235l-.676-1.116a.489.489,0,1,1,.836-.507l.676,1.116a.489.489,0,0,1-.164.672A.494.494,0,0,1,354.562,150.788Z" transform="translate(-340.668 -127.685)" fill="#ba68c8"/>
            </g>
          </g>
        </g>
      </g>
    </g>
    <g id="Files-3" data-name="Files" transform="translate(1202.78 1877.655)">
      <g id="Group_448-3" data-name="Group 448">
        <g id="Group_437-3" data-name="Group 437" transform="translate(38.418)">
          <g id="Group_434-3" data-name="Group 434">
            <path id="Path_390-3" data-name="Path 390" d="M370.149,60.259c0,12.717-8.928,17.871-19.941,11.513S330.266,49.95,330.266,37.233s8.928-17.871,19.942-11.513S370.149,47.543,370.149,60.259Z" transform="translate(-329.098 -22.997)" fill="#ba68c8"/>
            <path id="Path_391-3" data-name="Path 391" d="M370.149,60.259c0,12.717-8.928,17.871-19.941,11.513S330.266,49.95,330.266,37.233s8.928-17.871,19.942-11.513S370.149,47.543,370.149,60.259Z" transform="translate(-329.098 -22.997)" opacity="0.2"/>
            <path id="Path_392-3" data-name="Path 392" d="M368.457,61.236c0,12.717-8.927,17.871-19.941,11.513S328.575,50.927,328.575,38.21,337.5,20.339,348.516,26.7,368.457,48.519,368.457,61.236Z" transform="translate(-328.575 -23.299)" fill="#ba68c8"/>
          </g>
          <g id="Group_436-3" data-name="Group 436" transform="translate(10.653 10.626)">
            <path id="Path_393-3" data-name="Path 393" d="M345.345,60.931l15.389,8.885a1.23,1.23,0,0,0,1.846-1.065V49.761a2.684,2.684,0,0,0-1.341-2.324l-15.389-8.885A1.231,1.231,0,0,0,344,39.618V58.606A2.684,2.684,0,0,0,345.345,60.931Z" transform="translate(-344.003 -38.385)" fill="#ba68c8"/>
            <path id="Path_394-3" data-name="Path 394" d="M345.345,60.931l15.389,8.885a1.23,1.23,0,0,0,1.846-1.065V49.761a2.684,2.684,0,0,0-1.341-2.324l-15.389-8.885A1.231,1.231,0,0,0,344,39.618V58.606A2.684,2.684,0,0,0,345.345,60.931Z" transform="translate(-344.003 -38.385)" fill="#fff" opacity="0.6"/>
            <path id="Path_395-3" data-name="Path 395" d="M347.745,59.293l12.339,7.124a.988.988,0,0,0,1.481-.855V51.314a2.151,2.151,0,0,0-1.077-1.863l-12.339-7.124a.987.987,0,0,0-1.48.855V57.429A2.152,2.152,0,0,0,347.745,59.293Z" transform="translate(-344.828 -39.564)" fill="#ba68c8"/>
            <path id="Path_396-3" data-name="Path 396" d="M361.566,51.313V65.561a.985.985,0,0,1-1.482.853l-12.339-7.123a2.147,2.147,0,0,1-1.073-1.86V43.183a.983.983,0,0,1,1.476-.854l12.337,7.124A2.139,2.139,0,0,1,361.566,51.313Z" transform="translate(-344.829 -39.565)" fill="#fff" opacity="0.4"/>
            <g id="Group_435-3" data-name="Group 435" transform="translate(1.844 8.3)">
              <path id="Path_397-3" data-name="Path 397" d="M361.566,70.013v.525a.985.985,0,0,1-1.482.853l-12.339-7.123a2.147,2.147,0,0,1-1.073-1.86V61.018l3.226-2.739,3.812,5.428,3.726-4.428Z" transform="translate(-346.673 -52.843)" fill="#fafafa"/>
              <path id="Path_398-3" data-name="Path 398" d="M352.828,51.592a3.674,3.674,0,0,0,1.661,2.879c.918.53,1.662.1,1.662-.96a3.672,3.672,0,0,0-1.662-2.878C353.572,50.1,352.828,50.532,352.828,51.592Z" transform="translate(-348.578 -50.406)" fill="#fafafa"/>
            </g>
          </g>
        </g>
        <g id="Group_441-3" data-name="Group 441" transform="translate(72.978 70.898)">
          <g id="Group_438-3" data-name="Group 438">
            <path id="Path_399-3" data-name="Path 399" d="M420.2,162.935c0,12.717-8.928,17.871-19.941,11.513s-19.941-21.822-19.941-34.539,8.928-17.871,19.941-11.513S420.2,150.219,420.2,162.935Z" transform="translate(-379.148 -125.673)" fill="#ba68c8"/>
            <path id="Path_400-3" data-name="Path 400" d="M420.2,162.935c0,12.717-8.928,17.871-19.941,11.513s-19.941-21.822-19.941-34.539,8.928-17.871,19.941-11.513S420.2,150.219,420.2,162.935Z" transform="translate(-379.148 -125.673)" opacity="0.2"/>
            <path id="Path_401-3" data-name="Path 401" d="M418.507,163.912c0,12.717-8.928,17.872-19.941,11.513s-19.941-21.822-19.941-34.539,8.928-17.871,19.941-11.513S418.507,151.2,418.507,163.912Z" transform="translate(-378.625 -125.975)" fill="#ba68c8"/>
          </g>
          <g id="Group_440-3" data-name="Group 440" transform="translate(10.652 10.626)">
            <path id="Path_402-3" data-name="Path 402" d="M395.9,141.228a1.231,1.231,0,0,0-1.846,1.065v18.989a2.683,2.683,0,0,0,1.342,2.324l15.389,8.885a1.231,1.231,0,0,0,1.846-1.065V157.31l-4.176-8.834Z" transform="translate(-394.052 -141.061)" fill="#ba68c8"/>
            <path id="Path_403-3" data-name="Path 403" d="M395.9,141.228a1.231,1.231,0,0,0-1.846,1.065v18.989a2.683,2.683,0,0,0,1.342,2.324l15.389,8.885a1.231,1.231,0,0,0,1.846-1.065V157.31l-4.176-8.834Z" transform="translate(-394.052 -141.061)" fill="#fff" opacity="0.6"/>
            <path id="Path_404-3" data-name="Path 404" d="M414.111,155.028l.539-3.228,4.165,8.838-3.763-3.1A2.685,2.685,0,0,1,414.111,155.028Z" transform="translate(-400.249 -144.385)" fill="#ba68c8"/>
            <path id="Path_405-3" data-name="Path 405" d="M414.111,155.028l.539-3.228,4.165,8.838-3.763-3.1A2.685,2.685,0,0,1,414.111,155.028Z" transform="translate(-400.249 -144.385)" fill="#fff" opacity="0.4"/>
            <g id="Group_439-3" data-name="Group 439" transform="translate(2.791 10.201)">
              <path id="Path_406-3" data-name="Path 406" d="M410.665,163.693a.416.416,0,0,1-.211-.057l-12.148-7.013a.422.422,0,1,1,.422-.732l12.148,7.013a.422.422,0,0,1-.211.789Z" transform="translate(-398.094 -155.835)" fill="#fafafa"/>
              <path id="Path_407-3" data-name="Path 407" d="M410.665,169.655a.416.416,0,0,1-.211-.057l-12.148-7.013a.422.422,0,1,1,.422-.732l12.148,7.013a.422.422,0,0,1-.211.789Z" transform="translate(-398.094 -157.68)" fill="#fafafa"/>
              <path id="Path_408-3" data-name="Path 408" d="M410.665,175.617a.416.416,0,0,1-.211-.057l-12.148-7.013a.422.422,0,1,1,.422-.732l12.148,7.013a.422.422,0,0,1-.211.789Z" transform="translate(-398.094 -159.525)" fill="#fafafa"/>
            </g>
          </g>
        </g>
        <g id="Group_444-3" data-name="Group 444" transform="translate(0 29.491)">
          <g id="Group_442-3" data-name="Group 442">
            <path id="Path_409-3" data-name="Path 409" d="M314.511,102.969c0,12.717-8.928,17.872-19.941,11.513S274.629,92.66,274.629,79.943s8.928-17.872,19.941-11.513S314.511,90.252,314.511,102.969Z" transform="translate(-273.461 -65.706)" fill="#ba68c8"/>
            <path id="Path_410-3" data-name="Path 410" d="M314.511,102.969c0,12.717-8.928,17.872-19.941,11.513S274.629,92.66,274.629,79.943s8.928-17.872,19.941-11.513S314.511,90.252,314.511,102.969Z" transform="translate(-273.461 -65.706)" opacity="0.2"/>
            <path id="Path_411-3" data-name="Path 411" d="M312.819,103.946c0,12.717-8.928,17.871-19.941,11.513S272.937,93.637,272.937,80.92s8.928-17.872,19.941-11.513S312.819,91.229,312.819,103.946Z" transform="translate(-272.937 -66.009)" fill="#ba68c8"/>
          </g>
          <g id="Group_443-3" data-name="Group 443" transform="translate(10.654 10.627)">
            <path id="Path_412-3" data-name="Path 412" d="M289.707,103.641l15.389,8.885a1.231,1.231,0,0,0,1.846-1.065V92.472a2.684,2.684,0,0,0-1.342-2.324l-15.389-8.885a1.231,1.231,0,0,0-1.846,1.065v18.989A2.681,2.681,0,0,0,289.707,103.641Z" transform="translate(-288.366 -81.097)" fill="#ba68c8"/>
            <path id="Path_413-3" data-name="Path 413" d="M289.707,103.641l15.389,8.885a1.231,1.231,0,0,0,1.846-1.065V92.472a2.684,2.684,0,0,0-1.342-2.324l-15.389-8.885a1.231,1.231,0,0,0-1.846,1.065v18.989A2.681,2.681,0,0,0,289.707,103.641Z" transform="translate(-288.366 -81.097)" fill="#fff" opacity="0.6"/>
            <path id="Path_414-3" data-name="Path 414" d="M296.381,98.88v6.444a.957.957,0,0,0,.958.958h5.59a.958.958,0,0,0,.724-1.585l-5.59-6.444A.957.957,0,0,0,296.381,98.88Z" transform="translate(-290.847 -86.304)" fill="#fafafa"/>
          </g>
        </g>
        <g id="Group_445-3" data-name="Group 445" transform="translate(59.039 51.246)">
          <path id="Path_415-3" data-name="Path 415" d="M358.927,99.495a.488.488,0,0,1-.489-.489V97.7a.489.489,0,1,1,.978,0v1.3A.489.489,0,0,1,358.927,99.495Z" transform="translate(-358.438 -97.212)" fill="#ba68c8"/>
          <path id="Path_416-3" data-name="Path 416" d="M358.927,174.29a.488.488,0,0,1-.489-.489v-2.609a.489.489,0,0,1,.978,0V173.8A.488.488,0,0,1,358.927,174.29Zm0-5.217a.488.488,0,0,1-.489-.489v-2.609a.489.489,0,1,1,.978,0v2.609A.489.489,0,0,1,358.927,169.074Zm0-5.217a.488.488,0,0,1-.489-.489v-2.609a.489.489,0,1,1,.978,0v2.609A.488.488,0,0,1,358.927,163.856Zm0-5.217a.488.488,0,0,1-.489-.489v-2.609a.489.489,0,0,1,.978,0v2.609A.488.488,0,0,1,358.927,158.639Zm0-5.217a.488.488,0,0,1-.489-.489v-2.609a.489.489,0,1,1,.978,0v2.609A.488.488,0,0,1,358.927,153.421Zm0-5.217a.488.488,0,0,1-.489-.489v-2.609a.489.489,0,1,1,.978,0v2.609A.489.489,0,0,1,358.927,148.2Zm0-5.217a.488.488,0,0,1-.489-.489V139.89a.489.489,0,0,1,.978,0V142.5A.489.489,0,0,1,358.927,142.987Zm0-5.217a.488.488,0,0,1-.489-.489v-2.609a.489.489,0,1,1,.978,0v2.609A.488.488,0,0,1,358.927,137.77Zm0-5.217a.488.488,0,0,1-.489-.489v-2.609a.489.489,0,1,1,.978,0v2.609A.489.489,0,0,1,358.927,132.553Zm0-5.217a.488.488,0,0,1-.489-.489v-2.609a.489.489,0,1,1,.978,0v2.609A.489.489,0,0,1,358.927,127.335Zm0-5.217a.488.488,0,0,1-.489-.489V119.02a.489.489,0,0,1,.978,0v2.609A.488.488,0,0,1,358.927,122.118Zm0-5.217a.488.488,0,0,1-.489-.489V113.8a.489.489,0,1,1,.978,0v2.609A.488.488,0,0,1,358.927,116.9Zm0-5.217a.488.488,0,0,1-.489-.489v-2.609a.489.489,0,1,1,.978,0v2.609A.488.488,0,0,1,358.927,111.683Zm0-5.217a.488.488,0,0,1-.489-.489v-2.609a.489.489,0,1,1,.978,0v2.609A.489.489,0,0,1,358.927,106.466Z" transform="translate(-358.438 -98.966)" fill="#ba68c8"/>
          <path id="Path_417-3" data-name="Path 417" d="M358.927,210.942a.488.488,0,0,1-.489-.489v-1.3a.489.489,0,0,1,.978,0v1.3A.489.489,0,0,1,358.927,210.942Z" transform="translate(-358.438 -131.705)" fill="#ba68c8"/>
        </g>
        <g id="Group_446-3" data-name="Group 446" transform="translate(61.584 96.833)">
          <path id="Path_418-3" data-name="Path 418" d="M376.783,164.792a.489.489,0,0,1-.219-.927l1.167-.581a.489.489,0,0,1,.436.876L377,164.74A.481.481,0,0,1,376.783,164.792Z" transform="translate(-366.51 -163.232)" fill="#ba68c8"/>
          <path id="Path_419-3" data-name="Path 419" d="M368.464,168.552a.489.489,0,0,1-.219-.927l2.872-1.429a.489.489,0,0,1,.436.876l-2.872,1.429A.492.492,0,0,1,368.464,168.552Z" transform="translate(-363.935 -164.133)" fill="#ba68c8"/>
          <path id="Path_420-3" data-name="Path 420" d="M362.614,171.843a.489.489,0,0,1-.219-.927l1.167-.581a.489.489,0,0,1,.436.876l-1.167.581A.481.481,0,0,1,362.614,171.843Z" transform="translate(-362.124 -165.414)" fill="#ba68c8"/>
        </g>
        <g id="Group_447-3" data-name="Group 447" transform="translate(42.829 65.785)">
          <path id="Path_421-3" data-name="Path 421" d="M336.129,120.363a.487.487,0,0,1-.418-.236l-.676-1.116a.489.489,0,1,1,.836-.507l.676,1.116a.489.489,0,0,1-.418.743Z" transform="translate(-334.963 -118.268)" fill="#ba68c8"/>
          <path id="Path_422-3" data-name="Path 422" d="M347.745,139.536a.488.488,0,0,1-.418-.235l-1.339-2.21a.489.489,0,1,1,.836-.507l1.339,2.21a.488.488,0,0,1-.418.742Zm-2.678-4.421a.488.488,0,0,1-.418-.235l-1.339-2.21a.489.489,0,1,1,.836-.507l1.339,2.21a.488.488,0,0,1-.418.742Zm-2.678-4.421a.488.488,0,0,1-.418-.235l-1.339-2.21a.489.489,0,1,1,.836-.507l1.339,2.21a.488.488,0,0,1-.418.742Zm-2.678-4.42a.488.488,0,0,1-.418-.235l-1.339-2.21a.489.489,0,1,1,.836-.507l1.339,2.21a.489.489,0,0,1-.164.672A.5.5,0,0,1,339.711,126.275Z" transform="translate(-335.867 -119.759)" fill="#ba68c8"/>
          <path id="Path_423-3" data-name="Path 423" d="M354.562,150.788a.488.488,0,0,1-.418-.235l-.676-1.116a.489.489,0,1,1,.836-.507l.676,1.116a.489.489,0,0,1-.164.672A.494.494,0,0,1,354.562,150.788Z" transform="translate(-340.668 -127.685)" fill="#ba68c8"/>
        </g>
      </g>
    </g>
  </g>
</svg>
