<svg xmlns="http://www.w3.org/2000/svg" xmlns:xlink="http://www.w3.org/1999/xlink" width="283.847" height="252" viewBox="0 0 283.847 252">
  <defs>
    <clipPath id="clip-path">
      <circle id="Ellipse_61" data-name="Ellipse 61" cx="126" cy="126" r="126" transform="translate(511 2071)" fill="#fff"/>
    </clipPath>
  </defs>
  <g id="Group_484" data-name="Group 484" transform="translate(-532.153 -1890)">
    <g id="Mask_Group_8" data-name="Mask Group 8" transform="translate(53 -181)" clip-path="url(#clip-path)">
      <g id="_4322818-01" data-name="4322818-01" transform="translate(441.462 2064.687)">
        <g id="Background_Complete" transform="translate(45.681 37.864)">
          <path id="Path_213" data-name="Path 213" d="M289.677,394.974v22.007h-7.56l16.295,18.983L313.7,417.371h-7.728v-22.4Z" transform="translate(-129.909 -158.148)" fill="#ebebeb"/>
          <path id="Path_214" data-name="Path 214" d="M335.641,145v7.748H332.98l5.736,6.683,5.382-6.546h-2.72V145Z" transform="translate(-147.041 -73.949)" fill="#ebebeb"/>
          <path id="Path_216" data-name="Path 216" d="M58.067,350.3v15.907H52.6l11.778,13.72,11.05-13.439H69.846V350.3Z" transform="translate(-52.603 -143.101)" fill="#ebebeb"/>
          <path id="Path_217" data-name="Path 217" d="M206.27,389.51v11.872h-4.078l8.79,10.24,8.247-10.031h-4.169V389.51Z" transform="translate(-102.988 -156.308)" fill="#ebebeb"/>
          <g id="Group_125" data-name="Group 125" transform="translate(212.573 99.236)">
            <g id="Group_124" data-name="Group 124">
              <g id="Group_123" data-name="Group 123">
                <path id="Path_219" data-name="Path 219" d="M436.393,202.633c.483-3.513-4.474-6.4-8.2-6.7-1.777-.143-3.622.129-5.305-.458-3.647-1.271-5.1-5.982-8.662-7.483-2.661-1.122-5.723-.123-8.3,1.174s-5.127,2.931-8.008,3.116c-2.506.16-5.228-.769-7.42.456-1.634.912-2.49,2.795-4,3.906a9.529,9.529,0,0,1-5.223,1.416,14.716,14.716,0,0,0-5.385.88c-1.665.762-3.042,2.522-2.7,4.321Z" transform="translate(-373.142 -187.502)" fill="#e3dfdf"/>
              </g>
            </g>
          </g>
          <g id="Group_128" data-name="Group 128" transform="translate(82.549)">
            <g id="Group_127" data-name="Group 127">
              <g id="Group_126" data-name="Group 126">
                <path id="Path_220" data-name="Path 220" d="M208.009,45.264c.236-1.718-2.188-3.132-4.01-3.278a10.315,10.315,0,0,1-2.594-.224c-1.783-.622-2.5-2.926-4.236-3.659a4.98,4.98,0,0,0-4.06.574,10.6,10.6,0,0,1-3.916,1.524c-1.226.078-2.557-.376-3.629.222-.8.446-1.218,1.367-1.954,1.91a4.655,4.655,0,0,1-2.555.692,7.2,7.2,0,0,0-2.633.43,2.082,2.082,0,0,0-1.318,2.113Z" transform="translate(-177.078 -37.864)" fill="#e0e0e0"/>
              </g>
            </g>
          </g>
          <g id="Group_131" data-name="Group 131" transform="translate(215.764 248.231)">
            <g id="Group_130" data-name="Group 130">
              <g id="Group_129" data-name="Group 129">
                <path id="Path_221" data-name="Path 221" d="M434.825,425.777c.434-3.159-4.023-5.757-7.372-6.027-1.6-.129-3.257.115-4.77-.412-3.279-1.143-4.589-5.378-7.788-6.729-2.391-1.009-5.146-.111-7.464,1.056s-4.61,2.636-7.2,2.8c-2.253.144-4.7-.692-6.672.409-1.47.82-2.239,2.513-3.593,3.512a8.568,8.568,0,0,1-4.7,1.273,13.249,13.249,0,0,0-4.842.791c-1.5.686-2.735,2.268-2.424,3.884Z" transform="translate(-377.954 -412.173)" fill="#e0e0e0"/>
              </g>
            </g>
          </g>
        </g>
        <g id="Speech_Bubble" transform="translate(101.857 61.844)">
          <g id="Group_138" data-name="Group 138">
            <g id="Group_134" data-name="Group 134">
              <g id="Group_133" data-name="Group 133">
                <path id="Path_222" data-name="Path 222" d="M187.305,119.99l-5.115-9.015a24.154,24.154,0,1,0-5.785,6.435l-.009.011Z" transform="translate(-137.386 -74.094)" fill="#fafafa"/>
                <g id="Group_132" data-name="Group 132">
                  <path id="Path_223" data-name="Path 223" d="M187.229,119.919,176.3,117.434l-.129-.029.081-.107.008-.011.121.121a24.1,24.1,0,0,1-11.579,4.886,21.719,21.719,0,0,1-3.822.194c-.657-.037-1.326-.053-2-.109l-2.04-.308a24.356,24.356,0,0,1-15.088-9.682,24.069,24.069,0,0,1-4.081-9.327,24.613,24.613,0,0,1,.285-10.741,23.82,23.82,0,0,1,5.175-9.93,24.247,24.247,0,0,1,9.3-6.642,24.638,24.638,0,0,1,10.823-1.663,23.819,23.819,0,0,1,9.933,2.937,24.49,24.49,0,0,1,11.456,14.1,26.087,26.087,0,0,1,1.047,7.851,24.021,24.021,0,0,1-3.607,11.969v-.084l5.043,9.056-5.187-8.974-.025-.042.026-.042a23.976,23.976,0,0,0,3.51-11.889,25.9,25.9,0,0,0-1.066-7.765,24.246,24.246,0,0,0-11.352-13.9,23.524,23.524,0,0,0-9.8-2.883,24.341,24.341,0,0,0-10.671,1.648,23.937,23.937,0,0,0-9.17,6.551,23.508,23.508,0,0,0-5.1,9.788A24.311,24.311,0,0,0,138.1,103a23.773,23.773,0,0,0,4.013,9.207,24.107,24.107,0,0,0,14.881,9.6l2.016.311c.667.058,1.33.076,1.98.115a21.506,21.506,0,0,0,3.783-.177,24.035,24.035,0,0,0,11.506-4.781l.529-.409-.408.529-.008.011-.048-.136Z" transform="translate(-137.31 -74.023)" fill="#263238"/>
                </g>
              </g>
            </g>
            <g id="Group_137" data-name="Group 137" transform="translate(14.323 9.14)">
              <path id="Path_224" data-name="Path 224" d="M175.9,117.507H160.272a1.364,1.364,0,0,1-1.364-1.364v-23.1a1.364,1.364,0,0,1,1.364-1.364H175.9a1.364,1.364,0,0,1,1.364,1.364v23.1A1.364,1.364,0,0,1,175.9,117.507Z" transform="translate(-158.908 -89.112)" fill="#263238"/>
              <rect id="Rectangle_81" data-name="Rectangle 81" width="16.567" height="19.3" transform="translate(0.854 4.123)" fill="#fafafa"/>
              <circle id="Ellipse_35" data-name="Ellipse 35" cx="1.391" cy="1.391" r="1.391" transform="translate(7.787 24.5)" fill="#455a64"/>
              <path id="Path_225" data-name="Path 225" d="M176.25,97.809l6.111,7.214,5.728-7.214h-2.97v-9.93l-5.941-.073.07,10.018Z" transform="translate(-164.749 -87.806)" fill="#ff725e"/>
              <g id="Group_135" data-name="Group 135" transform="translate(6.297 12.598)">
                <ellipse id="Ellipse_36" data-name="Ellipse 36" cx="3.949" cy="0.173" rx="3.949" ry="0.173" transform="translate(0 5.714) rotate(-46.345)" fill="#263238"/>
              </g>
              <g id="Group_136" data-name="Group 136" transform="translate(7.557 11.842)">
                <path id="Path_226" data-name="Path 226" d="M173.422,105.669a7.308,7.308,0,0,1-1.444,1.658,6.993,6.993,0,0,1-1.671,1.4,7.094,7.094,0,0,1,1.444-1.658A6.9,6.9,0,0,1,173.422,105.669Z" transform="translate(-170.303 -105.663)" fill="#263238"/>
              </g>
            </g>
          </g>
        </g>
        <g id="Cloud_3" transform="translate(245.011 38.768)">
          <g id="Group_147" data-name="Group 147">
            <g id="Group_144" data-name="Group 144">
              <g id="Group_139" data-name="Group 139" transform="translate(28.789 41.768)">
                <path id="Path_227" data-name="Path 227" d="M400.437,102.209v11.216h-3.853l8.3,9.674,7.79-9.476h-3.937V102.209Z" transform="translate(-396.584 -102.209)" fill="#ff725e"/>
                <path id="Path_228" data-name="Path 228" d="M400.437,102.209v11.216h-3.853l8.3,9.674,7.79-9.476h-3.937V102.209Z" transform="translate(-396.584 -102.209)" opacity="0.3"/>
              </g>
              <path id="Path_229" data-name="Path 229" d="M412.9,55.974a22.3,22.3,0,0,0-39.027-8.364,18.547,18.547,0,1,0-2.148,36.968h40.393a14.312,14.312,0,0,0,.783-28.6Z" transform="translate(-353.173 -39.227)" fill="#ff725e"/>
              <g id="Group_140" data-name="Group 140" transform="translate(63.994 25.647)">
                <path id="Path_230" data-name="Path 230" d="M449.671,92.6c-.036-.052.767-.554,1.832-1.619a13.25,13.25,0,0,0,3.856-10.668c-.137-1.5-.433-2.4-.372-2.416a2.2,2.2,0,0,1,.241.619,10.815,10.815,0,0,1,.373,1.771,12.617,12.617,0,0,1-3.929,10.871,10.814,10.814,0,0,1-1.42,1.123A2.222,2.222,0,0,1,449.671,92.6Z" transform="translate(-449.67 -77.901)" fill="#263238"/>
              </g>
              <g id="Group_141" data-name="Group 141" transform="translate(5.403 13.305)">
                <path id="Path_231" data-name="Path 231" d="M377.127,59.793c-.012.064-1.023-.194-2.684-.233a14.716,14.716,0,0,0-11.47,5.018c-1.1,1.246-1.6,2.163-1.651,2.129a2.623,2.623,0,0,1,.321-.657,12.153,12.153,0,0,1,1.144-1.631,14.064,14.064,0,0,1,11.665-5.1,12.174,12.174,0,0,1,1.975.267A2.64,2.64,0,0,1,377.127,59.793Z" transform="translate(-361.32 -59.29)" fill="#263238"/>
              </g>
              <g id="Group_142" data-name="Group 142" transform="translate(23.601 4.623)">
                <path id="Path_232" data-name="Path 232" d="M398.9,46.221c0,.063-.735.11-1.879.411a12.519,12.519,0,0,0-7.282,5.288c-.639.994-.913,1.684-.972,1.659a1.547,1.547,0,0,1,.147-.5,7.979,7.979,0,0,1,.617-1.285,10.908,10.908,0,0,1,1.235-1.722,11.681,11.681,0,0,1,4.179-3.035,10.883,10.883,0,0,1,2.019-.642,8.049,8.049,0,0,1,1.413-.19A1.541,1.541,0,0,1,398.9,46.221Z" transform="translate(-388.762 -46.198)" fill="#263238"/>
              </g>
              <g id="Group_143" data-name="Group 143" transform="translate(26.747 45.022)">
                <ellipse id="Ellipse_37" data-name="Ellipse 37" cx="12.183" cy="0.172" rx="12.183" ry="0.172" fill="#263238"/>
              </g>
            </g>
            <g id="Group_145" data-name="Group 145" transform="translate(52.305 58.65)">
              <ellipse id="Ellipse_38" data-name="Ellipse 38" cx="0.173" cy="9.978" rx="0.173" ry="9.978" fill="#263238"/>
            </g>
            <g id="Group_146" data-name="Group 146" transform="translate(56.205 61.633)">
              <ellipse id="Ellipse_39" data-name="Ellipse 39" cx="0.173" cy="12.845" rx="0.173" ry="12.845" fill="#263238"/>
            </g>
          </g>
        </g>
        <g id="Cloud_2" transform="translate(78.581 133.588)">
          <g id="Group_155" data-name="Group 155" transform="translate(0 0)">
            <path id="Path_233" data-name="Path 233" d="M237.671,362.709v32.142H226.629l23.8,27.726,22.328-27.156H261.471V362.709Z" transform="translate(-144.12 -243.004)" fill="#ff725e"/>
            <path id="Path_234" data-name="Path 234" d="M237.671,362.709v32.142H226.629l23.8,27.726,22.328-27.156H261.471V362.709Z" transform="translate(-144.12 -243.004)" opacity="0.3"/>
            <path id="Path_235" data-name="Path 235" d="M273.385,230.2a63.923,63.923,0,0,0-111.851-23.972,53.152,53.152,0,1,0-6.157,105.945H271.141a41.017,41.017,0,0,0,2.245-81.974Z" transform="translate(-102.213 -182.206)" fill="#ff725e"/>
            <g id="Group_148" data-name="Group 148" transform="translate(48.706 29.864)">
              <path id="Path_236" data-name="Path 236" d="M193.223,255.049a1.378,1.378,0,0,1-.047-.351c-.018-.269-.04-.6-.067-1.006-.013-.223-.026-.465-.04-.727s-.068-.55-.1-.859c-.085-.615-.137-1.32-.31-2.083l-.235-1.2c-.084-.417-.219-.841-.332-1.285-.21-.894-.552-1.813-.883-2.789a32.232,32.232,0,0,0-7.112-11.259c-.739-.718-1.423-1.423-2.14-2-.353-.292-.677-.6-1.018-.852l-.985-.728c-.614-.485-1.229-.834-1.747-1.175-.263-.165-.5-.328-.731-.462l-.639-.348-.879-.493a1.338,1.338,0,0,1-.3-.194,1.327,1.327,0,0,1,.328.131l.912.437.657.324c.235.126.481.283.75.44a20.365,20.365,0,0,1,1.789,1.141l1.006.717c.348.252.68.552,1.04.844.732.57,1.43,1.272,2.182,1.992a31.341,31.341,0,0,1,7.183,11.371c.327.989.662,1.921.861,2.827.108.45.237.879.315,1.3s.146.828.215,1.217a20.334,20.334,0,0,1,.262,2.1c.027.312.063.6.076.867s.007.507.01.731c0,.407,0,.741,0,1.011A1.317,1.317,0,0,1,193.223,255.049Z" transform="translate(-175.657 -227.238)" fill="#263238"/>
            </g>
            <g id="Group_149" data-name="Group 149" transform="translate(28.633 41.27)">
              <path id="Path_237" data-name="Path 237" d="M161.278,250.562c-.044.045-.741-.645-2-1.585a22.015,22.015,0,0,0-11.335-4.275c-1.568-.128-2.548-.07-2.551-.133a2.657,2.657,0,0,1,.685-.092,14.51,14.51,0,0,1,1.882-.019,20.016,20.016,0,0,1,11.468,4.327,14.439,14.439,0,0,1,1.4,1.257A2.726,2.726,0,0,1,161.278,250.562Z" transform="translate(-145.388 -244.438)" fill="#263238"/>
            </g>
            <g id="Group_150" data-name="Group 150" transform="translate(42.325 90.164)">
              <path id="Path_238" data-name="Path 238" d="M192.587,320.778a6.071,6.071,0,0,1-1.051.033c-.676,0-1.654-.021-2.862-.064-2.416-.086-5.752-.282-9.424-.641s-6.984-.818-9.371-1.2c-1.193-.193-2.157-.363-2.82-.494a6.148,6.148,0,0,1-1.025-.235,6.087,6.087,0,0,1,1.046.1l2.834.385c2.393.324,5.7.741,9.369,1.1s6.992.594,9.4.741l2.855.174A6.086,6.086,0,0,1,192.587,320.778Z" transform="translate(-166.035 -318.165)" fill="#263238"/>
            </g>
            <g id="Group_151" data-name="Group 151" transform="translate(137.134 47.649)">
              <path id="Path_239" data-name="Path 239" d="M341.3,254.075a1.5,1.5,0,0,1-.373.049l-1.066.072c-.464.022-1.03.057-1.684.139s-1.4.127-2.219.275l-1.285.2c-.446.072-.9.185-1.381.281-.958.178-1.959.464-3.017.741a44.6,44.6,0,0,0-12.85,6c-.893.633-1.755,1.218-2.505,1.838-.38.3-.76.583-1.1.879l-.98.855c-.638.531-1.157,1.072-1.636,1.525s-.873.86-1.187,1.2l-.74.771a1.506,1.506,0,0,1-.277.254,1.548,1.548,0,0,1,.224-.3l.694-.816c.3-.357.677-.784,1.149-1.247s.978-1.025,1.609-1.57l.97-.877c.34-.3.718-.588,1.1-.9.749-.634,1.61-1.232,2.5-1.877a42.921,42.921,0,0,1,12.943-6.044c1.068-.272,2.08-.548,3.047-.716.482-.091.943-.2,1.393-.263l1.3-.18c.823-.133,1.577-.168,2.236-.226s1.228-.08,1.694-.081l1.071-.008A1.539,1.539,0,0,1,341.3,254.075Z" transform="translate(-308.998 -254.056)" fill="#263238"/>
            </g>
            <g id="Group_152" data-name="Group 152" transform="translate(51.671 130.16)">
              <path id="Path_240" data-name="Path 240" d="M294.612,378.647c0,.1-25.63.172-57.239.172s-57.244-.077-57.244-.172,25.625-.173,57.244-.173S294.612,378.552,294.612,378.647Z" transform="translate(-180.128 -378.474)" fill="#263238"/>
            </g>
            <g id="Group_153" data-name="Group 153" transform="translate(27.745 131.918)">
              <ellipse id="Ellipse_40" data-name="Ellipse 40" cx="0.172" cy="10.71" rx="0.172" ry="10.71" fill="#263238"/>
            </g>
            <g id="Group_154" data-name="Group 154" transform="translate(32.096 142.962)">
              <ellipse id="Ellipse_41" data-name="Ellipse 41" cx="0.172" cy="15.06" rx="0.172" ry="15.06" fill="#263238"/>
            </g>
          </g>
        </g>
        <g id="Character" transform="translate(116.132 75.841)">
          <g id="Group_165" data-name="Group 165" transform="translate(0 88.598)" opacity="0.3">
            <path id="Path_247" data-name="Path 247" d="M307.139,267.175c-1.3-7.571-11.359-15.249-20.008-13.525-7.534,1.5-15.647,3.253-23.1,5.134-3.072.776-6.26-2.958-8.835-4.807a12.086,12.086,0,0,1-2.991-3.953c-4.793-8.148-12.681-14.266-21.5-17.68a59.529,59.529,0,0,0-27.906-3.2c-7.286.8-15.282,3.312-18.67,9.811-1.365,2.618-1.905,5.765-4.025,7.82-2.822,2.734-7.3,2.516-10.977,3.9-7.356,2.771-11.086,13.3-10.16,21.1s7.875,17.865,22.47,19.47c0,0,52.875.462,78.986,1.728,9.05.438,11.781-.808,20.839-1.043C297.246,291.516,309.523,281.053,307.139,267.175Z" transform="translate(-158.836 -228.727)"/>
          </g>
          <g id="Group_425" data-name="Group 425" transform="translate(10.685)">
            <g id="Group_225" data-name="Group 225" transform="translate(0 106.686)">
              <g id="Group_175" data-name="Group 175" transform="translate(29.558 47.703)">
                <path id="Path_248" data-name="Path 248" d="M230.563,338.619a10.941,10.941,0,0,0,2.645-1.631q2.824-1.818,5.587-3.73c-6.618-1.927-12.238-3.444-18.855-5.325a22.476,22.476,0,0,0,.73,7.89c.61,2.05,1.779,4.229,3.846,4.773,1.88.494,3.79-.542,5.445-1.562l.461-.285" transform="translate(-219.636 -327.933)" fill="#e0e0e0"/>
                <g id="Group_166" data-name="Group 166" transform="translate(11.219 3.316)">
                  <path id="Path_249" data-name="Path 249" d="M237.283,336.648c-.1-.011-.059-.87-.294-1.884s-.63-1.775-.542-1.828a4.064,4.064,0,0,1,.836,3.712Z" transform="translate(-236.435 -332.934)" fill="#263238"/>
                </g>
                <g id="Group_167" data-name="Group 167" transform="translate(13.158 3.72)">
                  <path id="Path_250" data-name="Path 250" d="M239.694,336.507a22.368,22.368,0,0,0-.312-2.962,3,3,0,0,1,.312,2.962Z" transform="translate(-239.36 -333.543)" fill="#263238"/>
                </g>
                <g id="Group_168" data-name="Group 168" transform="translate(4.346 1.253)">
                  <path id="Path_251" data-name="Path 251" d="M226.473,329.822c.059.014-.131.688-.141,1.8a8.191,8.191,0,0,0,1.035,4.116,10.869,10.869,0,0,0,2.711,3.324,9.853,9.853,0,0,0,1.568.856,1.157,1.157,0,0,1-.488-.079,4.394,4.394,0,0,1-1.22-.578,9.882,9.882,0,0,1-2.87-3.35,7.754,7.754,0,0,1-.981-4.3,6.668,6.668,0,0,1,.21-1.327A1.244,1.244,0,0,1,226.473,329.822Z" transform="translate(-226.071 -329.822)" fill="#455a64"/>
                </g>
                <g id="Group_169" data-name="Group 169" transform="translate(9.908 2.786)">
                  <path id="Path_252" data-name="Path 252" d="M234.472,332.134a14.7,14.7,0,0,1,1.069,7.888c-.107,0-.036-1.8-.333-3.971S234.369,332.166,234.472,332.134Z" transform="translate(-234.459 -332.133)" fill="#455a64"/>
                </g>
                <g id="Group_170" data-name="Group 170" transform="translate(4.759 1.893)">
                  <path id="Path_253" data-name="Path 253" d="M230.357,338.733a4.27,4.27,0,0,1-1.05-.844,9.559,9.559,0,0,1-1.974-2.6,5.761,5.761,0,0,1-.6-3.216,2.463,2.463,0,0,1,.434-1.285c.056.021-.148.5-.192,1.307a6.228,6.228,0,0,0,.666,3.04,11.689,11.689,0,0,0,1.84,2.582A6.647,6.647,0,0,1,230.357,338.733Z" transform="translate(-226.694 -330.788)" fill="#ff725e"/>
                </g>
                <g id="Group_171" data-name="Group 171" transform="translate(12.862 6.234)">
                  <path id="Path_254" data-name="Path 254" d="M243.746,337.343a21.908,21.908,0,0,1-4.831,2.6,21.913,21.913,0,0,1,4.831-2.6Z" transform="translate(-238.913 -337.334)" fill="#ff725e"/>
                </g>
                <g id="Group_172" data-name="Group 172" transform="translate(2.727 9.928)">
                  <path id="Path_255" data-name="Path 255" d="M228.043,342.91a4.834,4.834,0,0,1-4.413,1.472c0-.1,1.07-.084,2.286-.5C227.137,343.485,227.978,342.829,228.043,342.91Z" transform="translate(-223.63 -342.904)" fill="#455a64"/>
                </g>
                <g id="Group_173" data-name="Group 173" transform="translate(1.229 6.484)">
                  <path id="Path_256" data-name="Path 256" d="M225.03,337.762c.01.1-.893.225-1.892.686s-1.691,1.048-1.761.974a4.254,4.254,0,0,1,3.653-1.66Z" transform="translate(-221.371 -337.71)" fill="#455a64"/>
                </g>
                <g id="Group_174" data-name="Group 174" transform="translate(0 2.522)">
                  <path id="Path_257" data-name="Path 257" d="M223.971,332.731a19.723,19.723,0,0,0-2.184-.606,19.852,19.852,0,0,0-2.267-.012,4.234,4.234,0,0,1,4.451.618Z" transform="translate(-219.518 -331.736)" fill="#455a64"/>
                </g>
              </g>
              <path id="Path_258" data-name="Path 258" d="M288.3,312.513c.039.062-24.877,6.069-24.877,6.069l-3.664-8.591,1.682-2.594a81.144,81.144,0,0,0,19.1-7.226Z" transform="translate(-203.513 -270.879)" fill="#ffbe9d"/>
              <path id="Path_259" data-name="Path 259" d="M201.261,279.073s-1.134-1.662-5.974-4.029c-4.011-1.962-14.31-3.612-18.478,4.446s-.972,20.423,5.975,23.063,18.478,6.252,23.2,7.78,20.284,5.418,20.284,5.418L232.66,312l.753-11.927S224.6,291.022,217.1,288.52,201.261,279.073,201.261,279.073Z" transform="translate(-174.947 -261.873)" fill="#263238"/>
              <path id="Path_260" data-name="Path 260" d="M192.929,267.582a39.135,39.135,0,0,1,12.182,2.025c1.925.726,3.806,1.5,3.806,1.5l2.826-8.05L232.918,256h23.446l7.628,15.1v.763s9.154.153,13.12-1.678,16.324-7.171,19.528-8.239,17.544-3.122,20.748,5.609.931,17.835-4.424,21.159c-2.525,1.567-45.158,12.592-45.158,12.592l-10.07-16.019s-15.35,7.605-20.489,6.778S192.929,267.582,192.929,267.582Z" transform="translate(-181.004 -256.002)" fill="#263238"/>
              <g id="Group_176" data-name="Group 176" transform="translate(55.158 3.893)">
                <path id="Path_261" data-name="Path 261" d="M258.125,261.873a1.134,1.134,0,0,1,.1.308c.064.244.142.54.235.9.19.785.44,1.927.689,3.348.517,2.84,1.032,6.8,1.433,11.178s.61,8.366.7,11.249c.046,1.442.06,2.609.058,3.415-.006.37-.011.677-.014.928a1.136,1.136,0,0,1-.029.324,1.2,1.2,0,0,1-.041-.323c-.014-.252-.031-.558-.051-.926-.042-.859-.1-2.009-.168-3.408-.148-2.878-.4-6.849-.8-11.228s-.876-8.327-1.33-11.171c-.218-1.423-.43-2.568-.58-3.36-.069-.363-.125-.664-.172-.912A1.175,1.175,0,0,1,258.125,261.873Z" transform="translate(-258.121 -261.873)" fill="#455a64"/>
              </g>
              <g id="Group_177" data-name="Group 177" transform="translate(58.951 16.069)">
                <ellipse id="Ellipse_45" data-name="Ellipse 45" cx="11.966" cy="0.172" rx="11.966" ry="0.172" transform="translate(0 2.642) rotate(-6.338)" fill="#455a64"/>
              </g>
              <g id="Group_178" data-name="Group 178" transform="translate(60.102 15.31)">
                <path id="Path_262" data-name="Path 262" d="M284.726,280.053a3.239,3.239,0,0,1-.758-.061c-.483-.066-1.182-.151-2.048-.243a53.8,53.8,0,0,0-13.551.236c-.861.123-1.558.232-2.038.314a3.273,3.273,0,0,1-.755.088,3.248,3.248,0,0,1,.729-.22c.474-.123,1.166-.269,2.027-.423a43.861,43.861,0,0,1,13.618-.237c.866.124,1.562.246,2.04.352A3.254,3.254,0,0,1,284.726,280.053Z" transform="translate(-265.576 -279.088)" fill="#455a64"/>
              </g>
              <g id="Group_179" data-name="Group 179" transform="translate(73.117 13.035)">
                <path id="Path_263" data-name="Path 263" d="M294.576,277.982a17.523,17.523,0,0,0-9.376-2.065,4.317,4.317,0,0,1,1.425-.235,12.741,12.741,0,0,1,6.756,1.487A4.322,4.322,0,0,1,294.576,277.982Z" transform="translate(-285.2 -275.657)" fill="#455a64"/>
              </g>
              <g id="Group_180" data-name="Group 180" transform="translate(58.358 28.464)">
                <path id="Path_264" data-name="Path 264" d="M267.554,298.931a7.485,7.485,0,0,1-4.608,1.843c-.017-.1,1.071-.34,2.334-.849S267.5,298.847,267.554,298.931Z" transform="translate(-262.946 -298.923)" fill="#455a64"/>
              </g>
              <g id="Group_181" data-name="Group 181" transform="translate(58.255 31.417)">
                <path id="Path_265" data-name="Path 265" d="M266.376,303.4a5.3,5.3,0,0,1-3.585.511,8.5,8.5,0,0,1,1.789-.282A8.348,8.348,0,0,1,266.376,303.4Z" transform="translate(-262.791 -303.375)" fill="#455a64"/>
              </g>
              <g id="Group_182" data-name="Group 182" transform="translate(65.571 14.772)">
                <path id="Path_266" data-name="Path 266" d="M306.125,278.278a1.563,1.563,0,0,1-.311.213l-.926.552-3.435,1.976-11.4,6.407-11.447,6.32-3.488,1.88-.956.5a1.5,1.5,0,0,1-.345.152,1.521,1.521,0,0,1,.312-.213l.926-.553,3.435-1.976,11.4-6.408,11.444-6.318,3.488-1.881.956-.5A1.508,1.508,0,0,1,306.125,278.278Z" transform="translate(-273.823 -278.277)" fill="#455a64"/>
              </g>
              <g id="Group_183" data-name="Group 183" transform="translate(76.647 11.392)">
                <path id="Path_267" data-name="Path 267" d="M329.634,273.184a2.065,2.065,0,0,1-.428.109l-1.236.255c-1.072.221-2.618.578-4.5,1.109a81.5,81.5,0,0,0-14.193,5.629c-5.343,2.681-9.97,5.505-13.317,7.544L292,290.255l-1.084.649a2.108,2.108,0,0,1-.391.206,2.119,2.119,0,0,1,.353-.265l1.049-.7c.915-.6,2.246-1.47,3.9-2.52,3.315-2.092,7.931-4.955,13.291-7.644a75.858,75.858,0,0,1,14.283-5.556c1.9-.5,3.458-.824,4.541-1.006.54-.1.964-.15,1.25-.191A2.091,2.091,0,0,1,329.634,273.184Z" transform="translate(-290.524 -273.18)" fill="#455a64"/>
              </g>
              <g id="Group_184" data-name="Group 184" transform="translate(113.317 8.161)">
                <path id="Path_268" data-name="Path 268" d="M358.76,268.53c-.006.058-.774-.009-2.009.027a19.838,19.838,0,0,0-9.2,2.549c-1.078.605-1.7,1.058-1.736,1.011-.014-.019.128-.15.4-.37a11.836,11.836,0,0,1,1.212-.852,17.241,17.241,0,0,1,9.32-2.582,12.017,12.017,0,0,1,1.478.106A1.648,1.648,0,0,1,358.76,268.53Z" transform="translate(-345.818 -268.309)" fill="#455a64"/>
              </g>
              <g id="Group_185" data-name="Group 185" transform="translate(114.681 10.78)">
                <path id="Path_269" data-name="Path 269" d="M355.761,272.662c-.015.1-1.775-.129-3.949-.048s-3.915.421-3.938.319a14.965,14.965,0,0,1,7.886-.271Z" transform="translate(-347.875 -272.257)" fill="#455a64"/>
              </g>
              <g id="Group_186" data-name="Group 186" transform="translate(108.697 8.472)">
                <path id="Path_270" data-name="Path 270" d="M345.033,268.783c.046.093-1.48.9-3.179,2.17s-2.925,2.486-3,2.414a15.137,15.137,0,0,1,6.178-4.584Z" transform="translate(-338.852 -268.776)" fill="#455a64"/>
              </g>
              <g id="Group_187" data-name="Group 187" transform="translate(84.199 16.045)">
                <path id="Path_271" data-name="Path 271" d="M355.027,280.2a.484.484,0,0,1-.066.141l-.225.4c-.2.346-.511.848-.953,1.466a21.563,21.563,0,0,1-4.461,4.621,43.339,43.339,0,0,1-8.223,4.82c-3.263,1.507-6.985,2.83-10.884,4.2l-19.991,6.992-6.071,2.082-1.656.549-.434.135a.551.551,0,0,1-.152.035.512.512,0,0,1,.14-.068l.422-.167,1.635-.611,6.035-2.185,19.958-7.088c3.9-1.369,7.614-2.679,10.867-4.162a44.407,44.407,0,0,0,8.206-4.724,22.4,22.4,0,0,0,4.5-4.507c.456-.6.785-1.091,1-1.423l.253-.376A.545.545,0,0,1,355.027,280.2Z" transform="translate(-301.911 -280.197)" fill="#455a64"/>
              </g>
              <g id="Group_188" data-name="Group 188" transform="translate(11.925 27.964)">
                <path id="Path_272" data-name="Path 272" d="M238.012,320.755a2.786,2.786,0,0,1-.485-.17l-1.365-.55c-1.18-.488-2.883-1.21-4.973-2.13-4.183-1.834-9.92-4.466-16.183-7.524s-11.854-6-15.809-8.29c-1.983-1.136-3.557-2.108-4.631-2.8l-1.224-.818a2.767,2.767,0,0,1-.413-.3,2.836,2.836,0,0,1,.451.246l1.257.762c1.094.657,2.685,1.594,4.68,2.7,3.981,2.23,9.587,5.122,15.841,8.192s11.976,5.721,16.131,7.611l4.926,2.229,1.339.609A2.852,2.852,0,0,1,238.012,320.755Z" transform="translate(-192.929 -298.169)" fill="#455a64"/>
              </g>
              <g id="Group_189" data-name="Group 189" transform="translate(13.57 13.88)">
                <path id="Path_273" data-name="Path 273" d="M195.41,278.814a2.449,2.449,0,0,1,.587-.374,11.766,11.766,0,0,1,1.742-.757,13.784,13.784,0,0,1,6.205-.643,17.1,17.1,0,0,1,6.006,1.7,8.51,8.51,0,0,1,1.57,1.075,2.286,2.286,0,0,1,.483.5,18.346,18.346,0,0,0-2.165-1.36,18.708,18.708,0,0,0-5.937-1.579,14.683,14.683,0,0,0-6.087.532C196.3,278.379,195.438,278.871,195.41,278.814Z" transform="translate(-195.409 -276.932)" fill="#455a64"/>
              </g>
              <g id="Group_190" data-name="Group 190" transform="translate(27.912 15.102)">
                <path id="Path_274" data-name="Path 274" d="M247.589,301.872a1.7,1.7,0,0,1-.31-.239l-.849-.727c-.735-.633-1.82-1.525-3.175-2.61-2.708-2.171-6.529-5.071-10.74-8.289l-3.064-2.358c-1-.738-2.014-1.38-2.995-1.972-1.965-1.177-3.782-2.181-5.22-3.168a20.748,20.748,0,0,1-3.205-2.6,10.441,10.441,0,0,1-.757-.827,1.626,1.626,0,0,1-.238-.311c.028-.025.377.385,1.089,1.041a23.216,23.216,0,0,0,3.246,2.488c1.444.954,3.265,1.931,5.248,3.1.989.588,2.017,1.229,3.032,1.973s2.015,1.554,3.073,2.356c4.21,3.218,8.011,6.151,10.684,8.375,1.337,1.111,2.4,2.032,3.11,2.7.361.326.625.6.807.777A1.605,1.605,0,0,1,247.589,301.872Z" transform="translate(-217.036 -278.774)" fill="#455a64"/>
              </g>
              <g id="Group_191" data-name="Group 191" transform="translate(40.982 21.66)">
                <path id="Path_275" data-name="Path 275" d="M236.744,288.668a23.119,23.119,0,0,1,2.36.881c1.448.563,3.461,1.306,5.719,2.023s4.333,1.265,5.841,1.639a22.958,22.958,0,0,1,2.437.639,2.614,2.614,0,0,1-.676-.067c-.431-.064-1.052-.177-1.815-.334a61.258,61.258,0,0,1-11.6-3.674c-.715-.311-1.287-.576-1.677-.772A2.506,2.506,0,0,1,236.744,288.668Z" transform="translate(-236.743 -288.664)" fill="#455a64"/>
              </g>
              <g id="Group_192" data-name="Group 192" transform="translate(32.103 15.771)">
                <path id="Path_276" data-name="Path 276" d="M239.566,279.8a18.811,18.811,0,0,1-2.38.41c-1.474.222-3.507.533-5.744.932s-4.252.814-5.711,1.118a18.736,18.736,0,0,1-2.375.44,2.383,2.383,0,0,1,.613-.219c.4-.12.983-.277,1.707-.46,1.447-.365,3.461-.817,5.7-1.22s4.289-.675,5.773-.835c.742-.08,1.344-.135,1.761-.161A2.363,2.363,0,0,1,239.566,279.8Z" transform="translate(-223.356 -279.783)" fill="#455a64"/>
              </g>
              <g id="Group_193" data-name="Group 193" transform="translate(29.644 11.87)">
                <path id="Path_277" data-name="Path 277" d="M235.176,273.926c0,.056-.913.131-2.377.351a37.523,37.523,0,0,0-10.993,3.412c-1.331.648-2.129,1.1-2.157,1.056a2.368,2.368,0,0,1,.523-.383c.348-.231.867-.537,1.523-.891a30.9,30.9,0,0,1,11.072-3.437c.741-.08,1.343-.122,1.76-.128A2.327,2.327,0,0,1,235.176,273.926Z" transform="translate(-219.648 -273.901)" fill="#455a64"/>
              </g>
              <g id="Group_224" data-name="Group 224" transform="translate(53.92 39.097)">
                <g id="Group_222" data-name="Group 222" transform="translate(13.933 1.561)">
                  <g id="Group_210" data-name="Group 210">
                    <path id="Path_278" data-name="Path 278" d="M281.228,322.029l-3.966,9.272c1.464,1.316,7.035,2.173,9,2.074s4.8-.076,6.755-.3a42.86,42.86,0,0,1,7.488.054,33.221,33.221,0,0,0,7.481-.136,12.049,12.049,0,0,0,6.658-3.174,6.879,6.879,0,0,0-2.047-11.557,12.19,12.19,0,0,0-6.348-.871,35.43,35.43,0,0,0-6.315,1.432,18.991,18.991,0,0,1-6.76,1.127,13.53,13.53,0,0,1-1.391-.105c-3-.552-6.122-.582-8.82,1.117C282.406,321.314,281.791,321.617,281.228,322.029Z" transform="translate(-277.262 -317.309)" fill="#e0e0e0"/>
                    <g id="Group_194" data-name="Group 194" transform="translate(4.542 2.259)">
                      <path id="Path_279" data-name="Path 279" d="M284.111,324.241a2.36,2.36,0,0,1,.349-.334,8.261,8.261,0,0,1,1.14-.79,8.377,8.377,0,0,1,4.943-1.065c1.076.105,2.232.324,3.474.511a15.6,15.6,0,0,0,3.968.195,24.125,24.125,0,0,0,4.3-.989,21.864,21.864,0,0,1,4.693-1,13.312,13.312,0,0,1,4.792.413,11.014,11.014,0,0,1,2.133.865,6.28,6.28,0,0,1,1.763,1.346,8.035,8.035,0,0,1,1.9,3.584,4.38,4.38,0,0,1,.06,1.866,4.836,4.836,0,0,1-.636,1.6,6.514,6.514,0,0,1-2.064,2.06,12.106,12.106,0,0,1-1.954,1c-.556.228-1,.383-1.294.485a2.435,2.435,0,0,1-.462.138,2.607,2.607,0,0,1,.437-.2c.29-.124.722-.3,1.266-.544a12.848,12.848,0,0,0,1.9-1.039,6.408,6.408,0,0,0,1.962-2.025,4.174,4.174,0,0,0,.507-3.271,7.794,7.794,0,0,0-1.857-3.432,8.148,8.148,0,0,0-3.756-2.1,13.076,13.076,0,0,0-4.671-.395c-3.238.238-6.107,1.713-8.987,1.961a15.631,15.631,0,0,1-4.045-.229c-1.247-.2-2.4-.432-3.455-.552a8.429,8.429,0,0,0-4.852.94A15.838,15.838,0,0,0,284.111,324.241Z" transform="translate(-284.11 -320.716)" fill="#455a64"/>
                    </g>
                    <g id="Group_195" data-name="Group 195" transform="translate(29.074 2.678)">
                      <path id="Path_280" data-name="Path 280" d="M323.675,334.336c-.019.015-.146-.129-.36-.4a4.2,4.2,0,0,1-.361-.521,7.07,7.07,0,0,1-.421-.728,12,12,0,0,1-.831-2.025,13.88,13.88,0,0,1-.546-5.31,12.042,12.042,0,0,1,.4-2.152,6.978,6.978,0,0,1,.265-.8,4.223,4.223,0,0,1,.248-.583c.155-.312.249-.479.271-.468.058.026-.269.72-.548,1.911a13.811,13.811,0,0,0-.321,2.116,15.17,15.17,0,0,0,.534,5.194,13.852,13.852,0,0,0,.745,2.007C323.266,333.685,323.726,334.3,323.675,334.336Z" transform="translate(-321.103 -321.347)" fill="#263238"/>
                    </g>
                    <g id="Group_196" data-name="Group 196" transform="translate(5.733 3.42)">
                      <path id="Path_281" data-name="Path 281" d="M286.585,322.471c.084.046-.02.391-.19.789s-.347.712-.439.683-.057-.4.122-.818S286.5,322.425,286.585,322.471Z" transform="translate(-285.908 -322.466)" fill="#455a64"/>
                    </g>
                    <g id="Group_197" data-name="Group 197" transform="translate(8.693 2.316)">
                      <path id="Path_282" data-name="Path 282" d="M290.92,320.8c.088.04.017.382-.113.781s-.277.716-.371.7-.095-.385.042-.8S290.834,320.765,290.92,320.8Z" transform="translate(-290.37 -320.801)" fill="#455a64"/>
                    </g>
                    <g id="Group_198" data-name="Group 198" transform="translate(12.189 2.202)">
                      <ellipse id="Ellipse_46" data-name="Ellipse 46" cx="0.861" cy="0.172" rx="0.861" ry="0.172" transform="translate(0 1.636) rotate(-71.857)" fill="#455a64"/>
                    </g>
                    <g id="Group_199" data-name="Group 199" transform="translate(15.645 2.639)">
                      <ellipse id="Ellipse_47" data-name="Ellipse 47" cx="0.862" cy="0.172" rx="0.862" ry="0.172" transform="translate(0 1.657) rotate(-73.912)" fill="#455a64"/>
                    </g>
                    <g id="Group_200" data-name="Group 200" transform="translate(18.992 2.413)">
                      <ellipse id="Ellipse_48" data-name="Ellipse 48" cx="1.031" cy="0.173" rx="1.031" ry="0.173" transform="translate(0.358 0.002) rotate(90.327)" fill="#455a64"/>
                    </g>
                    <g id="Group_201" data-name="Group 201" transform="translate(21.968 1.774)">
                      <ellipse id="Ellipse_49" data-name="Ellipse 49" cx="0.948" cy="0.172" rx="0.948" ry="0.172" transform="matrix(0.137, 0.99, -0.99, 0.137, 0.342, 0)" fill="#455a64"/>
                    </g>
                    <g id="Group_202" data-name="Group 202" transform="translate(25.168 0.733)">
                      <ellipse id="Ellipse_50" data-name="Ellipse 50" cx="0.917" cy="0.173" rx="0.917" ry="0.173" transform="translate(0.34 1.867) rotate(-100.678)" fill="#455a64"/>
                    </g>
                    <g id="Group_203" data-name="Group 203" transform="translate(28.492 0.023)">
                      <ellipse id="Ellipse_51" data-name="Ellipse 51" cx="1.208" cy="0.173" rx="1.208" ry="0.173" transform="translate(0 2.364) rotate(-78.03)" fill="#455a64"/>
                    </g>
                    <g id="Group_204" data-name="Group 204" transform="translate(31.061 0.155)">
                      <path id="Path_283" data-name="Path 283" d="M325.463,317.545c.088.039-.147.643-.521,1.348s-.746,1.236-.827,1.185a3.174,3.174,0,0,1,.522-1.348C325.005,318.037,325.376,317.506,325.463,317.545Z" transform="translate(-324.099 -317.543)" fill="#455a64"/>
                    </g>
                    <g id="Group_205" data-name="Group 205" transform="translate(33.953 0.944)">
                      <ellipse id="Ellipse_52" data-name="Ellipse 52" cx="1.519" cy="0.172" rx="1.519" ry="0.172" transform="translate(0 2.545) rotate(-56.879)" fill="#455a64"/>
                    </g>
                    <g id="Group_206" data-name="Group 206" transform="translate(36.182 2.97)">
                      <ellipse id="Ellipse_53" data-name="Ellipse 53" cx="1.387" cy="0.172" rx="1.387" ry="0.172" transform="translate(0 2.278) rotate(-55.186)" fill="#455a64"/>
                    </g>
                    <g id="Group_207" data-name="Group 207" transform="translate(37.611 5.605)">
                      <path id="Path_284" data-name="Path 284" d="M335.778,325.765c.076.054-.219.593-.724,1.148s-1.009.9-1.072.834.327-.524.816-1.065S335.7,325.708,335.778,325.765Z" transform="translate(-333.975 -325.76)" fill="#455a64"/>
                    </g>
                    <g id="Group_208" data-name="Group 208" transform="translate(37.969 9.501)">
                      <path id="Path_285" data-name="Path 285" d="M335.741,331.65c.074.056-.1.378-.489.549s-.744.083-.735-.01.287-.166.6-.306S335.667,331.585,335.741,331.65Z" transform="translate(-334.516 -331.635)" fill="#455a64"/>
                    </g>
                    <g id="Group_209" data-name="Group 209" transform="translate(36.704 12.695)">
                      <path id="Path_286" data-name="Path 286" d="M332.975,336.616c.032.09-.064.2-.208.176s-.195-.162-.135-.235a.241.241,0,0,1,.195-.1A.236.236,0,0,1,332.975,336.616Z" transform="translate(-332.608 -336.452)" fill="#455a64"/>
                    </g>
                  </g>
                  <g id="Group_211" data-name="Group 211" transform="translate(13.938 7.785)">
                    <path id="Path_287" data-name="Path 287" d="M298.286,335.446a10.453,10.453,0,0,0,1.149-6.4,6.546,6.546,0,0,1-1.149,6.4Z" transform="translate(-298.279 -329.049)" fill="#263238"/>
                  </g>
                  <g id="Group_212" data-name="Group 212" transform="translate(16.672 7.966)">
                    <path id="Path_288" data-name="Path 288" d="M302.408,335.223a9.117,9.117,0,0,0,.99-5.9,5.687,5.687,0,0,1-.99,5.9Z" transform="translate(-302.401 -329.321)" fill="#263238"/>
                  </g>
                  <g id="Group_213" data-name="Group 213" transform="translate(20.113 7.501)">
                    <path id="Path_289" data-name="Path 289" d="M307.6,335.008a8.807,8.807,0,0,0,1.181-6.388,2.132,2.132,0,0,1,.344.944,6.439,6.439,0,0,1-.867,4.685C307.914,334.773,307.627,335.034,307.6,335.008Z" transform="translate(-307.59 -328.62)" fill="#263238"/>
                  </g>
                  <g id="Group_214" data-name="Group 214" transform="translate(23.996 7.145)">
                    <path id="Path_290" data-name="Path 290" d="M313.454,334.6a11.38,11.38,0,0,0,.828-6.512,6.915,6.915,0,0,1-.828,6.512Z" transform="translate(-313.445 -328.084)" fill="#263238"/>
                  </g>
                  <g id="Group_215" data-name="Group 215" transform="translate(8.762 5.711)">
                    <path id="Path_291" data-name="Path 291" d="M294.961,330.955a1.046,1.046,0,0,1-.564.078,3.106,3.106,0,0,1-1.476-.483,6.466,6.466,0,0,1-1.649-1.594,3.949,3.949,0,0,1-.716-1.184,1.643,1.643,0,0,1-.06-.778,1.215,1.215,0,0,1,.414-.716,1.643,1.643,0,0,1,1.51-.285,2.879,2.879,0,0,1,1.184.749,5.465,5.465,0,0,1,1.245,1.934,5.124,5.124,0,0,1,.324,1.509,1.4,1.4,0,0,1-.034.564,9.639,9.639,0,0,0-.516-1.982,5.541,5.541,0,0,0-1.241-1.8,2.6,2.6,0,0,0-1.055-.651,1.316,1.316,0,0,0-1.194.222,1.027,1.027,0,0,0-.255,1.129,3.8,3.8,0,0,0,.645,1.092,6.7,6.7,0,0,0,1.529,1.582A3.561,3.561,0,0,0,294.961,330.955Z" transform="translate(-290.474 -325.921)" fill="#263238"/>
                  </g>
                  <g id="Group_216" data-name="Group 216" transform="translate(8.191 10.572)">
                    <path id="Path_292" data-name="Path 292" d="M294.485,333.321a1.485,1.485,0,0,1-.128.506,7.874,7.874,0,0,1-.566,1.308,3.9,3.9,0,0,1-1.477,1.551,2.583,2.583,0,0,1-1.257.344,1.493,1.493,0,0,1-1.293-.628,1.34,1.34,0,0,1,.143-1.432,2.619,2.619,0,0,1,1-.837,7.8,7.8,0,0,1,2.042-.585,10.767,10.767,0,0,1,1.909-.287,10.713,10.713,0,0,1-1.858.525,8.52,8.52,0,0,0-1.946.629,2.346,2.346,0,0,0-.865.744,1.019,1.019,0,0,0-.127,1.064,1.175,1.175,0,0,0,1,.468,2.294,2.294,0,0,0,1.1-.285,3.819,3.819,0,0,0,1.419-1.4C294.179,334,294.425,333.293,294.485,333.321Z" transform="translate(-289.614 -333.251)" fill="#263238"/>
                  </g>
                  <g id="Group_217" data-name="Group 217" transform="translate(12.807 10.769)">
                    <path id="Path_293" data-name="Path 293" d="M296.583,336.246c-.076-.066.306-.574.418-1.315.129-.738-.072-1.342.021-1.38.075-.053.463.581.319,1.436S296.637,336.32,296.583,336.246Z" transform="translate(-296.573 -333.547)" fill="#263238"/>
                  </g>
                  <g id="Group_218" data-name="Group 218" transform="translate(13.26 8.832)">
                    <path id="Path_294" data-name="Path 294" d="M298.291,330.628c.09.027.012.531-.281,1.076s-.666.891-.738.832.16-.479.434-.994S298.2,330.6,298.291,330.628Z" transform="translate(-297.257 -330.627)" fill="#263238"/>
                  </g>
                  <g id="Group_219" data-name="Group 219" transform="translate(14.062 3.893)">
                    <path id="Path_295" data-name="Path 295" d="M309.321,323.186a5.88,5.88,0,0,1-1.478.7,19.057,19.057,0,0,1-7.76,1.155,5.878,5.878,0,0,1-1.617-.235,28.439,28.439,0,0,0,10.855-1.615Z" transform="translate(-298.466 -323.179)" fill="#ff725e"/>
                  </g>
                  <g id="Group_220" data-name="Group 220" transform="translate(15.954 14.494)">
                    <ellipse id="Ellipse_54" data-name="Ellipse 54" cx="3.659" cy="0.172" rx="3.659" ry="0.172" transform="translate(0 0.499) rotate(-3.91)" fill="#ff725e"/>
                  </g>
                  <g id="Group_221" data-name="Group 221" transform="translate(30.414 3.607)">
                    <path id="Path_296" data-name="Path 296" d="M324.779,334.051a5.83,5.83,0,0,0,2.336-.864,5.105,5.105,0,0,0,1.732-2.021,5.255,5.255,0,0,0,.359-3.213,5.945,5.945,0,0,0-1.47-2.907,6.937,6.937,0,0,0-2.192-1.568,12.308,12.308,0,0,0-2.422-.71,2.057,2.057,0,0,1,.691.012,6.974,6.974,0,0,1,1.828.474,6.84,6.84,0,0,1,2.327,1.575,6.094,6.094,0,0,1,1.577,3.059,5.456,5.456,0,0,1-.412,3.415,5.182,5.182,0,0,1-1.886,2.087,4.549,4.549,0,0,1-1.777.657A1.77,1.77,0,0,1,324.779,334.051Z" transform="translate(-323.123 -322.749)" fill="#ff725e"/>
                  </g>
                </g>
                <path id="Path_297" data-name="Path 297" d="M260.3,315.208l17.268,7.659a13.666,13.666,0,0,1-1.06,6.419c-1.263,2.585-5.092,2.066-5.092,2.066l-15.168-3.527,3.38-1.984Z" transform="translate(-256.253 -315.041)" fill="#ffbe9d"/>
                <path id="Path_298" data-name="Path 298" d="M284.211,334.443a10.461,10.461,0,0,1-1.854-1.657,3.534,3.534,0,0,1-.873-2.279,4.659,4.659,0,0,1,.743-2.114,3.673,3.673,0,0,1,1.714-1.762,3.762,3.762,0,0,1,2.924.51l.183,3.843Z" transform="translate(-264.751 -318.843)" fill="#e0e0e0"/>
                <g id="Group_223" data-name="Group 223" transform="translate(3.981)">
                  <ellipse id="Ellipse_55" data-name="Ellipse 55" cx="9.445" cy="0.172" rx="9.445" ry="0.172" transform="matrix(0.914, 0.405, -0.405, 0.914, 0.14, 0)" fill="#eb996e"/>
                </g>
              </g>
            </g>
            <g id="Group_237" data-name="Group 237" transform="translate(17.254 46.136)">
              <path id="Path_299" data-name="Path 299" d="M278.557,202.637a1.253,1.253,0,0,0,1.3-1.2c.194-5.447-3.4-17.8-5.125-22.921-1.055-3.135-4.614-5.418-7.107-7.1-3.01-2.036-13.659-4.528-17.162-5.5h-1.18L233.016,164.7l-8.956,4.294s-12.421,4.7-16.022,11.255-6.34,25.779-6.34,25.779-1.65,5.49,0,7.969c1.027,1.543,4.851,2.88,8.295,3.542-1.863,6.206-.395,10.813-.46,11.6-.136,1.633-1.387,5.429,1.548,5.2s25.912-6.3,32.732-6.57a32.174,32.174,0,0,1,16.544,4.061c3.441,1.925,3.411,2.068,4.636-1.334s-2.69-7.217-2.69-7.217,3.519-12.7,5.153-21Z" transform="translate(-200.964 -164.699)" fill="#455a64"/>
              <g id="Group_226" data-name="Group 226" transform="translate(8.074 19.202)">
                <path id="Path_300" data-name="Path 300" d="M227.972,205.021a3.193,3.193,0,0,1-.515-.552l-1.32-1.57a45.167,45.167,0,0,0-4.663-4.864,22.512,22.512,0,0,0-2.968-2.2,16.683,16.683,0,0,0-2.7-1.336c-1.608-.614-2.679-.764-2.665-.836a3.174,3.174,0,0,1,.751.084,6.109,6.109,0,0,1,.869.184,9.672,9.672,0,0,1,1.129.338,15.238,15.238,0,0,1,2.781,1.292,20.949,20.949,0,0,1,3.03,2.214,37.043,37.043,0,0,1,4.626,4.971c.535.684.958,1.245,1.237,1.641A3.133,3.133,0,0,1,227.972,205.021Z" transform="translate(-213.14 -193.654)" fill="#263238"/>
              </g>
              <g id="Group_227" data-name="Group 227" transform="translate(0.028 45.325)">
                <path id="Path_301" data-name="Path 301" d="M220.915,236.621a3.618,3.618,0,0,1-.8.064c-.517.019-1.265.029-2.19.021a53.293,53.293,0,0,1-7.213-.532,32.3,32.3,0,0,1-7-1.823,20.4,20.4,0,0,1-2-.9,3.582,3.582,0,0,1-.7-.4c.028-.056,1.052.452,2.785,1.074a37.258,37.258,0,0,0,6.969,1.71,69.369,69.369,0,0,0,7.168.629l2.185.089A3.6,3.6,0,0,1,220.915,236.621Z" transform="translate(-201.006 -233.045)" fill="#263238"/>
              </g>
              <g id="Group_228" data-name="Group 228" transform="translate(43.737 55.125)">
                <path id="Path_302" data-name="Path 302" d="M277.554,247.822a1.7,1.7,0,0,1-.237.492,12.542,12.542,0,0,1-.815,1.241,18.08,18.08,0,0,1-7.649,5.973,12.374,12.374,0,0,1-1.4.489,1.681,1.681,0,0,1-.535.111c-.017-.056.714-.3,1.839-.824a20.994,20.994,0,0,0,7.554-5.9C277.086,248.442,277.5,247.792,277.554,247.822Z" transform="translate(-266.916 -247.821)" fill="#263238"/>
              </g>
              <g id="Group_229" data-name="Group 229" transform="translate(45.982 60.215)">
                <path id="Path_303" data-name="Path 303" d="M278.99,255.5a4.219,4.219,0,0,1-1.081.855,14.482,14.482,0,0,1-6.231,2.206,4.211,4.211,0,0,1-1.377.017,35.455,35.455,0,0,0,4.506-1.085A35.055,35.055,0,0,0,278.99,255.5Z" transform="translate(-270.3 -255.497)" fill="#263238"/>
              </g>
              <g id="Group_230" data-name="Group 230" transform="translate(66.659 13.817)">
                <path id="Path_304" data-name="Path 304" d="M308.588,185.534a1.817,1.817,0,0,1-.078.562,15.285,15.285,0,0,1-.391,1.491,22.769,22.769,0,0,1-5.085,8.738,15.285,15.285,0,0,1-1.1,1.077c-.275.239-.433.363-.45.346-.038-.041.532-.605,1.371-1.585a27.347,27.347,0,0,0,5.034-8.652C308.324,186.3,308.534,185.521,308.588,185.534Z" transform="translate(-301.479 -185.534)" fill="#263238"/>
              </g>
              <g id="Group_231" data-name="Group 231" transform="translate(66.997 34.57)">
                <path id="Path_305" data-name="Path 305" d="M312.937,217.281a7.092,7.092,0,0,1-1.606.125c-.993.028-2.366.028-3.88-.03s-2.883-.165-3.871-.269a7.113,7.113,0,0,1-1.591-.249,7.816,7.816,0,0,1,1.609,0l3.867.167,3.867.131A7.844,7.844,0,0,1,312.937,217.281Z" transform="translate(-301.989 -216.827)" fill="#263238"/>
              </g>
              <g id="Group_232" data-name="Group 232" transform="translate(64.978 16.009)">
                <path id="Path_306" data-name="Path 306" d="M298.952,188.839a4.536,4.536,0,0,1,.228.876c.133.635.3,1.442.505,2.409.409,2.036,1,4.852,1.35,8.016a33.923,33.923,0,0,1-.04,8.135,24.02,24.02,0,0,1-.448,2.427,4.53,4.53,0,0,1-.247.871,4.578,4.578,0,0,1,.115-.9c.106-.57.22-1.4.337-2.429a38.054,38.054,0,0,0-.061-8.069c-.349-3.141-.9-5.959-1.247-8.007-.176-1.024-.316-1.854-.4-2.43A4.544,4.544,0,0,1,298.952,188.839Z" transform="translate(-298.945 -188.839)" fill="#263238"/>
              </g>
              <g id="Group_233" data-name="Group 233" transform="translate(18.891 32.864)">
                <path id="Path_307" data-name="Path 307" d="M233.465,214.254a3.279,3.279,0,0,1-.043.765c-.05.489-.136,1.2-.251,2.066-.233,1.742-.584,4.145-1.068,6.786a60.19,60.19,0,0,1-1.562,6.7,18.691,18.691,0,0,1-.718,1.962,3.22,3.22,0,0,1-.369.674c-.052-.025.412-1.006.852-2.7.464-1.688.974-4.058,1.457-6.692s.872-5.028,1.167-6.76l.359-2.049A3.237,3.237,0,0,1,233.465,214.254Z" transform="translate(-229.45 -214.254)" fill="#263238"/>
              </g>
              <g id="Group_234" data-name="Group 234" transform="translate(20.666 22.294)">
                <path id="Path_308" data-name="Path 308" d="M232.134,198.317a5.224,5.224,0,0,1,.662,1.3,24.4,24.4,0,0,1,1.724,6.821,5.235,5.235,0,0,1,.037,1.462c-.1.01-.311-2.205-.987-4.85S232.037,198.358,232.134,198.317Z" transform="translate(-232.127 -198.316)" fill="#263238"/>
              </g>
              <g id="Group_235" data-name="Group 235" transform="translate(35.857 16.673)">
                <path id="Path_309" data-name="Path 309" d="M258.62,218.983a2.209,2.209,0,0,1,.185-.379l.586-1.066,2.234-3.951,7.745-13.474.218.235c-1.958.952-4.074,1.893-6.288,2.771-2.669,1.058-5.3,1.952-7.75,2.676l-.518.153.344-.416,9.3-11.293,2.72-3.253.737-.859a2.086,2.086,0,0,1,.27-.285,1.949,1.949,0,0,1-.225.321l-.7.895c-.637.8-1.531,1.918-2.644,3.314l-9.209,11.37-.175-.263c2.442-.731,5.057-1.626,7.716-2.68,2.206-.875,4.316-1.809,6.269-2.752l.5-.239-.278.473-7.849,13.413-2.32,3.9c-.264.433-.475.777-.635,1.038A2.29,2.29,0,0,1,258.62,218.983Z" transform="translate(-255.033 -189.841)" fill="#fff"/>
              </g>
              <g id="Group_236" data-name="Group 236" transform="translate(44.753 56.251)" opacity="0.3">
                <path id="Path_310" data-name="Path 310" d="M275.033,257.235c.781.2,2.285-2.167,3.149-3.616-2.664,1.474-5.21,3.238-8.184,2.594a10.394,10.394,0,0,0,7.163-6.692,17.123,17.123,0,0,1-8.714,6.8S273.792,256.911,275.033,257.235Z" transform="translate(-268.447 -249.52)"/>
              </g>
            </g>
            <g id="Group_405" data-name="Group 405" transform="translate(34.307)">
              <g id="Group_238" data-name="Group 238" transform="translate(3.62 28.683)">
                <path id="Path_311" data-name="Path 311" d="M232.138,149.366c.013-.032.455.189,1.308.377a5.518,5.518,0,0,0,3.577-.351,4.294,4.294,0,0,0,1.8-1.678,3.207,3.207,0,0,0,.289-2.72,2.917,2.917,0,0,0-2.194-1.962,2.569,2.569,0,0,0-2.639,1.538,1.944,1.944,0,0,0,.062,1.587,2.66,2.66,0,0,0,1.122,1.139,3.025,3.025,0,0,0,1.513.39,3.732,3.732,0,0,0,1.482-.348,6.129,6.129,0,0,0,2.215-1.806,8.823,8.823,0,0,0,1.273-2.186,9.4,9.4,0,0,0,.693-3.6c-.012-.875-.109-1.356-.076-1.361a1.386,1.386,0,0,1,.09.344,7.4,7.4,0,0,1,.121,1.013,9.031,9.031,0,0,1-.6,3.7,8.917,8.917,0,0,1-1.274,2.273,6.371,6.371,0,0,1-2.309,1.919,4.041,4.041,0,0,1-1.608.388,3.352,3.352,0,0,1-1.683-.424,2.993,2.993,0,0,1-1.268-1.285,2.286,2.286,0,0,1-.073-1.865,2.9,2.9,0,0,1,3.011-1.745,3.229,3.229,0,0,1,2.444,2.191,3.5,3.5,0,0,1-.343,2.969,4.511,4.511,0,0,1-1.942,1.753,5.5,5.5,0,0,1-3.716.263,6.04,6.04,0,0,1-.964-.338A1.217,1.217,0,0,1,232.138,149.366Z" transform="translate(-232.138 -138.381)" fill="#263238"/>
              </g>
              <g id="Group_404" data-name="Group 404">
                <g id="Group_397" data-name="Group 397">
                  <g id="Group_242" data-name="Group 242" transform="translate(38.516 15.153)">
                    <path id="Path_312" data-name="Path 312" d="M301.857,127.9a9.5,9.5,0,0,0-2.5-7.451,8.021,8.021,0,0,0-7.414-2.279A9.627,9.627,0,0,0,286.9,120.8a5.186,5.186,0,0,0-1.028,1.464c-.043.084-.086.17-.127.257-.052.109-.1.219-.15.33-.007.019-.017.035-.024.054l0-.007a9.7,9.7,0,0,0-.585,5.976,9.129,9.129,0,0,0,5.985,6.554,8.483,8.483,0,0,0,8.54-2.161A9.114,9.114,0,0,0,301.857,127.9Z" transform="translate(-284.758 -117.98)" fill="#263238"/>
                    <g id="Group_239" data-name="Group 239" transform="translate(6.441 5.876)">
                      <path id="Path_313" data-name="Path 313" d="M303.938,135.306c-.06.012-.18-.752-.645-1.887a10.364,10.364,0,0,0-6.874-6.126c-1.182-.332-1.954-.362-1.949-.423a1.5,1.5,0,0,1,.544-.023,8.209,8.209,0,0,1,1.466.21,9.819,9.819,0,0,1,7.042,6.275,8.283,8.283,0,0,1,.377,1.432A1.525,1.525,0,0,1,303.938,135.306Z" transform="translate(-294.47 -126.84)" fill="#455a64"/>
                    </g>
                    <g id="Group_240" data-name="Group 240" transform="translate(5.561 9.103)">
                      <path id="Path_314" data-name="Path 314" d="M300.9,131.707a5.56,5.56,0,0,1-.607,1.558,13.1,13.1,0,0,1-5.6,5.69,5.559,5.559,0,0,1-1.548.632,16.774,16.774,0,0,0,7.758-7.88Z" transform="translate(-293.143 -131.706)" fill="#455a64"/>
                    </g>
                    <g id="Group_241" data-name="Group 241" transform="translate(6.154 0.025)">
                      <path id="Path_315" data-name="Path 315" d="M294.046,124.249c-.1-.058.693-1.337,1.354-3.025a14.591,14.591,0,0,0,.7-3.205,2.1,2.1,0,0,1,.115.985,7.194,7.194,0,0,1-.487,2.341A8.931,8.931,0,0,1,294.046,124.249Z" transform="translate(-294.037 -118.018)" fill="#ff725e"/>
                    </g>
                  </g>
                  <g id="Group_255" data-name="Group 255" transform="translate(14.034 3.507)">
                    <g id="Group_254" data-name="Group 254">
                      <g id="Group_253" data-name="Group 253">
                        <g id="Group_252" data-name="Group 252">
                          <g id="Group_251" data-name="Group 251">
                            <g id="Group_250" data-name="Group 250">
                              <g id="Group_249" data-name="Group 249">
                                <g id="Group_248" data-name="Group 248">
                                  <g id="Group_247" data-name="Group 247">
                                    <g id="Group_246" data-name="Group 246">
                                      <g id="Group_245" data-name="Group 245">
                                        <g id="Group_244" data-name="Group 244">
                                          <g id="Group_243" data-name="Group 243">
                                            <path id="Path_316" data-name="Path 316" d="M276.637,176.324Z" transform="translate(-257.539 -125.985)" fill="#ffbe9d"/>
                                            <path id="Path_317" data-name="Path 317" d="M278.586,116.009a14.975,14.975,0,0,0-13.293-15.514,14.543,14.543,0,0,0-16.113,13.371L247.843,146.6a2.856,2.856,0,0,0,.533,1.771,13.352,13.352,0,0,0,8.606,5.274,13.988,13.988,0,0,0,8.583-1.948,2.791,2.791,0,0,0,1.369-2.42l0-7.323a.047.047,0,0,1,.049-.049,9.986,9.986,0,0,0,2.051-.1c1.928-.508,6.827-2.5,8.346-9.771C277.881,129.629,278.311,122.8,278.586,116.009Z" transform="translate(-247.84 -100.418)" fill="#ffbe9d"/>
                                          </g>
                                          <path id="Path_318" data-name="Path 318" d="M278.228,134.961a8.7,8.7,0,0,1,2.116-.265c.332-.017.647-.066.712-.284a1.632,1.632,0,0,0-.177-.972q-.411-1.2-.863-2.519a42.069,42.069,0,0,1-1.9-6.571,42.407,42.407,0,0,1,2.429,6.409q.43,1.325.821,2.531a1.856,1.856,0,0,1,.113,1.282.818.818,0,0,1-.564.446,2.294,2.294,0,0,1-.564.048A8.588,8.588,0,0,1,278.228,134.961Z" transform="translate(-258.034 -108.479)" fill="#263238"/>
                                        </g>
                                      </g>
                                    </g>
                                  </g>
                                </g>
                              </g>
                            </g>
                          </g>
                        </g>
                      </g>
                    </g>
                  </g>
                  <g id="Group_277" data-name="Group 277" transform="translate(38.311 20.169)">
                    <g id="Group_265" data-name="Group 265" transform="translate(0.917 2.683)">
                      <g id="Group_264" data-name="Group 264">
                        <g id="Group_263" data-name="Group 263">
                          <g id="Group_262" data-name="Group 262">
                            <g id="Group_261" data-name="Group 261">
                              <g id="Group_260" data-name="Group 260">
                                <g id="Group_259" data-name="Group 259">
                                  <g id="Group_258" data-name="Group 258">
                                    <g id="Group_257" data-name="Group 257">
                                      <g id="Group_256" data-name="Group 256">
                                        <path id="Path_319" data-name="Path 319" d="M288.231,130.716a1.183,1.183,0,0,1-1.212,1.132,1.151,1.151,0,0,1-1.19-1.127,1.184,1.184,0,0,1,1.211-1.133A1.152,1.152,0,0,1,288.231,130.716Z" transform="translate(-285.83 -129.588)" fill="#263238"/>
                                      </g>
                                    </g>
                                  </g>
                                </g>
                              </g>
                            </g>
                          </g>
                        </g>
                      </g>
                    </g>
                    <g id="Group_276" data-name="Group 276">
                      <g id="Group_275" data-name="Group 275">
                        <g id="Group_274" data-name="Group 274">
                          <g id="Group_273" data-name="Group 273">
                            <g id="Group_272" data-name="Group 272">
                              <g id="Group_271" data-name="Group 271">
                                <g id="Group_270" data-name="Group 270">
                                  <g id="Group_269" data-name="Group 269">
                                    <g id="Group_268" data-name="Group 268">
                                      <g id="Group_267" data-name="Group 267">
                                        <g id="Group_266" data-name="Group 266">
                                          <path id="Path_320" data-name="Path 320" d="M288.959,125.75c-.118.13-1.08.068-2.305.483s-2.027,1.056-2.182,1.017c-.076-.015.026-.211.373-.5a5.526,5.526,0,0,1,1.72-.916,4.977,4.977,0,0,1,1.863-.282C288.848,125.585,289.018,125.69,288.959,125.75Z" transform="translate(-284.447 -125.543)" fill="#263238"/>
                                        </g>
                                      </g>
                                    </g>
                                  </g>
                                </g>
                              </g>
                            </g>
                          </g>
                        </g>
                      </g>
                    </g>
                  </g>
                  <g id="Group_299" data-name="Group 299" transform="translate(24.999 19.11)">
                    <g id="Group_287" data-name="Group 287" transform="translate(1.788 2.927)">
                      <g id="Group_286" data-name="Group 286">
                        <g id="Group_285" data-name="Group 285">
                          <g id="Group_284" data-name="Group 284">
                            <g id="Group_283" data-name="Group 283">
                              <g id="Group_282" data-name="Group 282">
                                <g id="Group_281" data-name="Group 281">
                                  <g id="Group_280" data-name="Group 280">
                                    <g id="Group_279" data-name="Group 279">
                                      <g id="Group_278" data-name="Group 278">
                                        <path id="Path_321" data-name="Path 321" d="M269.472,129.487a1.183,1.183,0,0,1-1.212,1.132,1.149,1.149,0,0,1-1.189-1.127,1.183,1.183,0,0,1,1.211-1.133A1.149,1.149,0,0,1,269.472,129.487Z" transform="translate(-267.071 -128.36)" fill="#263238"/>
                                      </g>
                                    </g>
                                  </g>
                                </g>
                              </g>
                            </g>
                          </g>
                        </g>
                      </g>
                    </g>
                    <g id="Group_298" data-name="Group 298">
                      <g id="Group_297" data-name="Group 297">
                        <g id="Group_296" data-name="Group 296">
                          <g id="Group_295" data-name="Group 295">
                            <g id="Group_294" data-name="Group 294">
                              <g id="Group_293" data-name="Group 293">
                                <g id="Group_292" data-name="Group 292">
                                  <g id="Group_291" data-name="Group 291">
                                    <g id="Group_290" data-name="Group 290">
                                      <g id="Group_289" data-name="Group 289">
                                        <g id="Group_288" data-name="Group 288">
                                          <path id="Path_322" data-name="Path 322" d="M268.986,126.274c-.188.009-.893-.753-2.152-1.354s-2.36-.721-2.453-.865c-.048-.067.176-.138.661-.095a6.182,6.182,0,0,1,2.017.6,5.538,5.538,0,0,1,1.659,1.175C269.021,126.068,269.075,126.273,268.986,126.274Z" transform="translate(-264.374 -123.946)" fill="#263238"/>
                                        </g>
                                      </g>
                                    </g>
                                  </g>
                                </g>
                              </g>
                            </g>
                          </g>
                        </g>
                      </g>
                    </g>
                  </g>
                  <g id="Group_310" data-name="Group 310" transform="translate(22.046 41.139)">
                    <g id="Group_309" data-name="Group 309">
                      <g id="Group_308" data-name="Group 308">
                        <g id="Group_307" data-name="Group 307">
                          <g id="Group_306" data-name="Group 306">
                            <g id="Group_305" data-name="Group 305">
                              <g id="Group_304" data-name="Group 304">
                                <g id="Group_303" data-name="Group 303">
                                  <g id="Group_302" data-name="Group 302">
                                    <g id="Group_301" data-name="Group 301">
                                      <g id="Group_300" data-name="Group 300">
                                        <path id="Path_323" data-name="Path 323" d="M271,161.018s-5.007.149-11.078-3.855c0,0,1.673,6.583,11.082,6.2Z" transform="translate(-259.922 -157.163)" fill="#eb996e"/>
                                      </g>
                                    </g>
                                  </g>
                                </g>
                              </g>
                            </g>
                          </g>
                        </g>
                      </g>
                    </g>
                  </g>
                  <g id="Group_321" data-name="Group 321" transform="translate(29.65 32.062)">
                    <g id="Group_320" data-name="Group 320">
                      <g id="Group_319" data-name="Group 319">
                        <g id="Group_318" data-name="Group 318">
                          <g id="Group_317" data-name="Group 317">
                            <g id="Group_316" data-name="Group 316">
                              <g id="Group_315" data-name="Group 315">
                                <g id="Group_314" data-name="Group 314">
                                  <g id="Group_313" data-name="Group 313">
                                    <g id="Group_312" data-name="Group 312">
                                      <g id="Group_311" data-name="Group 311">
                                        <path id="Path_324" data-name="Path 324" d="M275.279,144.436a2.363,2.363,0,0,0-2.049-.956,2.128,2.128,0,0,0-1.5.7,1.308,1.308,0,0,0-.172,1.509,1.59,1.59,0,0,0,1.675.507,4.875,4.875,0,0,0,1.7-.885,1.412,1.412,0,0,0,.387-.357.418.418,0,0,0,.019-.473" transform="translate(-271.387 -143.477)" fill="#eb996e"/>
                                      </g>
                                    </g>
                                  </g>
                                </g>
                              </g>
                            </g>
                          </g>
                        </g>
                      </g>
                    </g>
                  </g>
                  <g id="Group_333" data-name="Group 333" transform="translate(30.142 30.674)">
                    <g id="Group_332" data-name="Group 332">
                      <g id="Group_331" data-name="Group 331">
                        <g id="Group_330" data-name="Group 330">
                          <g id="Group_329" data-name="Group 329">
                            <g id="Group_328" data-name="Group 328">
                              <g id="Group_327" data-name="Group 327">
                                <g id="Group_326" data-name="Group 326">
                                  <g id="Group_325" data-name="Group 325">
                                    <g id="Group_324" data-name="Group 324">
                                      <g id="Group_323" data-name="Group 323">
                                        <g id="Group_322" data-name="Group 322">
                                          <path id="Path_325" data-name="Path 325" d="M272.373,141.384c.211,0,.151,1.377,1.306,2.417s2.655.964,2.658,1.157c.015.088-.345.251-.977.235a3.556,3.556,0,0,1-2.222-.887,3,3,0,0,1-1.005-2.022C272.105,141.7,272.278,141.371,272.373,141.384Z" transform="translate(-272.13 -141.383)" fill="#263238"/>
                                        </g>
                                      </g>
                                    </g>
                                  </g>
                                </g>
                              </g>
                            </g>
                          </g>
                        </g>
                      </g>
                    </g>
                  </g>
                  <g id="Group_342" data-name="Group 342" transform="translate(24.571 14.864)">
                    <g id="Group_341" data-name="Group 341">
                      <g id="Group_340" data-name="Group 340">
                        <g id="Group_339" data-name="Group 339">
                          <g id="Group_338" data-name="Group 338">
                            <g id="Group_337" data-name="Group 337">
                              <g id="Group_336" data-name="Group 336">
                                <g id="Group_335" data-name="Group 335">
                                  <g id="Group_334" data-name="Group 334">
                                    <path id="Path_326" data-name="Path 326" d="M269.64,118.989c-.182.319-1.428-.064-2.953-.146-1.525-.113-2.8.108-2.949-.232-.064-.162.2-.446.743-.691a5.217,5.217,0,0,1,4.5.288C269.491,118.521,269.722,118.837,269.64,118.989Z" transform="translate(-263.729 -117.543)" fill="#263238"/>
                                  </g>
                                </g>
                              </g>
                            </g>
                          </g>
                        </g>
                      </g>
                    </g>
                  </g>
                  <g id="Group_351" data-name="Group 351" transform="translate(38.408 15.074)">
                    <g id="Group_350" data-name="Group 350">
                      <g id="Group_349" data-name="Group 349">
                        <g id="Group_348" data-name="Group 348">
                          <g id="Group_347" data-name="Group 347">
                            <g id="Group_346" data-name="Group 346">
                              <g id="Group_345" data-name="Group 345">
                                <g id="Group_344" data-name="Group 344">
                                  <g id="Group_343" data-name="Group 343">
                                    <path id="Path_327" data-name="Path 327" d="M288.984,119.294c-.241.277-1.117-.068-2.187-.136-1.067-.105-1.985.094-2.18-.219-.085-.151.071-.433.479-.686a3.219,3.219,0,0,1,3.519.286C288.98,118.855,289.09,119.158,288.984,119.294Z" transform="translate(-284.594 -117.86)" fill="#263238"/>
                                  </g>
                                </g>
                              </g>
                            </g>
                          </g>
                        </g>
                      </g>
                    </g>
                  </g>
                  <g id="Group_396" data-name="Group 396">
                    <path id="Path_328" data-name="Path 328" d="M265.172,97.056a4.388,4.388,0,0,0-3.37-1.824c-5.743-.76-12.073,2.809-15.191,7.691s-3.155,12.08-.706,17.33l2.155.336c4.47-.351,11.763-12.959,17.908-19.963C266.731,99.756,265.778,98.043,265.172,97.056Z" transform="translate(-232.567 -95.13)" fill="#263238"/>
                    <path id="Path_329" data-name="Path 329" d="M286.634,101.075c-2.446-2.68-6.4-5.931-11.34-3.944-.706,1.407.8,3.186,2.055,4.219,1.834,1.513,3.429,2.528,4.634,3.613,2.436,2.193,5.47,5.841,5.782,9.941.019.257.217.291.475.247.334-.058,1.074-1.749,1.426-3.986C290.418,106.395,289.08,103.755,286.634,101.075Z" transform="translate(-242.992 -95.598)" fill="#263238"/>
                    <path id="Path_330" data-name="Path 330" d="M242.521,119.439a7.166,7.166,0,0,0-1.507-2.975h0a6.847,6.847,0,0,0-1.675-1.443,8.021,8.021,0,0,0-7.755-.114,9.5,9.5,0,0,0-4.673,6.319,9.1,9.1,0,0,0,.576,5.827,8.485,8.485,0,0,0,7.459,4.686,9.129,9.129,0,0,0,7.713-4.393C243.783,125.474,243.488,122.17,242.521,119.439Z" transform="translate(-226.679 -101.474)" fill="#263238"/>
                    <g id="Group_385" data-name="Group 385" transform="translate(11.164 22.418)">
                      <g id="Group_367" data-name="Group 367">
                        <g id="Group_366" data-name="Group 366">
                          <g id="Group_365" data-name="Group 365">
                            <g id="Group_364" data-name="Group 364">
                              <g id="Group_363" data-name="Group 363">
                                <g id="Group_362" data-name="Group 362">
                                  <g id="Group_361" data-name="Group 361">
                                    <g id="Group_360" data-name="Group 360">
                                      <g id="Group_359" data-name="Group 359">
                                        <g id="Group_358" data-name="Group 358">
                                          <g id="Group_357" data-name="Group 357">
                                            <g id="Group_356" data-name="Group 356">
                                              <g id="Group_355" data-name="Group 355">
                                                <g id="Group_354" data-name="Group 354">
                                                  <g id="Group_353" data-name="Group 353">
                                                    <g id="Group_352" data-name="Group 352">
                                                      <path id="Path_331" data-name="Path 331" d="M249.215,129.337c-.134-.07-5.464-2.064-5.7,3.508s5.41,4.655,5.425,4.5S249.215,129.337,249.215,129.337Z" transform="translate(-243.512 -128.934)" fill="#ffbe9d"/>
                                                    </g>
                                                  </g>
                                                </g>
                                              </g>
                                            </g>
                                          </g>
                                        </g>
                                      </g>
                                    </g>
                                  </g>
                                </g>
                              </g>
                            </g>
                          </g>
                        </g>
                      </g>
                      <g id="Group_384" data-name="Group 384" transform="translate(1.414 1.773)">
                        <g id="Group_383" data-name="Group 383">
                          <g id="Group_382" data-name="Group 382">
                            <g id="Group_381" data-name="Group 381">
                              <g id="Group_380" data-name="Group 380">
                                <g id="Group_379" data-name="Group 379">
                                  <g id="Group_378" data-name="Group 378">
                                    <g id="Group_377" data-name="Group 377">
                                      <g id="Group_376" data-name="Group 376">
                                        <g id="Group_375" data-name="Group 375">
                                          <g id="Group_374" data-name="Group 374">
                                            <g id="Group_373" data-name="Group 373">
                                              <g id="Group_372" data-name="Group 372">
                                                <g id="Group_371" data-name="Group 371">
                                                  <g id="Group_370" data-name="Group 370">
                                                    <g id="Group_369" data-name="Group 369">
                                                      <g id="Group_368" data-name="Group 368">
                                                        <path id="Path_332" data-name="Path 332" d="M248.049,136.06c-.024-.019-.1.064-.267.132a.973.973,0,0,1-.726-.015,2.4,2.4,0,0,1-1.022-2.2,3.212,3.212,0,0,1,.33-1.378,1.123,1.123,0,0,1,.761-.715.494.494,0,0,1,.562.29c.068.159.028.269.057.28s.124-.089.088-.32a.621.621,0,0,0-.2-.358.732.732,0,0,0-.531-.164,1.365,1.365,0,0,0-1.05.822,3.3,3.3,0,0,0-.4,1.539,2.522,2.522,0,0,0,1.316,2.465,1.04,1.04,0,0,0,.894-.111C248.034,136.194,248.067,136.07,248.049,136.06Z" transform="translate(-245.645 -131.607)" fill="#eb996e"/>
                                                      </g>
                                                    </g>
                                                  </g>
                                                </g>
                                              </g>
                                            </g>
                                          </g>
                                        </g>
                                      </g>
                                    </g>
                                  </g>
                                </g>
                              </g>
                            </g>
                          </g>
                        </g>
                      </g>
                    </g>
                    <g id="Group_386" data-name="Group 386" transform="translate(33.818 5.26)">
                      <path id="Path_333" data-name="Path 333" d="M288.641,104.4a6.164,6.164,0,0,1-1.623.214,22.844,22.844,0,0,1-7.819-.944,6.122,6.122,0,0,1-1.526-.594,10.2,10.2,0,0,1,1.59.359,32.051,32.051,0,0,0,7.748.936A10.107,10.107,0,0,1,288.641,104.4Z" transform="translate(-277.673 -103.062)" fill="#455a64"/>
                    </g>
                    <g id="Group_387" data-name="Group 387" transform="translate(38.661 8.835)">
                      <path id="Path_334" data-name="Path 334" d="M292.979,110.206a3.231,3.231,0,0,1-1.212.287,9.374,9.374,0,0,1-5.807-1.269,3.2,3.2,0,0,1-.982-.767,12.714,12.714,0,0,0,8,1.748Z" transform="translate(-284.976 -108.452)" fill="#455a64"/>
                    </g>
                    <g id="Group_388" data-name="Group 388" transform="translate(13.336 3.254)">
                      <path id="Path_335" data-name="Path 335" d="M246.788,106.477c.009-.07,1.208.144,3.153.09a23.848,23.848,0,0,0,3.391-.348,30.962,30.962,0,0,0,4.043-1.047,33.4,33.4,0,0,0,3.856-1.613,30.535,30.535,0,0,0,2.962-1.7c1.63-1.066,2.54-1.867,2.582-1.818a4.05,4.05,0,0,1-.611.594,9.874,9.874,0,0,1-.769.638c-.307.241-.655.517-1.065.788a26.542,26.542,0,0,1-2.953,1.784,30.665,30.665,0,0,1-3.889,1.657,28.538,28.538,0,0,1-4.1,1.033,21.4,21.4,0,0,1-3.442.278,12.074,12.074,0,0,1-1.326-.052,7.624,7.624,0,0,1-.995-.111A3.923,3.923,0,0,1,246.788,106.477Z" transform="translate(-246.788 -100.037)" fill="#455a64"/>
                    </g>
                    <g id="Group_389" data-name="Group 389" transform="translate(14.156 5.207)">
                      <path id="Path_336" data-name="Path 336" d="M266.82,102.982a4.4,4.4,0,0,1-.444.775,10.34,10.34,0,0,1-.588.867c-.246.326-.506.715-.846,1.1a23.128,23.128,0,0,1-2.5,2.61,24.747,24.747,0,0,1-3.576,2.619,24.167,24.167,0,0,1-4.02,1.872,21.622,21.622,0,0,1-3.5.906c-.5.106-.972.136-1.377.186a9.23,9.23,0,0,1-1.045.074,4.379,4.379,0,0,1-.893-.007c0-.071,1.269-.1,3.27-.493a23.69,23.69,0,0,0,3.441-.966,25.6,25.6,0,0,0,3.951-1.87,26.246,26.246,0,0,0,3.542-2.561,25.586,25.586,0,0,0,2.529-2.529C266.09,104.025,266.763,102.944,266.82,102.982Z" transform="translate(-248.024 -102.982)" fill="#455a64"/>
                    </g>
                    <g id="Group_390" data-name="Group 390" transform="translate(29.235 0.063)">
                      <path id="Path_337" data-name="Path 337" d="M270.762,95.265a2.071,2.071,0,0,1,1.118.076,4.8,4.8,0,0,1,2.289,1.442,4.11,4.11,0,0,1,.465.639,3.361,3.361,0,0,1,.275.682,7.407,7.407,0,0,1,.315,1.172,1.689,1.689,0,0,1-.082,1.119c-.057-.007.009-.428-.157-1.07a10.445,10.445,0,0,0-.375-1.115,3.284,3.284,0,0,0-.267-.617,4.14,4.14,0,0,0-.431-.58,5.316,5.316,0,0,0-2.1-1.438C271.182,95.352,270.759,95.322,270.762,95.265Z" transform="translate(-270.762 -95.224)" fill="#455a64"/>
                    </g>
                    <g id="Group_391" data-name="Group 391" transform="translate(11.78 13.098)">
                      <path id="Path_338" data-name="Path 338" d="M247.193,124.119c-.056-.018.113-.576.229-1.495a9.632,9.632,0,0,0-.206-3.574,7.427,7.427,0,0,0-1.684-3.125c-.629-.674-1.124-.988-1.088-1.043.013-.02.144.044.372.181a4.952,4.952,0,0,1,.89.69,6.872,6.872,0,0,1,1.844,3.208,8.555,8.555,0,0,1,.113,3.7A4.153,4.153,0,0,1,247.193,124.119Z" transform="translate(-244.442 -114.88)" fill="#ff725e"/>
                    </g>
                    <g id="Group_392" data-name="Group 392" transform="translate(1.083 17.66)">
                      <path id="Path_339" data-name="Path 339" d="M242.176,125.208c-.033.049-.717-.393-1.889-.972a21.2,21.2,0,0,0-9.853-2.2c-1.306.026-2.114.135-2.122.077a1.846,1.846,0,0,1,.558-.139,12.782,12.782,0,0,1,1.554-.181,18.52,18.52,0,0,1,9.975,2.226,12.811,12.811,0,0,1,1.33.824C242.03,125.06,242.189,125.188,242.176,125.208Z" transform="translate(-228.312 -121.76)" fill="#455a64"/>
                    </g>
                    <g id="Group_393" data-name="Group 393" transform="translate(3.461 18.897)">
                      <path id="Path_340" data-name="Path 340" d="M238.312,123.625a5.728,5.728,0,0,1-.416,1.634,15.574,15.574,0,0,1-4.609,6.633,5.693,5.693,0,0,1-1.386.96,26.934,26.934,0,0,0,3.844-4.171A26.848,26.848,0,0,0,238.312,123.625Z" transform="translate(-231.898 -123.624)" fill="#455a64"/>
                    </g>
                    <g id="Group_394" data-name="Group 394" transform="translate(10.322 29.592)">
                      <path id="Path_341" data-name="Path 341" d="M245.465,139.875c.04-.107.241-.168.572-.082a2.145,2.145,0,0,1,1.167.869,2.605,2.605,0,0,1-.609,3.518,2.739,2.739,0,0,1-3.067.08,2.844,2.844,0,0,1-.968-1.064,2.517,2.517,0,0,1-.077-2.3,1.991,1.991,0,0,1,1.021-1.081c.354-.13.566-.041.592.065.04.239-.378.559-.446,1.375a1.906,1.906,0,0,0,.022.6,1.634,1.634,0,0,0,.259.537,1.3,1.3,0,0,0,1.095.575,1.089,1.089,0,0,0,.985-.594,1.51,1.51,0,0,0,.112-1.137C245.907,140.493,245.367,140.1,245.465,139.875Z" transform="translate(-242.243 -139.751)" fill="#455a64"/>
                    </g>
                    <g id="Group_395" data-name="Group 395" transform="translate(19.189 5.063)">
                      <path id="Path_342" data-name="Path 342" d="M255.613,118.6a15.9,15.9,0,0,0,3.355-.59,14.21,14.21,0,0,0,6.622-4.648,22.308,22.308,0,0,0,3.718-7.3c.316-1.009.533-1.84.678-2.415a5.209,5.209,0,0,1,.253-.889,4.369,4.369,0,0,1-.123.917c-.1.586-.286,1.429-.575,2.456a21.039,21.039,0,0,1-3.683,7.445,13.865,13.865,0,0,1-6.821,4.665,10.046,10.046,0,0,1-2.5.4,5.809,5.809,0,0,1-.687-.013C255.694,118.627,255.612,118.616,255.613,118.6Z" transform="translate(-255.613 -102.765)" fill="#263238"/>
                    </g>
                  </g>
                </g>
                <g id="Group_398" data-name="Group 398" transform="translate(12.617 48.186)">
                  <path id="Path_343" data-name="Path 343" d="M266.03,169.511a1.227,1.227,0,0,1,.334.171,3.227,3.227,0,0,1,.79.734,4.052,4.052,0,0,1,.731,1.545,4.318,4.318,0,0,1-.06,2.265,6.6,6.6,0,0,1-4.065,4.061,13.834,13.834,0,0,1-3.369.822,20.336,20.336,0,0,1-3.712.15,13.44,13.44,0,0,1-6.8-2.144,9.913,9.913,0,0,1-3.725-4.466,5.619,5.619,0,0,1-.448-2.219,3.4,3.4,0,0,1,.452-1.649,2.608,2.608,0,0,1,.716-.808.984.984,0,0,1,.329-.181,3.2,3.2,0,0,0-.927,1.055,3.339,3.339,0,0,0-.376,1.586,5.522,5.522,0,0,0,.481,2.123,9.809,9.809,0,0,0,3.676,4.295,13.3,13.3,0,0,0,6.642,2.064,20.4,20.4,0,0,0,3.649-.14,13.716,13.716,0,0,0,3.295-.783,6.391,6.391,0,0,0,3.948-3.836,4.192,4.192,0,0,0-.544-3.658A4.7,4.7,0,0,0,266.03,169.511Z" transform="translate(-245.704 -167.79)" fill="#263238"/>
                </g>
                <g id="Group_399" data-name="Group 399" transform="translate(18.298 55.743)">
                  <path id="Path_344" data-name="Path 344" d="M254.323,181.949a2.159,2.159,0,0,1,.324-1.586c.426-.82,1.068-1.243,1.119-1.169.067.076-.426.578-.814,1.33S254.423,181.961,254.323,181.949Z" transform="translate(-254.27 -179.185)" fill="#263238"/>
                </g>
                <g id="Group_400" data-name="Group 400" transform="translate(24.416 56.909)">
                  <ellipse id="Ellipse_56" data-name="Ellipse 56" cx="1.385" cy="0.172" rx="1.385" ry="0.172" transform="translate(0.453 0.013) rotate(92.235)" fill="#263238"/>
                </g>
                <g id="Group_401" data-name="Group 401" transform="translate(30.015 55.652)">
                  <ellipse id="Ellipse_57" data-name="Ellipse 57" cx="1.572" cy="0.172" rx="1.572" ry="0.172" transform="translate(0.338) rotate(78.399)" fill="#263238"/>
                </g>
                <g id="Group_402" data-name="Group 402" transform="translate(32.856 53.647)">
                  <path id="Path_345" data-name="Path 345" d="M277.835,177.162c-.088.046-.348-.3-.778-.58s-.844-.394-.836-.493.517-.136,1.027.2S277.922,177.129,277.835,177.162Z" transform="translate(-276.222 -176.024)" fill="#263238"/>
                </g>
                <g id="Group_403" data-name="Group 403" transform="translate(13.659 52.252)">
                  <path id="Path_346" data-name="Path 346" d="M248.669,173.976c.015.1-.352.225-.7.512s-.566.607-.659.57,0-.494.444-.841S248.667,173.884,248.669,173.976Z" transform="translate(-247.276 -173.92)" fill="#263238"/>
                </g>
              </g>
            </g>
            <g id="Group_422" data-name="Group 422" transform="translate(20.197 80.376)">
              <g id="Group_414" data-name="Group 414" transform="translate(38.722)">
                <g id="Group_407" data-name="Group 407">
                  <path id="Path_347" data-name="Path 347" d="M265.141,232.635a1.388,1.388,0,0,1-1.23-1.943,134.827,134.827,0,0,1,7-12.29c.459-.708.706-1.573,2.19-1.751.573-.069,9.528-.274,11.627-.321a1.3,1.3,0,0,1,.932.343,1.769,1.769,0,0,1,.191,2.34c-.745,1.338-6.154,9.729-8.353,12.968a2.261,2.261,0,0,1-1.944.988Z" transform="translate(-263.791 -216.329)" fill="#263238"/>
                  <path id="Path_348" data-name="Path 348" d="M285.868,220.578a.637.637,0,0,0-.715-.2,1.508,1.508,0,0,0-.629.4.558.558,0,0,0-.131.7.662.662,0,0,0,.6.2,1.126,1.126,0,0,0,.746-.337A.7.7,0,0,0,285.868,220.578Z" transform="translate(-270.705 -217.682)" fill="#fff"/>
                  <g id="Group_406" data-name="Group 406" transform="translate(5.985 0.951)">
                    <path id="Path_349" data-name="Path 349" d="M286.6,221.535a4.034,4.034,0,0,1,.348-.774l.452-.884q.136-.262.287-.55a1.353,1.353,0,0,0,.225-.59.685.685,0,0,0-.273-.557.939.939,0,0,0-.7-.122l-1.828.075-4.187.149-4.189.121-.466.013a.661.661,0,0,0-.345.137,3.828,3.828,0,0,0-.478.682l-.859,1.342-1.264,1.93a4.044,4.044,0,0,1-.5.683,3.972,3.972,0,0,1,.389-.754l1.171-1.989.823-1.365.227-.373a1.314,1.314,0,0,1,.305-.395.966.966,0,0,1,.5-.21l.487-.021,4.189-.149,4.188-.121,1.828-.042a1.2,1.2,0,0,1,.877.2.932.932,0,0,1,.352.776.9.9,0,0,1-.108.391l-.168.3-.31.536-.5.856A4.048,4.048,0,0,1,286.6,221.535Z" transform="translate(-272.816 -217.764)" fill="#455a64"/>
                  </g>
                </g>
                <g id="Group_413" data-name="Group 413" transform="translate(7.088 3.339)">
                  <path id="Path_350" data-name="Path 350" d="M302.165,221.738s-.909,6.317-1.84,10.374c-.83,3.615-2.145,15.827-5.5,17.367s-7.538.578-9.086-2.4-3.2-10.907-3.2-10.907l-7.026-2.958s-1.617-5.892-.7-6.555,9.991.332,9.991.332l2.434-.553s-3.87-.553-4.7-.775a1.41,1.41,0,0,1-1.182-1.659c.2-.775.351-1.548,2.452-1.548s5.382-.314,5.974-.111c.739.255,1.578.684,1.743,2.545a22.444,22.444,0,0,1-.716,5.317l.191.293,1.239-9.139Z" transform="translate(-274.495 -221.364)" fill="#ffbe9d"/>
                  <g id="Group_408" data-name="Group 408" transform="translate(0.77 10.187)">
                    <path id="Path_351" data-name="Path 351" d="M290.735,237.817a2.117,2.117,0,0,1-.569.227,15.542,15.542,0,0,1-1.611.434,19.932,19.932,0,0,1-5.486.42,18.64,18.64,0,0,1-5.378-1.173,13.792,13.792,0,0,1-1.524-.679,2.063,2.063,0,0,1-.525-.317c.026-.054.811.319,2.132.766a21.373,21.373,0,0,0,5.318,1.058,23.17,23.17,0,0,0,5.417-.316C289.882,238,290.718,237.761,290.735,237.817Z" transform="translate(-275.641 -236.725)" fill="#eb996e"/>
                  </g>
                  <g id="Group_409" data-name="Group 409" transform="translate(0 6.687)">
                    <path id="Path_352" data-name="Path 352" d="M289.012,233.505a1.964,1.964,0,0,1-.57.182c-.373.093-.916.209-1.594.32a20.654,20.654,0,0,1-5.369.2,14.429,14.429,0,0,1-5.161-1.495,10.061,10.061,0,0,1-1.387-.862c-.308-.233-.462-.38-.45-.4.036-.05.714.466,1.944,1.041a15.958,15.958,0,0,0,5.089,1.37,24.41,24.41,0,0,0,5.3-.1C288.168,233.605,289,233.453,289.012,233.505Z" transform="translate(-274.48 -231.448)" fill="#eb996e"/>
                  </g>
                  <g id="Group_410" data-name="Group 410" transform="translate(12.735 2.227)">
                    <path id="Path_353" data-name="Path 353" d="M297.671,224.722c.041-.011.167.308.139.85a2.044,2.044,0,0,1-.262.934,1.153,1.153,0,0,1-.451.41,3.06,3.06,0,0,1-.556.246,8.165,8.165,0,0,1-2.024.346,5.572,5.572,0,0,1-.832.064c-.023-.044.279-.214.8-.306a14.648,14.648,0,0,0,1.946-.43,1.693,1.693,0,0,0,.85-.5,2.092,2.092,0,0,0,.286-.788A7.159,7.159,0,0,1,297.671,224.722Z" transform="translate(-293.683 -224.722)" fill="#eb996e"/>
                  </g>
                  <g id="Group_411" data-name="Group 411" transform="translate(7.572 12.849)">
                    <path id="Path_354" data-name="Path 354" d="M291.711,240.74a1.373,1.373,0,0,1,.007,1.149,2.507,2.507,0,0,1-.711,1.063,2.879,2.879,0,0,1-1.421.655,3.731,3.731,0,0,1-1.552-.069,5.818,5.818,0,0,1-1.155-.471,5.457,5.457,0,0,1-.98-.561,2.862,2.862,0,0,1,1.082.34,4.42,4.42,0,0,0,2.547.422,2.75,2.75,0,0,0,1.274-.558,2.461,2.461,0,0,0,.688-.908A4.274,4.274,0,0,0,291.711,240.74Z" transform="translate(-285.898 -240.739)" fill="#eb996e"/>
                  </g>
                  <g id="Group_412" data-name="Group 412" transform="translate(16.134 1.589)">
                    <path id="Path_355" data-name="Path 355" d="M298.983,223.761c.006-.008.048.017.129.074a1.247,1.247,0,0,1,.278.326,3.582,3.582,0,0,1,.4,1.531,18.847,18.847,0,0,1-.641,5.364l0-.1a17.217,17.217,0,0,0,1.257,2.618,29.057,29.057,0,0,0,2.281,3.33,14.774,14.774,0,0,1,1.966,2.7,3.052,3.052,0,0,1,.192,2.246,1.855,1.855,0,0,1-.294.548c-.092.109-.149.156-.156.15a4.072,4.072,0,0,0,.321-.736,3.026,3.026,0,0,0-.284-2.1,15.953,15.953,0,0,0-1.995-2.606,26.7,26.7,0,0,1-2.331-3.355,16.5,16.5,0,0,1-1.271-2.679l-.017-.048.013-.051a20.911,20.911,0,0,0,.753-5.269,3.836,3.836,0,0,0-.285-1.49A3.619,3.619,0,0,0,298.983,223.761Z" transform="translate(-298.809 -223.76)" fill="#eb996e"/>
                  </g>
                </g>
              </g>
              <g id="Group_421" data-name="Group 421" transform="translate(0 1.457)">
                <g id="Group_416" data-name="Group 416" transform="translate(0 7.522)">
                  <path id="Path_356" data-name="Path 356" d="M205.46,237.618s-1.026,14.1,5.528,16.46c9.041,3.26,19.349-5.748,19.388-5.893s10.968-8.947,10.968-8.947l-3.4-9.369a7.019,7.019,0,0,0-3.575,1.576c-.8.57-13.469,7.25-13.469,7.25S215.369,238.649,205.46,237.618Z" transform="translate(-205.402 -229.869)" fill="#ffbe9d"/>
                  <g id="Group_415" data-name="Group 415" transform="translate(5.625 8.611)">
                    <path id="Path_357" data-name="Path 357" d="M224.214,242.859c.044.106-2.342,1.074-5.224,2.366-1.439.653-2.708,1.308-3.616,1.806a10.491,10.491,0,0,1-1.488.784,6.685,6.685,0,0,1,1.365-.994,31.019,31.019,0,0,1,3.6-1.909c1.447-.66,2.789-1.177,3.763-1.537A8.176,8.176,0,0,1,224.214,242.859Z" transform="translate(-213.884 -242.853)" fill="#eb996e"/>
                  </g>
                </g>
                <path id="Path_358" data-name="Path 358" d="M266.157,220.944s-1.71-2.425-2.39-2.417-4.752.675-4.752.675l-5.762,6.251s-.4,2.039.849,2.775c0,0-.419,3.2,1.121,4.122,0,0,1.144,3.013,2.22,3.069a7.242,7.242,0,0,0,1.368,0s-.235,1.812,1.406,1.925a27.954,27.954,0,0,0,4.837-.486,1.809,1.809,0,0,0,1.178-.739l1.411-1.986a1.816,1.816,0,0,0-.006-2.112h0a4.794,4.794,0,0,0,.846-1.48,6.546,6.546,0,0,0,0-1.893s2.435-2.06,2.492-2.6-.056-1.054-1.132-.995c0,0-.227-1.667-1.586-1.625s-7.8,0-7.8,0l1.223-1.194s3.2,1.22,3.542.409Z" transform="translate(-221.499 -218.527)" fill="#ffbe9d"/>
                <g id="Group_417" data-name="Group 417" transform="translate(35.415 6.32)">
                  <path id="Path_359" data-name="Path 359" d="M258.8,231.366a7.608,7.608,0,0,1,1.044-.073c.673-.035,1.649-.095,2.855-.237a36.8,36.8,0,0,0,4.221-.749c.789-.19,1.614-.415,2.462-.683a6.1,6.1,0,0,0,2.227-1.483l.042-.038.046-.007a1.417,1.417,0,0,1,.938.09.752.752,0,0,1,.332.43,1.654,1.654,0,0,1,.063.482,1.088,1.088,0,0,1-.008.22.728.728,0,0,1-.1.245,3.263,3.263,0,0,1-.246.332c-.171.2-.352.389-.532.572-.363.363-.732.7-1.1,1.029l0,0-.006,0a44.715,44.715,0,0,1-3.97,2.823,10.068,10.068,0,0,1-3.679,1.31,7.251,7.251,0,0,1-2.586-.064,4.486,4.486,0,0,1-.669-.192.716.716,0,0,1-.22-.1,8.4,8.4,0,0,0,3.441.138,10.159,10.159,0,0,0,3.562-1.347c1.255-.751,2.519-1.788,3.919-2.841l-.011.008c.363-.322.73-.661,1.084-1.016.176-.178.351-.36.511-.55a3.153,3.153,0,0,0,.215-.289.534.534,0,0,0,.051-.111.8.8,0,0,0,0-.169c0-.283-.051-.527-.226-.621a1.122,1.122,0,0,0-.7-.049l.089-.044a11.21,11.21,0,0,1-1.108.912,3.835,3.835,0,0,1-1.258.637c-.858.265-1.692.485-2.491.666a33.616,33.616,0,0,1-4.266.681c-1.218.113-2.2.137-2.877.133-.338,0-.6-.011-.777-.021A.874.874,0,0,1,258.8,231.366Z" transform="translate(-258.804 -228.057)" fill="#eb996e"/>
                </g>
                <g id="Group_418" data-name="Group 418" transform="translate(38.721 10.121)">
                  <path id="Path_360" data-name="Path 360" d="M272.052,233.789a3.082,3.082,0,0,1,.139,1.009c.008.161.012.34.007.536,0,.1-.007.2-.017.306a1.006,1.006,0,0,1-.1.344,6.8,6.8,0,0,1-.332.634c-.065.107-.13.217-.2.328l-.106.168a1.01,1.01,0,0,1-.072.1.267.267,0,0,1-.047.04c-.029,0,.01.048-.159-.013a.16.16,0,0,1-.057-.184.189.189,0,0,1,.016-.034l.007-.012.028-.046.269.16a7.51,7.51,0,0,1-1.69,2.072,7.12,7.12,0,0,1-4.112,1.7,6.508,6.508,0,0,1-1.358-.038,1.393,1.393,0,0,1-.484-.118c.007-.066.708.054,1.818-.086a7.42,7.42,0,0,0,3.911-1.72,7.758,7.758,0,0,0,1.641-1.964l.269.16A9.062,9.062,0,0,0,272.052,233.789Z" transform="translate(-263.789 -233.789)" fill="#eb996e"/>
                </g>
                <g id="Group_419" data-name="Group 419" transform="translate(39.25 1.475)">
                  <path id="Path_361" data-name="Path 361" d="M265.675,223.041c-.025.074-.676-.167-.983-.938a1.674,1.674,0,0,1-.054-.99c.065-.244.155-.373.2-.361.107.024-.051.613.18,1.23S265.742,222.955,265.675,223.041Z" transform="translate(-264.587 -220.752)" fill="#eb996e"/>
                </g>
                <g id="Group_420" data-name="Group 420" transform="translate(31.472 7.025)">
                  <path id="Path_362" data-name="Path 362" d="M258.839,239.049a1,1,0,0,1-.509.121,2.837,2.837,0,0,1-1.408-.265,2.949,2.949,0,0,1-1.464-1.547,3.351,3.351,0,0,1-.24-1.243.553.553,0,0,0-.214-.447,2.571,2.571,0,0,1-1.166-2.143,8.434,8.434,0,0,1,.064-1.568l.074.143a2.4,2.4,0,0,1-1.115-2.1,1.358,1.358,0,0,1,.259-.874,5.611,5.611,0,0,0-.084.872,2.287,2.287,0,0,0,1.09,1.848l.081.047-.007.1a8.955,8.955,0,0,0-.029,1.512,2.663,2.663,0,0,0,.57,1.492,2.774,2.774,0,0,0,.483.416.9.9,0,0,1,.332.682,3.138,3.138,0,0,0,.2,1.154,2.773,2.773,0,0,0,1.279,1.448A3.847,3.847,0,0,0,258.839,239.049Z" transform="translate(-252.859 -229.12)" fill="#eb996e"/>
                </g>
              </g>
            </g>
            <g id="Group_423" data-name="Group 423" transform="translate(36.515 79.833)" opacity="0.3">
              <path id="Path_363" data-name="Path 363" d="M233.532,215.51a79.654,79.654,0,0,1-3.523,17.264,12.621,12.621,0,0,0,4.313-7.7C234.761,222.091,234.064,218.478,233.532,215.51Z" transform="translate(-230.009 -215.51)"/>
            </g>
            <g id="Group_424" data-name="Group 424" transform="translate(83.358 68.713)" opacity="0.3">
              <path id="Path_364" data-name="Path 364" d="M302.5,206a25.451,25.451,0,0,0-1.854-7.256,41.576,41.576,0,0,1,.347,15.112l.243-.539A13.839,13.839,0,0,0,302.5,206Z" transform="translate(-300.643 -198.742)"/>
            </g>
          </g>
        </g>
      </g>
    </g>
    <g id="Cloud_3-2" data-name="Cloud_3" transform="translate(739.473 1922.455)">
      <g id="Group_147-2" data-name="Group 147">
        <g id="Group_144-2" data-name="Group 144">
          <g id="Group_139-2" data-name="Group 139" transform="translate(28.789 41.768)">
            <path id="Path_227-2" data-name="Path 227" d="M400.437,102.209v11.216h-3.853l8.3,9.674,7.79-9.476h-3.937V102.209Z" transform="translate(-396.584 -102.209)" fill="#ff725e"/>
            <path id="Path_228-2" data-name="Path 228" d="M400.437,102.209v11.216h-3.853l8.3,9.674,7.79-9.476h-3.937V102.209Z" transform="translate(-396.584 -102.209)" opacity="0.3"/>
          </g>
          <path id="Path_229-2" data-name="Path 229" d="M412.9,55.974a22.3,22.3,0,0,0-39.027-8.364,18.547,18.547,0,1,0-2.148,36.968h40.393a14.312,14.312,0,0,0,.783-28.6Z" transform="translate(-353.173 -39.227)" fill="#ff725e"/>
          <g id="Group_140-2" data-name="Group 140" transform="translate(63.994 25.647)">
            <path id="Path_230-2" data-name="Path 230" d="M449.671,92.6c-.036-.052.767-.554,1.832-1.619a13.25,13.25,0,0,0,3.856-10.668c-.137-1.5-.433-2.4-.372-2.416a2.2,2.2,0,0,1,.241.619,10.815,10.815,0,0,1,.373,1.771,12.617,12.617,0,0,1-3.929,10.871,10.814,10.814,0,0,1-1.42,1.123A2.222,2.222,0,0,1,449.671,92.6Z" transform="translate(-449.67 -77.901)" fill="#263238"/>
          </g>
          <g id="Group_141-2" data-name="Group 141" transform="translate(5.403 13.305)">
            <path id="Path_231-2" data-name="Path 231" d="M377.127,59.793c-.012.064-1.023-.194-2.684-.233a14.716,14.716,0,0,0-11.47,5.018c-1.1,1.246-1.6,2.163-1.651,2.129a2.623,2.623,0,0,1,.321-.657,12.153,12.153,0,0,1,1.144-1.631,14.064,14.064,0,0,1,11.665-5.1,12.174,12.174,0,0,1,1.975.267A2.64,2.64,0,0,1,377.127,59.793Z" transform="translate(-361.32 -59.29)" fill="#263238"/>
          </g>
          <g id="Group_142-2" data-name="Group 142" transform="translate(23.601 4.623)">
            <path id="Path_232-2" data-name="Path 232" d="M398.9,46.221c0,.063-.735.11-1.879.411a12.519,12.519,0,0,0-7.282,5.288c-.639.994-.913,1.684-.972,1.659a1.547,1.547,0,0,1,.147-.5,7.979,7.979,0,0,1,.617-1.285,10.908,10.908,0,0,1,1.235-1.722,11.681,11.681,0,0,1,4.179-3.035,10.883,10.883,0,0,1,2.019-.642,8.049,8.049,0,0,1,1.413-.19A1.541,1.541,0,0,1,398.9,46.221Z" transform="translate(-388.762 -46.198)" fill="#263238"/>
          </g>
          <g id="Group_143-2" data-name="Group 143" transform="translate(26.747 45.022)">
            <ellipse id="Ellipse_37-2" data-name="Ellipse 37" cx="12.183" cy="0.172" rx="12.183" ry="0.172" fill="#263238"/>
          </g>
        </g>
        <g id="Group_145-2" data-name="Group 145" transform="translate(52.305 58.65)">
          <ellipse id="Ellipse_38-2" data-name="Ellipse 38" cx="0.173" cy="9.978" rx="0.173" ry="9.978" fill="#263238"/>
        </g>
        <g id="Group_146-2" data-name="Group 146" transform="translate(56.205 61.633)">
          <ellipse id="Ellipse_39-2" data-name="Ellipse 39" cx="0.173" cy="12.845" rx="0.173" ry="12.845" fill="#263238"/>
        </g>
      </g>
    </g>
    <g id="Group_480" data-name="Group 480" transform="translate(544.153 1943.178)">
      <g id="Group_121" data-name="Group 121" transform="translate(-12 38)">
        <g id="Group_120" data-name="Group 120">
          <path id="Path_218" data-name="Path 218" d="M131.359,87.868c.556-4.038-5.143-7.361-9.426-7.705-2.043-.164-4.163.148-6.1-.527-4.192-1.461-5.866-6.876-9.957-8.6-3.058-1.29-6.579-.141-9.543,1.35s-5.894,3.37-9.206,3.582c-2.881.184-6.01-.884-8.53.523C76.72,77.538,75.736,79.7,74,80.979c-1.694,1.249-3.9,1.514-6,1.628a16.924,16.924,0,0,0-6.191,1.011c-1.913.876-3.5,2.9-3.1,4.967Z" transform="translate(-58.649 -70.475)" fill="#d8d8d8"/>
        </g>
      </g>
    </g>
  </g>
</svg>
