<svg xmlns="http://www.w3.org/2000/svg" width="81.949" height="25.215" viewBox="0 0 81.949 25.215">
  <g id="Layer_2_1_" transform="translate(0 0.951)">
    <g id="Ebene_1" transform="translate(0 -0.951)">
      <path id="Path_8" data-name="Path 8" d="M396.5,245.245V245.2a.2.2,0,0,1,.174-.072c.3-.01.584-.01.881,0a.225.225,0,0,1,.174.072v.041Z" transform="translate(-355.899 -220.03)" fill="#eee"/>
      <path id="Path_9" data-name="Path 9" d="M216.406,162.891q-.614-.015-1.229,0c-.563-.031-1.126-.051-1.69-.092a29.341,29.341,0,0,1-4.434-.676,30.029,30.029,0,0,1-13.291-6.922c-.358-.317-.7-.645-1.044-.973a.754.754,0,0,1-.195-.276.377.377,0,0,1,.072-.41.362.362,0,0,1,.41-.092,2.156,2.156,0,0,1,.266.133,39.842,39.842,0,0,0,11.9,4.915,43.376,43.376,0,0,0,4.27.768,39.293,39.293,0,0,0,6.205.276,32.887,32.887,0,0,0,3.328-.276,40.234,40.234,0,0,0,7.6-1.731,35.831,35.831,0,0,0,3.809-1.495.855.855,0,0,1,.614-.082.636.636,0,0,1,.461.768.71.71,0,0,1-.051.133,1.122,1.122,0,0,1-.338.389,22.8,22.8,0,0,1-3.789,2.406,30.01,30.01,0,0,1-8.018,2.714A35.163,35.163,0,0,1,216.406,162.891Z" transform="translate(-174.577 -137.716)" fill="#eee"/>
      <path id="Path_10" data-name="Path 10" d="M199.543,34.624c.256-.154.522-.317.8-.461a4.577,4.577,0,0,1,2.324-.512,2.046,2.046,0,0,1,2.1,2.048c.01.113.01.225.01.348v5.3c0,.461-.061.522-.522.522H203a1.972,1.972,0,0,1-.246-.01.282.282,0,0,1-.246-.236,1.873,1.873,0,0,1-.02-.338V36.549a1.732,1.732,0,0,0-.061-.563.766.766,0,0,0-.7-.563,3.615,3.615,0,0,0-1.761.338.168.168,0,0,0-.123.184v5.386a1.449,1.449,0,0,1-.02.3.245.245,0,0,1-.256.246h0c-.154.01-.307.01-.471.01h-1.085c-.379,0-.461-.092-.461-.471V36.569a2.347,2.347,0,0,0-.051-.532.773.773,0,0,0-.717-.614A3.6,3.6,0,0,0,195,35.77a.163.163,0,0,0-.113.195v5.458c0,.379-.082.461-.461.461h-1.372c-.358,0-.451-.1-.451-.451V34.327a1.011,1.011,0,0,1,.031-.246.3.3,0,0,1,.287-.195h1.28a.37.37,0,0,1,.358.287c.051.143.082.276.133.43.1,0,.164-.072.236-.113a5.318,5.318,0,0,1,1.823-.768,3.878,3.878,0,0,1,1.536,0,1.919,1.919,0,0,1,1.188.8.445.445,0,0,0,.061.072C199.522,34.6,199.532,34.6,199.543,34.624Z" transform="translate(-172.878 -30.205)" fill="#eee"/>
      <path id="Path_11" data-name="Path 11" d="M432.365,41.707c.061-.2.123-.4.184-.6.471-1.587.942-3.164,1.413-4.751l.061-.184a.418.418,0,0,1,.41-.3h1.556c.389,0,.471.113.338.481l-.614,1.628c-.686,1.782-1.372,3.574-2.058,5.355-.02.061-.051.123-.072.184a.5.5,0,0,1-.512.338q-.676-.015-1.352,0a.579.579,0,0,1-.614-.42c-.256-.676-.522-1.362-.778-2.038-.614-1.608-1.239-3.215-1.853-4.833a1.828,1.828,0,0,1-.133-.4c-.031-.2.041-.307.246-.307.584-.01,1.167,0,1.741,0,.246,0,.358.164.42.379.113.389.225.788.348,1.178.42,1.423.829,2.857,1.249,4.28C432.334,41.707,432.344,41.707,432.365,41.707Z" transform="translate(-384.473 -32.189)" fill="#eee"/>
      <path id="Path_12" data-name="Path 12" d="M93.661,36.341a.305.305,0,0,0,.174-.123,7.075,7.075,0,0,1,.584-.522,2.724,2.724,0,0,1,1.864-.563c.266.01.358.092.379.348.02.348.01.707.01,1.055a1.925,1.925,0,0,1-.02.42.293.293,0,0,1-.3.276,2.875,2.875,0,0,1-.42-.01,4.906,4.906,0,0,0-2,.287c-.143.051-.143.154-.143.266v4.915a2.316,2.316,0,0,1-.01.266.247.247,0,0,1-.246.236,1.659,1.659,0,0,1-.225.01H91.981a1.658,1.658,0,0,1-.225-.01.274.274,0,0,1-.246-.256,1.975,1.975,0,0,1-.01-.246V35.726c0-.471.051-.522.522-.522h.983a.406.406,0,0,1,.461.348C93.538,35.808,93.6,36.064,93.661,36.341Z" transform="translate(-82.131 -31.533)" fill="#eee"/>
      <path id="Path_13" data-name="Path 13" d="M536.509,148.4a8.726,8.726,0,0,1,2,.236,3.314,3.314,0,0,1,.532.195.69.69,0,0,1,.42.563,4.2,4.2,0,0,1,.031.881,11.291,11.291,0,0,1-1.577,4.946,6.831,6.831,0,0,1-1.188,1.464.845.845,0,0,1-.328.2.24.24,0,0,1-.328-.246,1.112,1.112,0,0,1,.072-.307c.358-.963.707-1.915.983-2.908a10.162,10.162,0,0,0,.348-1.659,3.081,3.081,0,0,0,.01-.614.8.8,0,0,0-.573-.747,3.971,3.971,0,0,0-.983-.184,16.164,16.164,0,0,0-2.816.123l-1.239.154a.307.307,0,0,1-.328-.123.346.346,0,0,1,.031-.369,1.027,1.027,0,0,1,.307-.287,7.03,7.03,0,0,1,2.509-1.085A12.213,12.213,0,0,1,536.509,148.4Z" transform="translate(-477.077 -133.209)" fill="#eee"/>
      <path id="Path_14" data-name="Path 14" d="M518.394,39.993V43.68a.293.293,0,0,1-.317.307c-.553.01-1.1.01-1.649,0a.285.285,0,0,1-.317-.3,1.238,1.238,0,0,1-.01-.195V36.41c.01-.317.092-.41.41-.41h1.474c.317,0,.41.092.41.41v3.584Z" transform="translate(-463.253 -32.319)" fill="#eee"/>
      <path id="Path_15" data-name="Path 15" d="M151.51,39.816V36.181c.01-.246.1-.338.348-.348q.8-.015,1.6,0c.236,0,.307.072.328.307a2.321,2.321,0,0,1,.01.266v6.82c0,.113-.01.225-.02.338a.255.255,0,0,1-.246.236.994.994,0,0,1-.174.01H151.93a.676.676,0,0,1-.143-.01.3.3,0,0,1-.276-.266,1.97,1.97,0,0,1-.01-.246C151.51,42.151,151.51,40.983,151.51,39.816Z" transform="translate(-135.987 -32.162)" fill="#eee"/>
      <path id="Path_16" data-name="Path 16" d="M151.238.083a1.279,1.279,0,0,1,.481.072,1.162,1.162,0,0,1,.788,1.29,1.143,1.143,0,0,1-.973,1.044,1.931,1.931,0,0,1-.686,0,1.146,1.146,0,0,1-.973-1.28A1.192,1.192,0,0,1,151.238.083Z" transform="translate(-134.527 -0.078)" fill="#eee"/>
      <path id="Path_17" data-name="Path 17" d="M515.847.054a1.239,1.239,0,0,1,.6.1,1.077,1.077,0,0,1,.7.952,1.207,1.207,0,0,1-1.372,1.382,1.9,1.9,0,0,1-.338-.041,1.158,1.158,0,0,1-.9-1.352,1.147,1.147,0,0,1,1.1-1.034A.759.759,0,0,1,515.847.054Z" transform="translate(-461.842 -0.049)" fill="#eee"/>
      <path id="Path_18" data-name="Path 18" d="M7.854,36.972a4.663,4.663,0,0,0-.4-1.536,2.963,2.963,0,0,0-2.048-1.751,3.618,3.618,0,0,0-3.062.686.82.82,0,0,1-.215.154c-.02-.01-.041-.02-.041-.031-.031-.1-.051-.2-.082-.307a.406.406,0,0,0-.461-.348c-.307,0-.625.01-.932,0a.713.713,0,0,0-.614.2C0,37.627,0,41.221.01,44.8a.571.571,0,0,0,.573.246c.369-.01.737,0,1.106,0,.645,0,.645,0,.645-.635V41.488c0-.072-.031-.154.041-.215a3.44,3.44,0,0,0,1.782.707,3,3,0,0,0,2.406-.748,3.789,3.789,0,0,0,1.065-1.71A6.33,6.33,0,0,0,7.854,36.972Zm-2.447,2.12a1.578,1.578,0,0,1-.471.819,1.458,1.458,0,0,1-.942.358,2.81,2.81,0,0,1-1.5-.328.29.29,0,0,1-.174-.287V37.8c0-.614.01-1.229,0-1.843a.311.311,0,0,1,.2-.317,2.769,2.769,0,0,1,1.761-.266,1.251,1.251,0,0,1,.973.737,2.861,2.861,0,0,1,.266,1.044A5.117,5.117,0,0,1,5.407,39.092Z" transform="translate(0 -30.157)" fill="#eee"/>
      <path id="Path_19" data-name="Path 19" d="M800.1,82.133Z" transform="translate(-718.172 -73.721)" fill="#eee"/>
      <path id="Path_20" data-name="Path 20" d="M730.815,37.009v.041a.147.147,0,0,1-.041-.154v-.082a.01.01,0,0,1,.01-.01h-.01v-.1h.02c0-.01-.01-.01-.01-.02a3.552,3.552,0,0,0-.113-.573,3.444,3.444,0,0,0-2.611-2.591,5.031,5.031,0,0,0-1.956-.072,3.361,3.361,0,0,0-2.857,2.253,5.479,5.479,0,0,0,.01,3.871,3.265,3.265,0,0,0,2.406,2.15,5.072,5.072,0,0,0,1.925.1,3.518,3.518,0,0,0,3.185-3.3h-.01v-.143c-.01-.061-.02-.113.041-.154v.02a.078.078,0,0,1,.021-.041V37.029C730.825,37.019,730.815,37.019,730.815,37.009Zm-2.458,1.946a1.876,1.876,0,0,1-.287.594,1.326,1.326,0,0,1-.973.553,1.863,1.863,0,0,1-.584-.02,1.316,1.316,0,0,1-.963-.768,2.929,2.929,0,0,1-.276-1.014,5.6,5.6,0,0,1,.082-1.8,2.3,2.3,0,0,1,.276-.676,1.334,1.334,0,0,1,1.044-.635,1.863,1.863,0,0,1,.584.02,1.319,1.319,0,0,1,.932.727,3.023,3.023,0,0,1,.3,1.157,4.991,4.991,0,0,1,.01.553A3.744,3.744,0,0,1,728.357,38.954Z" transform="translate(-648.877 -29.969)" fill="#eee"/>
      <path id="Path_21" data-name="Path 21" d="M560.155.8h-1.423c-.389,0-.461.072-.461.461V4.578c0,.072.031.143-.021.215-.092-.01-.143-.072-.215-.113a3.4,3.4,0,0,0-3.307-.215,3.221,3.221,0,0,0-1.6,1.823,5.814,5.814,0,0,0-.358,2.365,4.877,4.877,0,0,0,.512,2.181,2.945,2.945,0,0,0,1.771,1.567,3.315,3.315,0,0,0,3.113-.532c.072-.041.113-.113.2-.133a1.46,1.46,0,0,1,.113.358.363.363,0,0,0,.358.276h.246c.369,0,.727.01,1.085,0,.287,0,.369-.092.379-.389V1.189C560.544.872,560.462.8,560.155.8Zm-1.874,7.536V10.2a.269.269,0,0,1-.164.287,2.524,2.524,0,0,1-1.608.307,1.4,1.4,0,0,1-1.1-.758A2.838,2.838,0,0,1,555.127,9a5.291,5.291,0,0,1,.123-1.925,2.347,2.347,0,0,1,.2-.5,1.322,1.322,0,0,1,1.075-.686,3.091,3.091,0,0,1,1.577.276.282.282,0,0,1,.184.3c-.02.635-.01,1.249-.01,1.874Z" transform="translate(-496.166 -0.723)" fill="#eee"/>
      <path id="Path_22" data-name="Path 22" d="M326.771,38.947a6.816,6.816,0,0,0,2.324.031,3.749,3.749,0,0,0,1.28-.41,1.9,1.9,0,0,0,.942-1.147,2.442,2.442,0,0,0-1.536-3.072,4.582,4.582,0,0,0-2.038-.195,3.493,3.493,0,0,0-3.154,2.621,5.653,5.653,0,0,0-.021,3.195,3.2,3.2,0,0,0,2.621,2.458,6.6,6.6,0,0,0,3.553-.307.469.469,0,0,0,.348-.5c-.01-.246,0-.5,0-.758,0-.307-.123-.4-.42-.328s-.584.133-.881.195a5.073,5.073,0,0,1-1.925.02,1.714,1.714,0,0,1-1.382-1.843A2.76,2.76,0,0,1,326.771,38.947Zm-.256-1.567a2.78,2.78,0,0,1,.195-.707,1.527,1.527,0,0,1,1.608-.963,1.671,1.671,0,0,1,.543.123.781.781,0,0,1,.471.645,1.174,1.174,0,0,1-.031.532.914.914,0,0,1-.778.594,2.069,2.069,0,0,1-.666.051,8,8,0,0,1-1.208-.092C326.495,37.544,326.495,37.544,326.515,37.381Z" transform="translate(-291.137 -30.627)" fill="#eee"/>
      <path id="Path_23" data-name="Path 23" d="M647.871,39.182a4.2,4.2,0,0,0,1.72-.44,1.9,1.9,0,0,0,1.034-1.362,2.783,2.783,0,0,0-.01-1.126,2.374,2.374,0,0,0-1.679-1.792,4.533,4.533,0,0,0-1.526-.195,3.566,3.566,0,0,0-3.563,2.632,5.685,5.685,0,0,0,.041,3.43,3.146,3.146,0,0,0,2.345,2.191,5.555,5.555,0,0,0,1.536.154,6.51,6.51,0,0,0,2.2-.42.455.455,0,0,0,.369-.532v-.737c-.01-.3-.133-.4-.43-.328-.225.061-.44.113-.666.164a5.179,5.179,0,0,1-2.1.072,1.6,1.6,0,0,1-1.352-1.229,4.19,4.19,0,0,1-.113-.625.325.325,0,0,1,.143.02A8.079,8.079,0,0,0,647.871,39.182Zm-2.14-1.638a2.538,2.538,0,0,1,.41-1.116,1.537,1.537,0,0,1,1.495-.584c.051,0,.092.02.143.02a.915.915,0,0,1,.758,1.239.9.9,0,0,1-.819.635,2.617,2.617,0,0,1-.635.051,9.943,9.943,0,0,1-1.239-.1c-.092-.01-.133-.051-.113-.143Z" transform="translate(-577.698 -30.759)" fill="#eee"/>
    </g>
  </g>
</svg>
