<svg xmlns="http://www.w3.org/2000/svg" width="719.705" height="299.41" viewBox="0 0 719.705 299.41">
  <g id="_6954-01" data-name="6954-01" transform="translate(0 -39.647)">
    <g id="Group_43" data-name="Group 43" transform="translate(0 335.424)">
      <path id="Path_36" data-name="Path 36" d="M0,1179.014H0c0,.825,1.089,1.493,2.432,1.493H717.273c1.343,0,2.432-.669,2.432-1.493h0c0-.825-1.089-1.493-2.432-1.493H2.432C1.089,1177.521,0,1178.188,0,1179.014Z" transform="translate(0 -1177.521)" fill="#184655"/>
    </g>
    <g id="Group_44" data-name="Group 44" transform="translate(72.784 186.861)">
      <path id="Path_37" data-name="Path 37" d="M652.741,607.566h-97a23.957,23.957,0,0,0-23.957,23.957v47.527H676.7V631.523A23.957,23.957,0,0,0,652.741,607.566Z" transform="translate(-465.957 -607.566)" fill="#355389"/>
      <path id="Path_38" data-name="Path 38" d="M867.555,607.566h-196.2a24.687,24.687,0,0,0-24.687,24.687v53.889H892.242V632.253A24.688,24.688,0,0,0,867.555,607.566Z" transform="translate(-550.889 -607.566)" fill="#466eb6"/>
      <path id="Path_39" data-name="Path 39" d="M413.037,848.307l56.953,7.491-1.353-112.944-64.121-.646Z" transform="translate(-371.858 -707.112)" fill="#355389"/>
      <path id="Path_40" data-name="Path 40" d="M279.23,760.625c0-9.962,13.591-18.077,30.569-18.4v-.014h0c18.554-.144,33.715,9.41,33.715,21.244v51.53l-35.274-5.321-7.51-27.88C283.368,781.709,279.23,770.749,279.23,760.625Z" transform="translate(-279.23 -707.111)" fill="#9bc1f9"/>
      <path id="Path_41" data-name="Path 41" d="M1535.984,754.274l47.1-.005.652,80.674-66.372-.073Z" transform="translate(-1194.631 -716.03)" fill="#355389"/>
      <path id="Path_42" data-name="Path 42" d="M1514,754.284c15.994.306,28.8,7.812,28.8,17.169,0,9.509-13.223,17.225-29.578,17.293l-.762,33.76h-30.219v-48.4C1482.238,762.993,1496.519,754.149,1514,754.284Z" transform="translate(-1168.663 -716.039)" fill="#355389"/>
      <path id="Path_43" data-name="Path 43" d="M1710.075,771.8c0-9.357-8.772-17.683-23.649-17.99v-.013h0c-16.258-.135-29.543,8.837-29.543,19.953v48.4l30.708.065V800.95l.159-12.649C1702.964,788.233,1710.075,781.3,1710.075,771.8Z" transform="translate(-1297.786 -715.676)" fill="#9bc1f9"/>
      <path id="Path_44" data-name="Path 44" d="M388.961,957.459l361.275-1.215.031,30.149a27.64,27.64,0,0,1-27.639,27.651l-315.918-.157c-14.318,0-17.3-11.45-17.3-25.767Z" transform="translate(-360.359 -865.358)" fill="#355389"/>
      <path id="Path_45" data-name="Path 45" d="M410.92,935.724H728.345c12.128,0,21.959-6.985,21.959-15.6l-.037-22.8L388.96,895.668v24.453C388.96,928.738,398.792,935.724,410.92,935.724Z" transform="translate(-360.358 -820.572)" fill="#9bc1f9"/>
    </g>
    <g id="Group_46" data-name="Group 46" transform="translate(271.686 123.069)">
      <path id="Path_46" data-name="Path 46" d="M1238.3,667.76s8.753,26.134,11.443,25.882c9.592-.9,24.092-13.409,24.092-13.409l6.535-12.473-5.554-1.037-18.248,12.04-3.351-14.439Z" transform="translate(-1187.212 -585.738)" fill="#f48c7f"/>
      <path id="Path_47" data-name="Path 47" d="M1239.69,563.948c.672.028,2.514.642,5.207,5.715,3.44,6.478,8.466,26.047,8.466,26.047l-15.213,5.128-1.72-3.644-3.175-31.445S1239.505,563.94,1239.69,563.948Z" transform="translate(-1183.483 -511.526)" fill="#96d9c9"/>
      <path id="Path_48" data-name="Path 48" d="M1100.576,553.127c4.29.005,14.907,1.253,19.835,2.822,0,0,3.62,31.007-3.259,54.568-1.54,5.274-7.227,21.64-7.227,21.64l-38-1s7.309-39.47,5.325-45.948-2.032-29.055-2.032-29.055.3-.047,9.99-1.716A100.96,100.96,0,0,1,1100.576,553.127Z" transform="translate(-1064.203 -503.526)" fill="#50bfa5"/>
      <path id="Path_49" data-name="Path 49" d="M1098.918,836.051s34.8-4.629,42.138-.783-16.3,22.4-16.3,22.4-20.219-1.236-26.184-1.2c-5.92.034-24.018,1.4-34.535-.012s-9.326-18.017-7.342-20.042S1098.918,836.051,1098.918,836.051Z" transform="translate(-1051.961 -710.995)" fill="#b75742"/>
      <path id="Path_50" data-name="Path 50" d="M1265.847,1124.34s-1.257,3.644.926,6.073,11.311,4.859,12.5,6.174a3.507,3.507,0,0,1,1.091,2.429l-25.664-.823.334-7.182,1.221-5.154Z" transform="translate(-1199.339 -925.847)" fill="#f7a491"/>
      <path id="Path_51" data-name="Path 51" d="M1264.264,1150.5s-6.615,2.429-9.789.945-3.075-1.89-4-1.35-1.311,7.341-1.311,7.341l28.853,1.13c2.009-.029,2.826-1.431,1.2-2.616a29.8,29.8,0,0,0-2.916-1.942C1274.054,1152.8,1264.264,1150.5,1264.264,1150.5Z" transform="translate(-1195.243 -944.723)" fill="#3c8f7c"/>
      <path id="Path_52" data-name="Path 52" d="M1277.085,844.442c2.4-3.661,8.419-8.975,15.984-5.2,7.216,3.6,5.314,15.057,2.139,22.074s-23.514,48.112-24.7,53.916l-12.5-1.113s5.986-33.5,7.441-41.6C1266.844,864.722,1272.935,850.778,1277.085,844.442Z" transform="translate(-1201.779 -714.103)" fill="#f47458"/>
      <path id="Path_53" data-name="Path 53" d="M1114.7,1091.2s1.025,10.965,2.91,14-.1,8.2-.2,8.907-3.969,1.721-10.12,1.113-6.052-1.923-5.556-4.049,3.77-4.858,3.969-6.883-1.885-9.312-1.885-9.312Z" transform="translate(-1086.089 -901.346)" fill="#f7a491"/>
      <path id="Path_54" data-name="Path 54" d="M1106.3,1160.93c-6.151-.607-5.391-3.408-4.895-5.534.311-1.331,1.71-2.9,2.762-4.384a13.869,13.869,0,0,0,4.48,1.853c2.774.759,7.025-.6,9.448-1.541a20.028,20.028,0,0,1,.374,7.209C1118.369,1159.244,1112.449,1161.538,1106.3,1160.93Z" transform="translate(-1085.759 -945.568)" fill="#3c8f7c"/>
      <path id="Path_55" data-name="Path 55" d="M1066.547,857.045c1.278,8.962,7.607,53.579,7.607,53.579l-14.684,1.687s-18.057-58.235-17.131-67.142,7.685-9.657,7.685-9.657S1063.163,833.32,1066.547,857.045Z" transform="translate(-1042.304 -712.265)" fill="#f47458"/>
      <path id="Path_56" data-name="Path 56" d="M1062.126,577.833c5.325-1.991,6.674,55.772,6.674,55.772,4.938,3.335,20.29,13.865,23.613,15.52,1.349.672,4.973,1.357,6.357,1.954a15.032,15.032,0,0,1,3.244,1.729c.213.183,5.207,6.795,5.42,7.72.265,1.147,1.058,4.116.265,4.724s-2.315-4.386-2.315-4.386l-1.082-1.872c.849,3.167,3.158,8.047,2.042,8.659-1.088.6-3-4.1-4.407-7.36.986,3.175,1.587,8.165.663,8.336-.832.154-1.475-5.591-4-8.64-.937-1.13-2.817-.665-3.836-1.08a7.841,7.841,0,0,1-2.5-1.307l-2.888-3.048a37.42,37.42,0,0,0-4-1.669c-1.562-.531-3.766-1.589-5.787-2.21-11.641-3.576-14.552-4.386-18.123-4.993s-5.277-10.087-5.785-24.853C1055.117,604.387,1052.3,581.506,1062.126,577.833Z" transform="translate(-1051.6 -521.755)" fill="#f7a491"/>
      <path id="Path_57" data-name="Path 57" d="M1051.577,602.995c-.779-15.739-.665-35.137,8.188-38.446,3.493-1.306,9.65,6.546,8.543,38.766C1063.58,603.7,1056.644,604.016,1051.577,602.995Z" transform="translate(-1048.938 -511.871)" fill="#96d9c9"/>
      <path id="Path_58" data-name="Path 58" d="M1147.4,493.477l-2.349,15.376s8.547,14.8,13.968,13.115c4.548-1.411,2.145-13.07,2.145-13.07s-.867-3.222-1.422-6.808a24.912,24.912,0,0,1-.314-7.012C1160.171,490.468,1147.4,493.477,1147.4,493.477Z" transform="translate(-1118.269 -458.711)" fill="#f7a491"/>
      <path id="Path_59" data-name="Path 59" d="M1165.5,495.078c.744-4.609-12.03-1.6-12.03-1.6l-.206,1.35a7.5,7.5,0,0,0,1.385,2.269,16.869,16.869,0,0,0,11.169,5.021A24.98,24.98,0,0,1,1165.5,495.078Z" transform="translate(-1124.344 -458.711)" fill="#f47458"/>
      <g id="Group_45" data-name="Group 45" transform="translate(16.803)">
        <path id="Path_60" data-name="Path 60" d="M1143.217,393.426c-.361-.13-2.894,18.542,1.913,23.68s14.171,6.819,17.53,2.773c3.716-4.476,3.529-24.545-3.944-29.83S1143.217,393.426,1143.217,393.426Z" transform="translate(-1132.985 -381.692)" fill="#f7a491"/>
        <path id="Path_61" data-name="Path 61" d="M1127.375,362.975c-5.776,1.17-14.8,6.147-18.485,12.2-4.526,7.444-1.184,15.692,4.085,19.738s5.2,8.714,5.2,8.714l.832-2.411a13.43,13.43,0,0,0,.66-5.695,11.062,11.062,0,0,0-.852-3.424c-1.267-2.7,2.722-4.5,3.841-6.746.861-1.732.9-5.692,2.26-8.553l1.62-2.185a15.37,15.37,0,0,1,7.4-2.075C1136.19,372.624,1134.785,361.473,1127.375,362.975Z" transform="translate(-1106.766 -362.836)" fill="#184655"/>
        <ellipse id="Ellipse_13" data-name="Ellipse 13" cx="2.398" cy="4.125" rx="2.398" ry="4.125" transform="translate(10.79 21.797) rotate(-0.974)" fill="#f7a491"/>
      </g>
    </g>
    <g id="Group_47" data-name="Group 47" transform="translate(344.695 172.481)">
      <path id="Path_62" data-name="Path 62" d="M1404.94,646.5s24.629,2.787,27.46,2.787,19.941-4.006,22.968-4.963,3.67-5.286,7.659-6.146,4.4,1.071,4.4,1.071,5.378.643,5.378,2.059v1.415s-29.341,14.578-36.547,15.461-25.737,0-25.737,0Z" transform="translate(-1383.425 -615.655)" fill="#f7a491"/>
      <path id="Path_63" data-name="Path 63" d="M1424.26,796.138l12.161,10.336s9.068.294,9.362,0,3.378-10.336,3.378-10.336l-9.366-7.239Z" transform="translate(-1397.709 -727.253)" fill="#184655"/>
      <path id="Path_64" data-name="Path 64" d="M1358.231,679.278c5.455,7.975,12.447,27.421,12.447,27.421l-23.1,7.331s-25.786-31.284-23.976-35.757c1.524-3.766,15.715-8.768,21.131-7.857C1348.72,671.085,1357.11,677.639,1358.231,679.278Z" transform="translate(-1323.224 -639.573)" fill="#f7cc7f"/>
      <path id="Path_65" data-name="Path 65" d="M1365.9,722.806s-25.059,3.518-26,3.518-6.97-30.61-16.621-27.349c-4.355,1.471,8.734,33.345,11.459,36.071,3.2,3.2,32.406-4.352,32.406-4.352Z" transform="translate(-1322.399 -660.589)" fill="#f7a491"/>
      <path id="Path_66" data-name="Path 66" d="M1486.734,718.87s10.3,12.4,15.917,10.766,6.085-10.766,6.085-10.766c1.171-5.852-9.362-35.11-9.362-35.11s-8.651-7.121-12.381-4.662C1480.343,683.481,1486.286,715.713,1486.734,718.87Z" transform="translate(-1441.775 -645.69)" fill="#184655"/>
      <path id="Path_67" data-name="Path 67" d="M1495.956,671.1c5.041-1.044,9.6,3.657,14.98,11.849s17.725,32.841,21.582,36.978c3.936,4.221,9.075,8.128,13.019,12.072,1.655,1.655,3.318,4.406-1.13,4.406s-17.429-4.888-20.364-6.273c-2.351-1.11,1.112-8.181-1.053-10.346s-28.395-28.074-32.184-34.876C1487.292,678.6,1487.79,672.787,1495.956,671.1Z" transform="translate(-1445.38 -640.051)" fill="#f79c8d"/>
      <path id="Path_68" data-name="Path 68" d="M1567.719,900.049c-5.852-7.724-12.421-32.656-17.922-38.157-1.383-1.383-4.049-2.035-7.373-3.378-5.953,4.082-12.508,6.49-17.033,12.633,4.734.584,9.26,1.05,12.549,1.209,0,0-.4,4.013,8.743,16.737,2.573,3.582,11.656,11.3,13.458,14.126,3,4.7,6.074,12.8,9.222,15.12,2.328,1.713,9.122,1.965,10.318-.666C1580.653,915.535,1573.571,907.772,1567.719,900.049Z" transform="translate(-1472.479 -778.723)" fill="#f79c8d"/>
      <path id="Path_69" data-name="Path 69" d="M1411.256,828.135c2.743-2.522,10.942-3.126,14.746-3.454,6.273-.54,25.562,4.318,33.292,9.476-4.239,3.39-7.925,7.943-9.179,13.154-8.763-.52-23.75-2.984-30.6-4.193-4.457-.787-8.107-4.076-8.741-5.831C1409.132,832.754,1409.25,829.982,1411.256,828.135Z" transform="translate(-1386.898 -753.678)" fill="#3c8f7c"/>
      <path id="Path_70" data-name="Path 70" d="M1327.173,557.395c-2.715,4.842-1.531,14.415.728,17.5s7.634,4.048,7.634,4.048l7.873,1.874s5.689-7.286,7.258-12.232c.606-1.913.709-3.156,0-7.214-.917-5.243-2.271-7.957-7.992-8.588C1337.117,552.167,1330.457,551.539,1327.173,557.395Z" transform="translate(-1324.769 -552.4)" fill="#184655"/>
      <path id="Path_71" data-name="Path 71" d="M1415.421,611.079c-.274,1.76-1.489,3.042-2.714,2.862s-2-1.753-1.722-3.513,1.489-3.042,2.714-2.862S1415.695,609.318,1415.421,611.079Z" transform="translate(-1387.854 -593.173)" fill="#f7a491"/>
      <path id="Path_72" data-name="Path 72" d="M1368.931,642.79s-1.179,8.34,1.321,10.6c2.64,2.382-9.555,1.727-10.416-2.209-.465-2.127,1.2-11.515,1.2-11.515Z" transform="translate(-1350.017 -616.917)" fill="#f7a491"/>
      <path id="Path_73" data-name="Path 73" d="M1362.564,639.664l7.894,3.126a34.021,34.021,0,0,0-.277,4.382,10.151,10.151,0,0,1-6.5-1.478,13.358,13.358,0,0,1-1.866-1.279C1362.17,641.887,1362.564,639.664,1362.564,639.664Z" transform="translate(-1351.543 -616.918)" fill="#f48c7f"/>
      <path id="Path_74" data-name="Path 74" d="M1354.731,571.678a10.84,10.84,0,0,0-5.92,4.481c-2.191,3.524-3.4,13.71,4.424,18.166s13.517-2.445,13.369-8.972S1363.469,570.482,1354.731,571.678Z" transform="translate(-1340.71 -566.568)" fill="#f7a491"/>
      <path id="Path_75" data-name="Path 75" d="M1341.548,617.226c.619,1.676.174,3.364-.992,3.77s-2.613-.623-3.232-2.3-.174-3.364.992-3.77S1340.931,615.55,1341.548,617.226Z" transform="translate(-1333.228 -598.563)" fill="#f7a491"/>
      <path id="Path_76" data-name="Path 76" d="M1636.063,602.426l-15.183,13.5,3.73,2.632,18.919-10.7Z" transform="translate(-1543.078 -589.386)" fill="#466eb6"/>
      <path id="Path_77" data-name="Path 77" d="M1629.025,639.017s-.29-.746-2.214-.787l-1.925-.041s-2.279.587-2.279,1.263S1629.458,640.175,1629.025,639.017Z" transform="translate(-1544.355 -615.827)" fill="#f7a491"/>
      <path id="Path_78" data-name="Path 78" d="M1620.88,631.349l3.409,1.233,19.239-9.3.453.921-19.372,9.775Z" transform="translate(-1543.078 -604.808)" fill="#184655"/>
      <path id="Path_79" data-name="Path 79" d="M1654.679,638.3l-3.748,1.432,1.786-2.365s1.178-5.392,2.4-5.392.96.627.917.989A48.984,48.984,0,0,1,1654.679,638.3Z" transform="translate(-1565.296 -611.231)" fill="#f7a491"/>
    </g>
    <g id="Group_48" data-name="Group 48" transform="translate(223.223 166.037)">
      <path id="Path_80" data-name="Path 80" d="M881.593,528.374a6.776,6.776,0,0,1,7.91,3.126c3.105,4.867,1.427,4.406,2.937,6.84s5.455,1.93,5.455,5.707-1.762,4.364-1.762,4.364a6.429,6.429,0,0,1-.168,5.958c-1.762,3.022-6.157,5.623-9.834,5.2,0,0-5.524,3.028-11.062,1.6s-3.609-1.43-5.874-1.43-8.392-3.1-7.385-7.637c0,0-3.733-4.434-.111-8.056s4.307-7.3,6.405-12.169S879.075,527.2,881.593,528.374Z" transform="translate(-859.142 -527.677)" fill="#13375b"/>
      <path id="Path_81" data-name="Path 81" d="M885.273,651.3s-13.438,1.349-17,4.912l8.161,41.862s16.624,3.73,27.2.278c0,0,6.462-34.347,1.1-43.162-1.786-2.938-9.93-3.057-9.93-3.057Z" transform="translate(-865.172 -619.076)" fill="#f7cc7f"/>
      <path id="Path_82" data-name="Path 82" d="M871.1,812.224,864.615,823.1l-2.72,17.53s11.183-6.952,17.682-5.289,17.531-1.36,20.855-1.36,9.519,2.33,9.519,2.33-1.923-13.624-5.817-17.518c-1.314-1.314-5.089-5.792-5.089-5.792s-8.032,1.787-10.758,1.787C877.542,814.784,871.1,812.224,871.1,812.224Z" transform="translate(-860.458 -738.055)" fill="#13375b"/>
      <path id="Path_83" data-name="Path 83" d="M860.011,767.294s.17,20.459,1.247,21.535,16.321,3.854,16.321,3.854-.68,5.1-.283,6.687,7.424,5.44,7.707,5.44,3.4-6.687,3.684-8.217-4.137-6.4-7.424-8.841-11.582-7.9-11.582-7.9l.248-13.47Z" transform="translate(-859.065 -704.165)" fill="#f7a491"/>
      <path id="Path_84" data-name="Path 84" d="M962.82,767.378s-.454,10.6-.454,11.674v1.077l-4.59,8.671-6.651,4.162s1.551,4,1.041,5.019-4.456,5.084-4.456,6.2.716,1.68,1.736,1.4,2.663-2.154,2.663-2.154-3.06,2.834-2.493,3.4,2.522-.142,3.514-1.134c0,0-1.587,1.5-1.162,1.927s1.488.212,1.984-.284,1.842-1.644,1.842-1.644-.538.652-.283.907,1.955,1.048,4.562-3.91a30.268,30.268,0,0,0,3.145-8.3s6.432-7.112,6.857-11.363.822-15.982.822-15.982Z" transform="translate(-923.903 -704.647)" fill="#f79c8d"/>
      <path id="Path_85" data-name="Path 85" d="M888.5,889.9c2.71-2.71,8.161-5.289,12.695-.907S913.434,944,913.434,944s8.195,13.848,9.4,15.057-9.309,1.894-12.483.836-4.931-11.51-4.931-11.51S880.92,897.48,888.5,889.9Z" transform="translate(-879.051 -793.072)" fill="#f48c7f"/>
      <path id="Path_86" data-name="Path 86" d="M975.635,1141.22a84.537,84.537,0,0,1-11.795,1.866c.815,2.364,1.922,4.576,3.294,5.034,3.174,1.058,13.692.374,12.483-.836A66.441,66.441,0,0,1,975.635,1141.22Z" transform="translate(-935.83 -981.295)" fill="#3c8f7c"/>
      <path id="Path_87" data-name="Path 87" d="M946.812,884.4c-1.834,3.784-3.546,11.708-4.457,15.948-2.457,11.445-4.263,46.893-4.263,46.893s-6.858,9.65-5.271,11.237,11.108.788,12.921.013,1.07-10.881,1.662-13.45c0,0,16.246-52.592,12.959-59.09S948.416,881.088,946.812,884.4Z" transform="translate(-912.72 -789.268)" fill="#f79c8d"/>
      <path id="Path_88" data-name="Path 88" d="M859.48,670.143a15.55,15.55,0,0,0-2.342,5.743c-.831,3.778-.756,21.913-.756,21.913l11.561-1.587s-.378-13.3,0-13.677S861.067,670.143,859.48,670.143Z" transform="translate(-856.38 -633.008)" fill="#f7cc7f"/>
      <path id="Path_89" data-name="Path 89" d="M1004.42,662.379a15.519,15.519,0,0,1,7.749,11.535c1.157,8.328,1.619,16.54,1.619,16.54s-6.13,2.082-9.368.579Z" transform="translate(-965.832 -627.268)" fill="#f7cc7f"/>
      <path id="Path_90" data-name="Path 90" d="M930.035,621.663s-.2,6.684.426,7.311a2.438,2.438,0,0,1,.581,3.263c-.923,1.595-4.93.577-6.8-.335A8.826,8.826,0,0,1,921.3,629.4l.935-10.586Z" transform="translate(-904.375 -595.056)" fill="#f79c8d"/>
      <path id="Path_91" data-name="Path 91" d="M924.169,618.809l-.252,2.848a9.365,9.365,0,0,0,5.2,4.022,8.647,8.647,0,0,0,2.87.592c-.087-2.09-.011-4.609-.011-4.609Z" transform="translate(-906.314 -595.055)" fill="#b75742"/>
      <path id="Path_92" data-name="Path 92" d="M921.2,540.363s3.776-.084,5.707,2.853,4.028,11.33.839,17.12-7.259,4.364-8.938,3.776-4.993-1.888-6.672-7.3S911.678,539.23,921.2,540.363Z" transform="translate(-897.137 -537.002)" fill="#f79c8d"/>
      <path id="Path_93" data-name="Path 93" d="M904.546,586.087s-.19-3.929-2.6-3.166-.574,6.693,1.427,6.5S904.546,586.087,904.546,586.087Z" transform="translate(-889.219 -568.449)" fill="#f79c8d"/>
      <path id="Path_94" data-name="Path 94" d="M946.986,1153.042c-2.145,1.517-8.6-.427-11.892-1.572-1.609,2.716-3.1,5.774-2.271,6.608,1.587,1.587,11.107.788,12.921.013.8-.341,1.1-2.513,1.242-5.049Z" transform="translate(-912.72 -988.874)" fill="#50bfa5"/>
    </g>
    <g id="Group_49" data-name="Group 49" transform="translate(130.999 133.097)">
      <path id="Path_95" data-name="Path 95" d="M518.177,476.566c16.6,6.615,21.942-7.837,21.526-7.456a44.523,44.523,0,0,1,4.411-2.142c6.652-3.158,6.454-14.3,6.3-21.689,9.545-5.627,11.938-16.408,5.391-22.993,2.014-7.323,2.442-11.931-4.313-15.642-5.114-8.633-19.442-5.7-26.4,1.068a18.8,18.8,0,0,0-5.511,13.478c-8.182,3.28-12.463,12.016-10.6,20.828C497.945,450.819,501.238,469.817,518.177,476.566Z" transform="translate(-502.568 -401.306)" fill="#13375b"/>
      <path id="Path_96" data-name="Path 96" d="M670.023,633.341a28.2,28.2,0,0,0-4.833-2.118c-8.94-2.44-26.629-6.367-26.629-6.367-.716-.187-1.383-.377-2.011-.544.8-5.957,6.962-32.348,3.986-40.582-1.014-2.8-9.675-8.822-13.371,2.223-3.746,11.2.056,39.156.892,42.837,0,.02.006.04.009.06.554,3.225,7.176,5.394,11.338,5.717,4.1.317,20.67.8,21.719,1.235s3.451,5.312,3.451,5.312,1.017,5.855,2,5.687-.581-7.237-.581-7.237a18.233,18.233,0,0,1,2.355,4.231,26.762,26.762,0,0,0,1.385,3.492c.638.9.734-1.837.595-2.651-.187-1.091-2.311-6.9-2.156-7.058.427-.427,2.512,3.684,2.512,3.684s2.03,5.719,2.428,5.719c1.42,0,.383-2.378-.038-4.832s-2.835-6.007-2.273-6.1,3.009,5.4,3.668,4.465S672.776,634.217,670.023,633.341Z" transform="translate(-593.488 -533.094)" fill="#f48c7f"/>
      <path id="Path_97" data-name="Path 97" d="M646.974,569.153c-1.014-2.8-6.83-8.822-10.525,2.223a60.905,60.905,0,0,0-2.307,18.1c4.339.414,9.753-.232,14.051.319C648.7,581.685,648.414,573.136,646.974,569.153Z" transform="translate(-599.836 -522.316)" fill="#b75742"/>
      <path id="Path_98" data-name="Path 98" d="M593.388,564.516a72.619,72.619,0,0,0-4.073-6.446c-2.081-3.595-7.458-5.413-7.458-5.413s-1.8.035-3.864.134a1.58,1.58,0,0,1-.39.666c-.776.565-8.307-.1-11.18,1.793-9.629,8.02-2.993,45.072-2.235,57.35l23.149,1.858s1.59-26.248,7.548-33.035C599.035,576.7,596.364,569.847,593.388,564.516Z" transform="translate(-545.959 -513.206)" fill="#f47458"/>
      <path id="Path_99" data-name="Path 99" d="M692.2,887.767c.258-.46,3.6-8.263,6.328-11.739,3.964-5.047,38.233-50.747,36.822-61.869-.616-4.857-15.465-8.976-17.228-9.268-9.449,1.227.478,9.106-6.622,15.581,4.616,1.529,7.337,3.438,6.34,4.694-3.994,5.032-25.207,45.577-26.129,46.1-4.108,2.332-5.72,1.251-5.72,1.251s.946,22.806,2.906,22.086S689.3,892.952,692.2,887.767Z" transform="translate(-638.183 -699.693)" fill="#f48c7f"/>
      <path id="Path_100" data-name="Path 100" d="M679.344,1060.93l3.963,22.976c.891,2.974,2.39,2.941,2.774,2.542.79-.82,1.152-6.956,1.247-10.443-1.787-5.322-1.618-15.341-.516-16.472C684.117,1059.58,679.347,1060.419,679.344,1060.93Z" transform="translate(-633.266 -887.961)" fill="#b75742"/>
      <path id="Path_101" data-name="Path 101" d="M712.189,823.464c5.318-8.538,7.843-7.382,17.1-11.24,4.5.633,10.448,1.2,20.488,8.618L730.036,834.7C730.681,833.154,718.2,827.131,712.189,823.464Z" transform="translate(-657.549 -705.115)" fill="#f7a491"/>
      <path id="Path_102" data-name="Path 102" d="M625.721,498.307s-1.612,11.186-2.738,13.9,6.19,8.532,12.278,10.3-1.861-6-1.608-8.91,1.358-16.664,1.358-16.664Z" transform="translate(-591.511 -472.007)" fill="#f7a491"/>
      <path id="Path_103" data-name="Path 103" d="M641.4,500.879c.178-2.276.307-3.946.307-3.946l-9.291,1.374s-.234,1.314-.493,3.172C635.688,503.6,639.076,502.933,641.4,500.879Z" transform="translate(-598.205 -472.007)" fill="#f47458"/>
      <path id="Path_104" data-name="Path 104" d="M618.3,416.742a11.579,11.579,0,0,0-6.675,4.444c-2.512,3.638-4.081,14.451,4.513,19.666s14.2-2.48,14.181-9.462S629.4,415.709,618.3,416.742Z" transform="translate(-581.731 -412.656)" fill="#f7a491"/>
      <path id="Path_105" data-name="Path 105" d="M603.335,463.129c.582,1.781.049,3.534-1.189,3.916s-2.714-.752-3.3-2.532-.05-3.534,1.189-3.916S602.753,461.348,603.335,463.129Z" transform="translate(-573.578 -445.087)" fill="#f7a491"/>
      <path id="Path_106" data-name="Path 106" d="M598.2,778.782c-4.113-.365-17.721-1.7-17.721-1.7l-23.442-3.052s-4.964,9.78-5.131,15.973c-.292,10.833,10.005,18.885,18.809,19.439,5.166.325,34.3,2.1,40.092.021,1.2-8.825,3.184-21.433,9.327-27.783C610.3,780.368,603.784,779.278,598.2,778.782Z" transform="translate(-539.044 -676.874)" fill="#3c8f7c"/>
      <path id="Path_107" data-name="Path 107" d="M714.37,913.178c.661-.663,5.958-35.745,9.153-50.469a12.421,12.421,0,0,1,6.382-8.323l17.221-9.1c5.966,5.284-21.871,64.623-24.419,70.843a49.386,49.386,0,0,0-2.479,10.435c-1.433,6.067-.737,5.936-2.518,7.208s-9.1-17-9.1-17S710.876,916.681,714.37,913.178Z" transform="translate(-654.902 -729.559)" fill="#f7a491"/>
      <path id="Path_108" data-name="Path 108" d="M718.551,1119.253a13.859,13.859,0,0,0,1.175,4.285c.966,1.948,4.227,3.219,3.335,4.224s-8.074,0-8.074,0L706.5,1110.25a1.417,1.417,0,0,1,.472-1.835,16.2,16.2,0,0,1,5.675-2.5S712.533,1116.615,718.551,1119.253Z" transform="translate(-653.224 -922.249)" fill="#f47458"/>
    </g>
    <g id="Group_83" data-name="Group 83" transform="translate(39.363 205.552)">
      <g id="Group_62" data-name="Group 62" transform="translate(2.372 51.979)">
        <g id="Group_60" data-name="Group 60">
          <g id="Group_50" data-name="Group 50" transform="translate(15.771 0.258)">
            <circle id="Ellipse_14" data-name="Ellipse 14" cx="1.825" cy="1.825" r="1.825" fill="#fae0b2"/>
            <path id="Path_109" data-name="Path 109" d="M224.931,885.341a1.18,1.18,0,1,1-.851-1.818,1.181,1.181,0,0,1,.851,1.818Z" transform="translate(-222.204 -882.515)" fill="#f47458"/>
          </g>
          <g id="Group_51" data-name="Group 51" transform="translate(3.418 3.978)">
            <path id="Path_110" data-name="Path 110" d="M176.448,894.6a1.825,1.825,0,1,1-2.571-.217A1.826,1.826,0,0,1,176.448,894.6Z" transform="translate(-173.229 -893.95)" fill="#fae0b2"/>
            <path id="Path_111" data-name="Path 111" d="M178.674,899.465a1.18,1.18,0,1,1-.662-2.078A1.181,1.181,0,0,1,178.674,899.465Z" transform="translate(-175.821 -896.488)" fill="#f47458"/>
          </g>
          <g id="Group_52" data-name="Group 52" transform="translate(11.216)">
            <circle id="Ellipse_15" data-name="Ellipse 15" cx="1.825" cy="1.825" r="1.825" fill="#fae0b2"/>
            <path id="Path_112" data-name="Path 112" d="M206.973,884.914a1.18,1.18,0,1,1,1.176-1.184A1.182,1.182,0,0,1,206.973,884.914Z" transform="translate(-205.1 -881.546)" fill="#f47458"/>
          </g>
          <g id="Group_53" data-name="Group 53" transform="translate(19.746 1.966)">
            <circle id="Ellipse_16" data-name="Ellipse 16" cx="1.825" cy="1.825" r="1.825" fill="#fae0b2"/>
            <path id="Path_113" data-name="Path 113" d="M239.665,891.82a1.18,1.18,0,1,1-.151-1.663A1.181,1.181,0,0,1,239.665,891.82Z" transform="translate(-237.133 -888.932)" fill="#f47458"/>
          </g>
          <g id="Group_54" data-name="Group 54" transform="translate(5.717 23.384)">
            <circle id="Ellipse_17" data-name="Ellipse 17" cx="1.825" cy="1.825" r="1.825" fill="#fae0b2"/>
            <path id="Path_114" data-name="Path 114" d="M187.465,971.531a1.18,1.18,0,1,1-.456-1.7,1.178,1.178,0,0,1,.456,1.7Z" transform="translate(-184.453 -969.362)" fill="#f47458"/>
          </g>
          <g id="Group_55" data-name="Group 55" transform="translate(0.51 16.343)">
            <circle id="Ellipse_18" data-name="Ellipse 18" cx="1.825" cy="1.825" r="1.825" fill="#fae0b2"/>
            <path id="Path_115" data-name="Path 115" d="M168.059,945.281a1.18,1.18,0,1,1-1.453-1.732,1.181,1.181,0,0,1,1.453,1.732Z" transform="translate(-164.898 -942.911)" fill="#f47458"/>
          </g>
          <g id="Group_56" data-name="Group 56" transform="translate(1.044 7.601)">
            <circle id="Ellipse_19" data-name="Ellipse 19" cx="1.826" cy="1.826" r="1.826" fill="#fae0b2"/>
            <path id="Path_116" data-name="Path 116" d="M168.024,912.634a1.18,1.18,0,1,1,2.169-.222A1.173,1.173,0,0,1,168.024,912.634Z" transform="translate(-166.902 -910.102)" fill="#f47458"/>
          </g>
          <g id="Group_57" data-name="Group 57" transform="translate(2.565 20.418)">
            <circle id="Ellipse_20" data-name="Ellipse 20" cx="1.825" cy="1.825" r="1.825" fill="#fae0b2"/>
            <path id="Path_117" data-name="Path 117" d="M174.435,960.975a1.18,1.18,0,1,1,1.321-1.735A1.182,1.182,0,0,1,174.435,960.975Z" transform="translate(-172.619 -958.229)" fill="#f47458"/>
          </g>
          <g id="Group_58" data-name="Group 58" transform="translate(7.07 1.248)">
            <path id="Path_118" data-name="Path 118" d="M187.54,886.307a1.825,1.825,0,1,0,.521-2.529A1.824,1.824,0,0,0,187.54,886.307Z" transform="translate(-187.24 -883.478)" fill="#fae0b2"/>
            <path id="Path_119" data-name="Path 119" d="M192.167,889.378a1.178,1.178,0,1,1,.338-.338A1.2,1.2,0,0,1,192.167,889.378Z" transform="translate(-189.531 -886.239)" fill="#f47458"/>
          </g>
          <g id="Group_59" data-name="Group 59" transform="translate(0 12.045)">
            <circle id="Ellipse_21" data-name="Ellipse 21" cx="1.825" cy="1.825" r="1.825" fill="#fae0b2"/>
            <path id="Path_120" data-name="Path 120" d="M164.971,929.79a1.18,1.18,0,1,1,1.363-.962A1.182,1.182,0,0,1,164.971,929.79Z" transform="translate(-162.982 -926.782)" fill="#f47458"/>
          </g>
          <path id="Path_121" data-name="Path 121" d="M185.442,902.29l2.227-9.567-.335-.078-2.321,9.969-1.181-10.168-.342.04,1.133,9.759-4.443-8.761-.307.156,4.629,9.128-7.436-7.03-.236.251,7.137,6.747-9.032-3.854-.135.317,9.411,4.016-10.214-.6-.02.344,9.8.576-9.394,2.856.1.33,9.79-2.976-8.21,6.109.206.276,7.88-5.862-5.362,8.229.289.188,12.057-18.407-.288-.19Z" transform="translate(-170.363 -888.86)" fill="#f47458"/>
        </g>
        <g id="Group_61" data-name="Group 61" transform="translate(13.48 13.344)">
          <path id="Path_122" data-name="Path 122" d="M251.207,955.159l-.808,1.233-38.567-25.277.808-1.234Z" transform="translate(-211.832 -929.881)" fill="#f47458"/>
        </g>
      </g>
      <g id="Group_75" data-name="Group 75" transform="translate(0 0)">
        <g id="Group_73" data-name="Group 73">
          <g id="Group_63" data-name="Group 63" transform="translate(36.143 5.901)">
            <path id="Path_123" data-name="Path 123" d="M290.253,703.2a3.089,3.089,0,1,0,4.31-.71A3.091,3.091,0,0,0,290.253,703.2Z" transform="translate(-289.674 -701.913)" fill="#fae0b2"/>
            <path id="Path_124" data-name="Path 124" d="M295.159,711.617a2,2,0,1,1,.23-3.391,2,2,0,0,1-.23,3.391Z" transform="translate(-291.555 -706.303)" fill="#f47458"/>
          </g>
          <g id="Group_64" data-name="Group 64" transform="translate(14.257 0.731)">
            <ellipse id="Ellipse_22" data-name="Ellipse 22" cx="3.089" cy="3.09" rx="3.089" ry="3.09" transform="translate(0 1.201) rotate(-11.21)" fill="#fae0b2"/>
            <path id="Path_125" data-name="Path 125" d="M215.108,694.576a2,2,0,0,1-1.32-3.727,2,2,0,0,1,2.043.107A2,2,0,0,1,215.108,694.576Z" transform="translate(-210.895 -688.392)" fill="#f47458"/>
          </g>
          <g id="Group_65" data-name="Group 65" transform="translate(29.609 1.781)">
            <path id="Path_126" data-name="Path 126" d="M270.405,690.686a3.089,3.089,0,1,1-1.219-4.2A3.088,3.088,0,0,1,270.405,690.686Z" transform="translate(-264.609 -686.107)" fill="#fae0b2"/>
            <path id="Path_127" data-name="Path 127" d="M268.955,696.225a2,2,0,1,1,2.712-.789A2,2,0,0,1,268.955,696.225Z" transform="translate(-267.059 -690.809)" fill="#f47458"/>
          </g>
          <g id="Group_66" data-name="Group 66" transform="translate(40.629 11.691)">
            <path id="Path_128" data-name="Path 128" d="M311.092,730.1a3.09,3.09,0,1,1,1.762-4A3.088,3.088,0,0,1,311.092,730.1Z" transform="translate(-306.885 -724.128)" fill="#fae0b2"/>
            <path id="Path_129" data-name="Path 129" d="M311.7,733.3a2,2,0,1,1,1.139-2.586A2,2,0,0,1,311.7,733.3Z" transform="translate(-308.43 -728.055)" fill="#f47458"/>
          </g>
          <g id="Group_67" data-name="Group 67" transform="translate(2.299 31.897)">
            <path id="Path_130" data-name="Path 130" d="M164.667,807.287a3.09,3.09,0,1,0-4.293-.807A3.091,3.091,0,0,0,164.667,807.287Z" transform="translate(-159.835 -801.646)" fill="#fae0b2"/>
            <path id="Path_131" data-name="Path 131" d="M169.056,808.5a2,2,0,1,1,.721-2.9,1.994,1.994,0,0,1-.721,2.9Z" transform="translate(-164.49 -803.929)" fill="#f47458"/>
          </g>
          <g id="Group_68" data-name="Group 68" transform="translate(0.065 16.919)">
            <ellipse id="Ellipse_23" data-name="Ellipse 23" cx="3.09" cy="3.089" rx="3.09" ry="3.089" transform="translate(6.755 0.607) rotate(95.635)" fill="#fae0b2"/>
            <path id="Path_132" data-name="Path 132" d="M161.825,753.733a2,2,0,1,1-.733-3.757,2,2,0,0,1,.733,3.757Z" transform="translate(-156.909 -748.458)" fill="#f47458"/>
          </g>
          <g id="Group_69" data-name="Group 69" transform="translate(8.317 4.694)">
            <path id="Path_133" data-name="Path 133" d="M183.8,702.534a3.09,3.09,0,1,0,.049-4.37A3.088,3.088,0,0,0,183.8,702.534Z" transform="translate(-182.92 -697.283)" fill="#fae0b2"/>
            <path id="Path_134" data-name="Path 134" d="M188.554,705.33a2,2,0,1,1,3.393,1.451A1.985,1.985,0,0,1,188.554,705.33Z" transform="translate(-187.085 -701.771)" fill="#f47458"/>
          </g>
          <g id="Group_70" data-name="Group 70" transform="translate(0 24.845)">
            <ellipse id="Ellipse_24" data-name="Ellipse 24" cx="3.09" cy="3.089" rx="3.09" ry="3.089" transform="translate(0.132 6.311) rotate(-91.22)" fill="#fae0b2"/>
            <path id="Path_135" data-name="Path 135" d="M158.407,782.178a2,2,0,1,1,3.378-1.485A2,2,0,0,1,158.407,782.178Z" transform="translate(-156.025 -777.656)" fill="#f47458"/>
          </g>
          <g id="Group_71" data-name="Group 71" transform="translate(22.229)">
            <ellipse id="Ellipse_25" data-name="Ellipse 25" cx="3.089" cy="3.09" rx="3.089" ry="3.09" transform="translate(6.63 6.163) rotate(175.636)" fill="#fae0b2"/>
            <path id="Path_136" data-name="Path 136" d="M243.362,690.71a2,2,0,1,1,.778-.224A2,2,0,0,1,243.362,690.71Z" transform="translate(-239.931 -684.779)" fill="#f47458"/>
          </g>
          <g id="Group_72" data-name="Group 72" transform="translate(3.128 10.417)">
            <path id="Path_137" data-name="Path 137" d="M168.039,719.919a3.09,3.09,0,1,1-4.343.473A3.091,3.091,0,0,1,168.039,719.919Z" transform="translate(-163.015 -719.238)" fill="#fae0b2"/>
            <path id="Path_138" data-name="Path 138" d="M169.969,728.24a2,2,0,1,1,2.808-.306A2,2,0,0,1,169.969,728.24Z" transform="translate(-167.606 -723.264)" fill="#f47458"/>
          </g>
          <path id="Path_139" data-name="Path 139" d="M194.572,721.016l11.14-12.34-.433-.391-11.609,12.859,6.587-16.025-.539-.222-6.322,15.38.6-16.619-.583-.021-.627,17.315-5.249-16.511-.555.177,5.038,15.848-10.216-13.118-.46.358,10.644,13.668L177.359,712.1l-.312.493,14.042,8.9-16.252-3.479-.122.57,16.936,3.626-17.165,2.309.078.578,16.472-2.215-14.686,7.786.273.516,32.943-17.365-.271-.517Z" transform="translate(-168.368 -697.287)" fill="#f47458"/>
        </g>
        <g id="Group_74" data-name="Group 74" transform="translate(22.895 22.953)">
          <path id="Path_140" data-name="Path 140" d="M277.449,836.408l-2.208,1.163L238.851,768.5l2.208-1.164Z" transform="translate(-238.851 -767.331)" fill="#f47458"/>
        </g>
      </g>
      <g id="Group_77" data-name="Group 77" transform="translate(48.6 21.071)">
        <g id="Group_76" data-name="Group 76" transform="translate(0.935 0.003)">
          <path id="Path_141" data-name="Path 141" d="M346.909,838.539s26.53-20.229,30.166-28.947-3.861-7.734-3.861-7.734,10.713-15.592,7.869-20.744-8.759,1.428-8.759,1.428,4.97-21.094.648-22.267c-8.048-2.185-14.653,20.515-14.653,20.515s.592-9.424-4.445-8.155c-7.6,1.915-3.579,22.2-3.579,22.2s-2.422-3.6-6.588-.175C336.233,800.806,346.909,838.539,346.909,838.539Z" transform="translate(-341.052 -760.126)" fill="#355389"/>
        </g>
        <path id="Path_142" data-name="Path 142" d="M339.934,795.18a5.9,5.9,0,0,1,7.712-.35s-4.019-20.291,3.579-22.2c5.038-1.269,4.583,7.657,4.583,7.657s6.466-22.2,14.515-20.018l-26.262,78.2C342.887,833.579,332.951,800.916,339.934,795.18Z" transform="translate(-337.467 -760.113)" fill="#13375b"/>
      </g>
      <g id="Group_78" data-name="Group 78" transform="translate(56.086 51.664)">
        <path id="Path_143" data-name="Path 143" d="M366.184,924.553s19.831.385,30.452-2.458a15.216,15.216,0,0,0,5.509-2.742c6.153-5.169-1.394-5.571-1.394-5.571s17.083-9.176,16.875-14.221-6.892-5.169-6.892-5.169,9.381-10.912,5.743-15.315c-4.631-5.606-16.272,5.36-16.272,5.36a3.89,3.89,0,0,0-3.063-5.105c-6.587-1.575-13.314,21.718-13.314,21.718s.864-9.51-3.66-8.573C372.049,894.159,366.184,924.553,366.184,924.553Z" transform="translate(-366.184 -877.481)" fill="#13375b"/>
      </g>
      <g id="Group_80" data-name="Group 80" transform="translate(21.833 19.007)">
        <g id="Group_79" data-name="Group 79" transform="translate(0 0.005)">
          <path id="Path_144" data-name="Path 144" d="M267.456,833.82S241,811.231,237.771,802.132s4.528-7.6,4.528-7.6-10.166-16.554-6.866-21.6,9.045,2.033,9.045,2.033-3.819-21.761.765-22.665c8.537-1.685,13.957,21.818,13.957,21.818s-.008-9.615,5.165-7.99c7.8,2.45,2.3,22.8,2.3,22.8s2.88-7.607,7-3.852C281.064,791.811,267.456,833.82,267.456,833.82Z" transform="translate(-234.773 -752.213)" fill="#355389"/>
        </g>
        <path id="Path_145" data-name="Path 145" d="M304.643,783.77c-4.782-2.87-7.157.953-7.157.953s4.712-16.38-3.089-18.831c-5.173-1.625-5.672,6.691-5.672,6.691s-5.243-21.981-13.78-20.3l22.764,83.68C299.25,831.084,310.338,787.189,304.643,783.77Z" transform="translate(-264.474 -752.194)" fill="#466eb6"/>
      </g>
      <g id="Group_82" data-name="Group 82" transform="translate(2.801 73.978)">
        <g id="Group_81" data-name="Group 81">
          <path id="Path_146" data-name="Path 146" d="M211.143,986.263s-17.416.26-27.993-.174c-4.26-.175-7.263-.316-7.8-.858-2.316-2.339,3.631-4.211,3.631-4.211s-9.562,1.032-10.941-1.168,2.315-3.068,2.315-3.068-9.046-1.543-8.576-4.527c.57-3.613,10.747-1.242,10.747-1.242s-2.09-2.744-.589-4.412c2.264-2.515,9.982,3.327,9.982,3.327s-2.666-4.058-1.14-5.795C186.8,957.285,211.143,986.263,211.143,986.263Z" transform="translate(-161.761 -963.087)" fill="#13375b"/>
        </g>
      </g>
      <path id="Path_147" data-name="Path 147" d="M243.505,1082.242h48.371a28.969,28.969,0,0,0,9.777-21.888,26.219,26.219,0,0,0-2.8-11.716l-62.365.7a27.776,27.776,0,0,0-2.579,12.134A28.8,28.8,0,0,0,243.505,1082.242Z" transform="translate(-212.302 -952.36)" fill="#f47458"/>
    </g>
    <path id="Path_148" data-name="Path 148" d="M1713.279,527.678l4.105,2.773,4.322-2.612,4.382,3.436,3.746-4.206,5.127,3.665,3.926-3.446,5.508,2.718-1.022,2.09-4.121-2.032-4.139,3.636-4.932-3.524-3.806,4.276-4.838-3.791-4.217,2.551-3.808-2.571-2.419,2.257-1.582-1.707Z" transform="translate(-1263.911 -361.191)" fill="#fae0b2"/>
    <path id="Path_149" data-name="Path 149" d="M1195.859,238.4l3.954,2.986,4.452-2.38,4.2,3.662,3.959-4,4.929,3.932,4.1-3.233,5.357,3.006-1.131,2.033-4.006-2.247-4.327,3.412-4.736-3.779-4.027,4.069-4.632-4.041-4.348,2.324-3.665-2.768L1193.4,243.5l-1.488-1.789Z" transform="translate(-881.228 -147.765)" fill="#50bfa5"/>
    <path id="Path_150" data-name="Path 150" d="M2108.345,372.952l2.9-5.3-2.725-5.391a.83.83,0,0,1,.894-1.19l5.937,1.116,4.285-4.258a.83.83,0,0,1,1.408.483l.773,5.991,5.374,2.76a.83.83,0,0,1-.024,1.489l-5.459,2.587-.964,5.964a.83.83,0,0,1-1.423.437l-4.147-4.393-5.969.926A.83.83,0,0,1,2108.345,372.952Z" transform="translate(-1558.709 -235.958)" fill="#f47458"/>
    <path id="Path_151" data-name="Path 151" d="M990.347,170.609l2.9-5.3-2.725-5.391a.83.83,0,0,1,.894-1.19l5.937,1.116,4.285-4.258a.83.83,0,0,1,1.408.483l.773,5.992,5.374,2.76a.83.83,0,0,1-.024,1.489l-5.459,2.587-.964,5.964a.83.83,0,0,1-1.423.437l-4.147-4.393-5.97.926A.83.83,0,0,1,990.347,170.609Z" transform="translate(-732.128 -86.357)" fill="#fae0b2"/>
    <path id="Path_152" data-name="Path 152" d="M1414.765,65.094l3.56-4.881-2-5.7a.83.83,0,0,1,1.041-1.064l5.742,1.877,4.8-3.666a.83.83,0,0,1,1.334.661l-.011,6.041,4.97,3.434a.83.83,0,0,1-.217,1.473l-5.748,1.856-1.73,5.788a.83.83,0,0,1-1.468.249l-3.542-4.894-6.04.143A.83.83,0,0,1,1414.765,65.094Z" transform="translate(-1045.876 -9.574)" fill="#f7cc7f"/>
    <g id="Group_92" data-name="Group 92" transform="translate(414.031 97.098)">
      <circle id="Ellipse_26" data-name="Ellipse 26" cx="5.856" cy="5.856" r="5.856" transform="translate(9.946 8.475)" fill="#f7cc7f"/>
      <g id="Group_84" data-name="Group 84" transform="translate(9.309 24.77)">
        <path id="Path_153" data-name="Path 153" d="M1626.908,364.819a39.08,39.08,0,0,0,1.22-5.137,1.337,1.337,0,0,0-2.558-.645,41.924,41.924,0,0,0-1.423,5.47,1.4,1.4,0,0,0,1.225,1.537,1.427,1.427,0,0,0,1.537-1.225Z" transform="translate(-1624.119 -358.227)" fill="#f7cc7f"/>
      </g>
      <g id="Group_85" data-name="Group 85" transform="translate(18.585 22.531)">
        <path id="Path_154" data-name="Path 154" d="M1665.412,356.313a58.108,58.108,0,0,1-3.175-5.888,1.339,1.339,0,0,0-2.461,1.051,25.49,25.49,0,0,0,3.386,6.583,1.424,1.424,0,0,0,2.25-1.747Z" transform="translate(-1659.705 -349.639)" fill="#f7cc7f"/>
      </g>
      <g id="Group_86" data-name="Group 86" transform="translate(24.733 18.117)">
        <path id="Path_155" data-name="Path 155" d="M1684.112,332.753a1.006,1.006,0,0,0-.819,1.1c.072,1.358,1.6,2.031,2.68,2.51a12.664,12.664,0,0,0,3.575.963,1.419,1.419,0,0,0,.319-2.819C1686.314,334.076,1685.707,332.387,1684.112,332.753Z" transform="translate(-1683.291 -332.702)" fill="#f7cc7f"/>
      </g>
      <g id="Group_87" data-name="Group 87" transform="translate(24.127 6.972)">
        <path id="Path_156" data-name="Path 156" d="M1685.677,290.082c-2.621,1.5-4.241,1.653-4.644,2.982a1.18,1.18,0,0,0,.942,1.578c.915.212,1.787-.444,2.577-.818.758-.359,1.508-.723,2.235-1.145a1.459,1.459,0,0,0,.744-1.854,1.423,1.423,0,0,0-1.854-.744Z" transform="translate(-1680.966 -289.947)" fill="#f7cc7f"/>
      </g>
      <g id="Group_88" data-name="Group 88" transform="translate(20.222)">
        <path id="Path_157" data-name="Path 157" d="M1668.813,267.023c.169-1.6.3-2.145-.03-3.085a1.227,1.227,0,0,0-2.093-.26c-.547.9-.519,1.347-.7,3.026a1.418,1.418,0,0,0,2.819.319Z" transform="translate(-1665.987 -263.199)" fill="#f7cc7f"/>
      </g>
      <g id="Group_89" data-name="Group 89" transform="translate(10.868 0.15)">
        <path id="Path_158" data-name="Path 158" d="M1634.232,267.615c-1.4-2.751-1.619-3.442-2.531-3.771a1.169,1.169,0,0,0-1.51.645c-.308,1.162.17,1.75,1.486,4.218a1.427,1.427,0,0,0,1.824.732,1.4,1.4,0,0,0,.732-1.824Z" transform="translate(-1630.1 -263.775)" fill="#f7cc7f"/>
      </g>
      <g id="Group_90" data-name="Group 90" transform="translate(1.308 7.386)">
        <path id="Path_159" data-name="Path 159" d="M1594.5,291.538a1.3,1.3,0,0,0-.591,2.3c.848.557,1.267.58,6.046,1.9a1.46,1.46,0,0,0,1.844-.788,1.427,1.427,0,0,0-.788-1.844C1596.057,291.722,1595.6,291.5,1594.5,291.538Z" transform="translate(-1593.423 -291.534)" fill="#f7cc7f"/>
      </g>
      <g id="Group_91" data-name="Group 91" transform="translate(0 17.811)">
        <path id="Path_160" data-name="Path 160" d="M1594.193,331.619c-3.534,1.164-3.687.582-5.327,1.546a1.2,1.2,0,0,0,.288,2.053c1.057.292,1.4.255,3.149-.135,1.017-.227,2.023-.511,3.014-.834a1.441,1.441,0,0,0,.753-1.876,1.459,1.459,0,0,0-1.876-.753Z" transform="translate(-1588.405 -331.528)" fill="#f7cc7f"/>
      </g>
    </g>
    <path id="Path_161" data-name="Path 161" d="M1097.528,208.548l4.83-3.2-1.89-3.849,4.653-3.323-1.259-4,3.172-2.943-1.246-1.207-4.243,3.937,1.194,3.791-4.843,3.457,1.861,3.786-4.377,2.9Z" transform="translate(-809.86 -111.999)" fill="#86b1f2"/>
    <path id="Path_162" data-name="Path 162" d="M709.9,223.288l5.776.449.878-4.2,5.714.245,1.468-3.93,4.313-.367-.239-1.718-5.769.49-1.391,3.724-5.945-.255-.863,4.129-5.234-.407Z" transform="translate(-523.904 -129.556)" fill="#50bfa5"/>
    <path id="Path_163" data-name="Path 163" d="M1975.437,386.166l3.662-4.488-2.945-3.115,3.462-4.554-2.39-3.447,2.158-3.752-1.548-.784-2.888,5.018,2.265,3.267-3.6,4.737,2.9,3.064-3.321,4.067Z" transform="translate(-1458.861 -242.125)" fill="#f79c8d"/>
    <g id="Group_101" data-name="Group 101" transform="translate(451.678 118.206)">
      <path id="Path_164" data-name="Path 164" d="M1789.783,379.724a6,6,0,0,1,2.917-4.242,4.648,4.648,0,0,1,6.462,1.691c1.523,2.548,1.09,6.9-3.144,12.984-7.366.846-11.4-.834-12.925-3.382a4.649,4.649,0,0,1,1.572-6.492A6.006,6.006,0,0,1,1789.783,379.724Z" transform="translate(-1769.468 -366.818)" fill="#f48c7f"/>
      <g id="Group_93" data-name="Group 93" transform="translate(0 20.232)">
        <path id="Path_165" data-name="Path 165" d="M1734.089,427.224a61.948,61.948,0,0,0,6.43-2.955c.629-.334,1.819-.727,1.969-1.5a.75.75,0,0,0-.473-.912c-.741-.277-1.58.432-2.214.768-1.934,1.025-4.17,2.093-6.493,3.041a.879.879,0,0,0-.387,1.169.888.888,0,0,0,1.169.388Z" transform="translate(-1732.833 -421.795)" fill="#f48c7f"/>
      </g>
      <g id="Group_94" data-name="Group 94" transform="translate(34.93 9.156)">
        <path id="Path_166" data-name="Path 166" d="M1868.079,383.672c.933-.475,1.857-.967,2.783-1.456a9.587,9.587,0,0,0,2.693-1.612.755.755,0,0,0-.651-1.291,9.483,9.483,0,0,0-2.84,1.315c-.924.492-1.85.982-2.767,1.488a.872.872,0,0,0,.782,1.557Z" transform="translate(-1866.841 -379.303)" fill="#f48c7f"/>
      </g>
      <g id="Group_95" data-name="Group 95" transform="translate(14.46 26.98)">
        <path id="Path_167" data-name="Path 167" d="M1790.043,453.982c.134-2.563,1.233-3.91,1.921-5.228a.7.7,0,0,0-1.053-.907c-1.78,1.328-2.512,3.935-2.6,6.052a.868.868,0,0,0,1.733.082Z" transform="translate(-1788.309 -447.685)" fill="#f48c7f"/>
      </g>
      <g id="Group_96" data-name="Group 96" transform="translate(26.588 27.013)">
        <path id="Path_168" data-name="Path 168" d="M1837.7,453.345a7.7,7.7,0,0,1-1-3.028c-.072-.66.231-2.764-1.008-2.478-1.167.27-.832,2.245-.7,3.085a9.1,9.1,0,0,0,1.152,3.206c.567.965,2.126.194,1.563-.785Z" transform="translate(-1834.836 -447.813)" fill="#f48c7f"/>
      </g>
      <g id="Group_97" data-name="Group 97" transform="translate(33.395 20.806)">
        <path id="Path_169" data-name="Path 169" d="M1861.8,425.773l2.135.31c.71.1,1.488.387,2.094-.108a.771.771,0,0,0,.064-1.061c-.408-.584-1.424-.523-2.073-.613l-2.136-.3a.893.893,0,0,0-.926.842.9.9,0,0,0,.843.927Z" transform="translate(-1860.953 -423.998)" fill="#f48c7f"/>
      </g>
      <g id="Group_98" data-name="Group 98" transform="translate(4.927 6.617)">
        <path id="Path_170" data-name="Path 170" d="M1757.764,373.521c-4.456-3.7-4.43-3.745-5.032-3.926a.771.771,0,0,0-.912,1.069c.3.585.265.483,4.968,4.36a.9.9,0,0,0,1.24-.263.916.916,0,0,0-.263-1.239Z" transform="translate(-1751.736 -369.563)" fill="#f48c7f"/>
      </g>
      <g id="Group_99" data-name="Group 99" transform="translate(16.425 0.966)">
        <path id="Path_171" data-name="Path 171" d="M1798.807,353a13.276,13.276,0,0,0-.614-2.78c-.282-.841-.6-2.168-1.606-2.329a.659.659,0,0,0-.6.31c-.424.793.268,1.776.525,2.553a15.673,15.673,0,0,1,.6,2.607.876.876,0,0,0,1.028.668.885.885,0,0,0,.668-1.028Z" transform="translate(-1795.848 -347.883)" fill="#f48c7f"/>
      </g>
      <g id="Group_100" data-name="Group 100" transform="translate(28.022)">
        <path id="Path_172" data-name="Path 172" d="M1844.044,344.765a.77.77,0,0,0-.9-.582c-.771.083-1.285,1.142-1.655,1.741a15.19,15.19,0,0,0-1.1,2.188.882.882,0,0,0,.569,1.1.9.9,0,0,0,1.1-.569C1843.343,345.825,1844.169,345.835,1844.044,344.765Z" transform="translate(-1840.34 -344.178)" fill="#f48c7f"/>
      </g>
    </g>
    <path id="Path_173" data-name="Path 173" d="M2026.143,392.466l2.977,8.452-6.78,6.109-1.6-1.775,5.6-5.043-3.073-8.732,8.714-5.6-2.76-5.552,2.229-.885,3.626,7.29Z" transform="translate(-1494.017 -252.042)" fill="#f7cc7f"/>
    <path id="Path_174" data-name="Path 174" d="M1818.423,596.15l-3.6,8.207-9.126-.166.044-2.389,7.533.137,3.714-8.479,10.192,1.857,1.775-5.941,2.231.875-2.33,7.8Z" transform="translate(-1335.029 -407.258)" fill="#f7cc7f"/>
    <path id="Path_175" data-name="Path 175" d="M1321.146,334.347c4.18-4.29,2.08-11.782-2.537-14.8a13.543,13.543,0,0,0-16.541,1.777c-4.666,4.586-4.679,11.06-.162,15.061a7.506,7.506,0,0,0,12.344-3.228c1.3-3.741-.6-6.936-2.609-7.15A1.723,1.723,0,0,0,1310,328.8a1.691,1.691,0,0,0,1.777.433c.8,1.317.318,4.22-2.115,5.91-3.109,2.16-6.863-.414-8.107-3.454-1.584-3.869.734-7.879,3.993-10.01a11.061,11.061,0,0,1,11.721-.137,8.619,8.619,0,0,1,2.543,11.791A.841.841,0,0,0,1321.146,334.347Z" transform="translate(-960.066 -206.255)" fill="#86b1f2"/>
    <path id="Path_176" data-name="Path 176" d="M1003.838,52.569c3.483-3.574,1.733-9.817-2.114-12.332a11.284,11.284,0,0,0-13.783,1.481c-3.888,3.822-3.9,9.216-.135,12.55a6.254,6.254,0,0,0,10.286-2.689c1.086-3.117-.5-5.78-2.174-5.958a1.436,1.436,0,0,0-1.371,2.324,1.408,1.408,0,0,0,1.481.361c.668,1.1.266,3.516-1.763,4.925-2.59,1.8-5.719-.345-6.755-2.878-1.32-3.224.612-6.566,3.327-8.341a9.217,9.217,0,0,1,9.767-.114,7.182,7.182,0,0,1,2.119,9.825A.7.7,0,0,0,1003.838,52.569Z" transform="translate(-763.254 15)" fill="#86b1f2"/>
    <g id="Group_103" data-name="Group 103" transform="translate(495.011 97.281)">
      <g id="Group_102" data-name="Group 102" transform="translate(0 0)">
        <path id="Path_177" data-name="Path 177" d="M1899.1,275.814a11.266,11.266,0,1,0,10.6-11.9A11.265,11.265,0,0,0,1899.1,275.814Z" transform="translate(-1899.076 -263.898)" fill="#f7cc7f"/>
        <path id="Path_178" data-name="Path 178" d="M1931.647,312.633a6.023,6.023,0,1,1-12.027.693Z" transform="translate(-1914.266 -299.93)" fill="#efefef"/>
      </g>
    </g>
    <g id="Group_104" data-name="Group 104" transform="translate(314.538 39.647)">
      <path id="Path_179" data-name="Path 179" d="M1207.8,61.363l6.308-1.079s7.047-7.277,6.965-9.456-2.081-6.515-.931-7.272a4.152,4.152,0,0,1,5.787.978c1.515,1.876,1.661,9.546,2.481,9.935.513.244,4.156-.273,6.812-.693a4.735,4.735,0,0,1,4.561,1.9l0,0a2.608,2.608,0,0,1-.125,3.239l-1.228,1.416,1.34,1.333a2.607,2.607,0,0,1,.06,3.629l-.982,1.035.9.769a2.606,2.606,0,0,1,.13,3.833l-.883.858.191.256a2.6,2.6,0,0,1-.309,3.462l-.892.822-16.8,2.872a11.537,11.537,0,0,1-4.741-.18l-6.079.015a1.336,1.336,0,0,1-1.314-1.14l-2.327-15.013A1.334,1.334,0,0,1,1207.8,61.363Z" transform="translate(-1206.706 -42.791)" fill="#fae0b2"/>
    </g>
    <g id="Group_112" data-name="Group 112" transform="translate(404.028 42.872)">
      <g id="Group_110" data-name="Group 110" transform="translate(0 0)">
        <g id="Group_109" data-name="Group 109">
          <g id="Group_105" data-name="Group 105" transform="translate(0 1.626)">
            <path id="Path_180" data-name="Path 180" d="M1621.464,121.325c-.048-.092-4.889-9.273-16.655-17.222-16.794-11.345-50.367-12.5-54.443-35.371a18.779,18.779,0,0,1-.031-7.072.34.34,0,0,1,.662.158h0a18.5,18.5,0,0,0,.045,6.827c4.024,22.376,37.26,23.485,54.149,34.894,8.448,5.707,14.664,13.19,16.879,17.474A.341.341,0,0,1,1621.464,121.325Z" transform="translate(-1550.027 -61.4)" fill="#96d9c9"/>
          </g>
          <g id="Group_106" data-name="Group 106" transform="translate(5.889 1.084)">
            <path id="Path_181" data-name="Path 181" d="M1638.825,116.224c-.183-.347-4.611-8.57-15.094-15.676-11.413-7.757-31.051-11.722-41.32-19.967-6.239-5.009-8.51-10.438-9.316-14.11a17.211,17.211,0,0,1-.251-6.883.34.34,0,0,1,.664.149,16.91,16.91,0,0,0,.259,6.624c.788,3.556,3,8.817,9.069,13.69C1593,88.21,1612.6,92.161,1624.114,99.985c10.621,7.2,15.126,15.568,15.313,15.921a.34.34,0,1,1-.6.318Z" transform="translate(-1572.62 -59.322)" fill="#96d9c9"/>
          </g>
          <g id="Group_107" data-name="Group 107" transform="translate(11.758 0.542)">
            <path id="Path_182" data-name="Path 182" d="M1656.129,111.117c-1.962-3.708-6.546-9.366-13.531-14.128-11.016-7.537-27.567-11.737-36.814-18.809-6.585-5.035-9.086-10.372-10.025-13.962a15.842,15.842,0,0,1-.458-6.709.34.34,0,0,1,.667.139h0a15.518,15.518,0,0,0,.461,6.436c.917,3.477,3.357,8.65,9.77,13.555,4.669,3.571,11.192,6.382,18.1,9.359,6.522,2.812,13.266,5.719,18.688,9.428,7.087,4.831,11.749,10.592,13.749,14.372A.34.34,0,0,1,1656.129,111.117Z" transform="translate(-1595.136 -57.24)" fill="#96d9c9"/>
          </g>
          <g id="Group_108" data-name="Group 108" transform="translate(17.606)">
            <path id="Path_183" data-name="Path 183" d="M1673.371,106.013c-8.4-15.882-32.34-21.592-44.276-30.229-6.953-5.031-9.685-10.277-10.751-13.792a14.653,14.653,0,0,1-.65-6.557.341.341,0,0,1,.668.132,14.329,14.329,0,0,0,.646,6.27c1.042,3.4,3.707,8.491,10.486,13.4,11.9,8.607,35.941,14.324,44.479,30.462a.341.341,0,0,1-.6.319Z" transform="translate(-1617.572 -55.162)" fill="#96d9c9"/>
          </g>
        </g>
      </g>
      <g id="Group_111" data-name="Group 111" transform="translate(3.82 1.455)">
        <path id="Path_184" data-name="Path 184" d="M1589.964,70.8h0c-.792-1.422-1.307-5.094-1.614-7.288-.413-2.948-.421-2.368-.787-2.692-.839-.408-.259.426-11.089,13.011-1.924-4.588-10.551-5.84-11.687-1.39-.588,2.3,1.3,4.987,4.573,5.823a6.126,6.126,0,0,0,5.892-1.292l0,0c.342-.362,5.049-5.828,8.9-10.243,0,3.587,3.313,7.065,6.2,6.084l.874-.3-.631-.674A7.172,7.172,0,0,1,1589.964,70.8Z" transform="translate(-1564.681 -60.743)" fill="#96d9c9"/>
        <path id="Path_185" data-name="Path 185" d="M1769.147,179.142h0c-1.239-.734-3.28-3.327-4.5-4.876-1.29-1.638-1.424-1.809-1.865-1.746-.913.064-.144.678-2.81,15.1-3.616-2.581-10.717.2-9.585,4.167,1.2,4.2,9.136,3.325,10.224-1.212h0c.1-.431,1.532-7.73,2.5-12.76,1.682,2.683,5.469,4.859,7.26,2.8l.605-.7A4.862,4.862,0,0,1,1769.147,179.142Z" transform="translate(-1701.892 -143.377)" fill="#96d9c9"/>
        <path id="Path_186" data-name="Path 186" d="M1670.357,120.236c.14-.6,1.409-7.238,2.974-15.385-8.652-1.309-8.383-1.149-15.812-4.41-.817,4.182-1.617,8.39-2.247,11.778-3.67-2.62-9.978.831-8.861,4.752,1.206,4.233,9.009,2.163,10.092-2.349,0,0,.479-3.7,1.585-9.51l13.073,3.546c-.341,1.8-1.1,5.3-1.74,8.758-3.651-2.605-10.4.1-9.281,4.034.618,2.167,3.408,3.279,6.219,2.477a5.528,5.528,0,0,0,4-3.689Z" transform="translate(-1625.01 -90.093)" fill="#96d9c9"/>
      </g>
    </g>
    <g id="Group_114" data-name="Group 114" transform="translate(376.017 73.104)">
      <g id="Group_113" data-name="Group 113">
        <path id="Path_187" data-name="Path 187" d="M1468.772,258.2a5.224,5.224,0,0,0,1.283.535,4.816,4.816,0,0,1,1.441-3.461q-.48-.821-.957-1.646A5.318,5.318,0,0,0,1468.772,258.2Z" transform="translate(-1461.892 -232.131)" fill="#f7cc7f"/>
        <path id="Path_188" data-name="Path 188" d="M1485.224,262.226c-1.247-2.253-2.594-4.619-3.927-6.968-.122.038-.2.065-.184.06a4.376,4.376,0,0,0-.737.357,4.074,4.074,0,0,0-.721.552c-.087.084-.167.169-.246.253,1.481,2.536,2.962,5.038,4.3,7.332A6.708,6.708,0,0,0,1485.224,262.226Z" transform="translate(-1469.805 -233.334)" fill="#f7cc7f"/>
        <path id="Path_189" data-name="Path 189" d="M1504.607,300.206c-.005-.02.734,2.3-.545,3.418,0,0-1.428,1.316-2.165-.767l-.082-.148a.7.7,0,0,0-.922-.28.8.8,0,0,0-.36.961,2.065,2.065,0,0,0,.542.936c2.167,2.31,5.458.169,5.494-2.77.034-1.823-1.881-5.872-4.489-10.707a12.984,12.984,0,0,1-1.578,1.334C1502.7,295.99,1504.331,298.983,1504.607,300.206Z" transform="translate(-1485.398 -259.647)" fill="#f7cc7f"/>
        <path id="Path_190" data-name="Path 190" d="M1495.92,283.577q.621,1.061,1.2,2.057a13.009,13.009,0,0,0,1.578-1.334c-.406-.752-.829-1.524-1.263-2.309A6.7,6.7,0,0,1,1495.92,283.577Z" transform="translate(-1482.013 -253.098)" fill="#f7cc7f"/>
        <path id="Path_191" data-name="Path 191" d="M1468.384,233.088a7.956,7.956,0,0,1,1.078-.923,7.026,7.026,0,0,1,.761-.43c-1.148-2.028-2.264-4.02-3.276-5.89q-.668,1.429-1.152,2.7C1466.627,230.036,1467.5,231.561,1468.384,233.088Z" transform="translate(-1459.739 -211.587)" fill="#f7cc7f"/>
        <path id="Path_192" data-name="Path 192" d="M1459.3,216.741c.537,1,1.106,2.039,1.7,3.094.325-.85.707-1.75,1.152-2.7-.578-1.069-1.123-2.1-1.619-3.072C1460.145,214.963,1459.725,215.854,1459.3,216.741Z" transform="translate(-1454.938 -202.874)" fill="#f7cc7f"/>
        <path id="Path_193" data-name="Path 193" d="M1451.424,240.878c-.88-.61-4.4-3.842-.73-13.439-.589-1.055-1.158-2.09-1.7-3.094-.5,1.047-1.016,2.09-1.485,3.147a20,20,0,0,0-2.145,8.08,9.566,9.566,0,0,0,5.3,8.209,7.909,7.909,0,0,0,5.286.933,9.813,9.813,0,0,0,3.788-1.7q-.575-.994-1.2-2.057A5.811,5.811,0,0,1,1451.424,240.878Z" transform="translate(-1444.637 -210.478)" fill="#f7cc7f"/>
        <path id="Path_194" data-name="Path 194" d="M1449.437,172.289c-2.055-1.453-6.719-2.178-6.87,1.964-.069,1.873,1.783,5.947,4.36,10.761.427-.887.846-1.778,1.229-2.681-2.542-4.989-3.829-8.53-2.018-8.51a3.472,3.472,0,0,1,2.971,2.089c.686,1.459.231,3.244-.3,4.745-.2.566-.422,1.123-.656,1.676.5.974,1.041,2,1.619,3.072.192-.41.394-.829.61-1.259,1.356-2.7,1.967-6.139,1.5-8.106A6.568,6.568,0,0,0,1449.437,172.289Z" transform="translate(-1442.565 -171.146)" fill="#f7cc7f"/>
        <path id="Path_195" data-name="Path 195" d="M1484.495,248.331a4.453,4.453,0,0,1,1.764.1,3.4,3.4,0,0,1,2.453,2.87,5.558,5.558,0,0,1-.987,4.16c.435.785.857,1.556,1.263,2.309.078-.077.156-.155.232-.234,5.6-5.816-.532-13.685-6.43-10.818q.5.884,1.007,1.776A3.828,3.828,0,0,1,1484.495,248.331Z" transform="translate(-1472.305 -226.569)" fill="#f7cc7f"/>
        <path id="Path_196" data-name="Path 196" d="M1475.73,249.8q.477.824.958,1.646c.079-.084.159-.169.246-.253a4.056,4.056,0,0,1,.721-.552,4.417,4.417,0,0,1,.737-.357c-.016.005.063-.022.184-.06l-1.007-1.776a7.041,7.041,0,0,0-.761.43A8.219,8.219,0,0,0,1475.73,249.8Z" transform="translate(-1467.085 -228.296)" fill="#f7cc7f"/>
        <ellipse id="Ellipse_27" data-name="Ellipse 27" cx="1.847" cy="2.593" rx="1.847" ry="2.593" transform="matrix(0.814, -0.581, 0.581, 0.814, 5.966, 25.29)" fill="#f7cc7f"/>
      </g>
      <ellipse id="Ellipse_28" data-name="Ellipse 28" cx="1.847" cy="2.593" rx="1.847" ry="2.593" transform="matrix(0.814, -0.581, 0.581, 0.814, 13.851, 42.162)" fill="#f7cc7f"/>
    </g>
    <path id="Path_197" data-name="Path 197" d="M798.006,268a3.192,3.192,0,1,1-4.5-2.064,2.708,2.708,0,0,1,1.282-.268l-2.732-5.141-6.689,6.235,4.672,8.791h0c.005.011.011.02.016.03a3.187,3.187,0,1,1-4.458-1.979,2.709,2.709,0,0,1,1.279-.268l-5-9.416a.709.709,0,0,1,.1-.859l8.576-7.58a.633.633,0,0,1,.958.277l6.5,12.237Z" transform="translate(-578.002 -160.303)" fill="#f7a491"/>
    <path id="Path_200" data-name="Path 200" d="M970.5,291.527a4.654,4.654,0,0,1,3.428-2.616c2.206-.317,4.034,1.6,4.391,4.09.413,2.88-1.17,6.586-6.126,10.32-5.806-2.189-8.368-5.3-8.782-8.18-.357-2.488.857-4.844,3.063-5.16A4.655,4.655,0,0,1,970.5,291.527Z" transform="translate(-712.246 -185.085)" fill="#466eb6"/>
    <g id="Group_118" data-name="Group 118" transform="translate(470.223 145.916)">
      <path id="Path_201" data-name="Path 201" d="M1946.74,464.111l3.441,106.284H2105.45l6.571-106.284Z" transform="translate(-1909.528 -460.56)" fill="#355389"/>
      <rect id="Rectangle_71" data-name="Rectangle 71" width="9.622" height="18.961" transform="translate(98.062 105.151)" fill="#13375b"/>
      <rect id="Rectangle_72" data-name="Rectangle 72" width="9.622" height="18.961" transform="translate(147.872 105.151)" fill="#13375b"/>
      <path id="Path_202" data-name="Path 202" d="M1978.25,931.942l5.3-5.306h122.9l5.3,5.306Z" transform="translate(-1932.825 -802.523)" fill="#13375b"/>
      <rect id="Rectangle_73" data-name="Rectangle 73" width="78.11" height="15.155" transform="translate(125.995 141.248)" fill="#355389"/>
      <path id="Path_203" data-name="Path 203" d="M1844.734,1007.082H1803.98V947.069l40.754-.076Z" transform="translate(-1803.98 -817.574)" fill="#f47458"/>
      <rect id="Rectangle_74" data-name="Rectangle 74" width="40.753" height="60.212" transform="translate(169.063 129.419)" fill="#f47458"/>
      <rect id="Rectangle_75" data-name="Rectangle 75" width="170.972" height="3.149" transform="translate(40.754 156.375)" fill="#b75742"/>
      <rect id="Rectangle_76" data-name="Rectangle 76" width="175.323" height="4.097" transform="translate(40.754 129.419)" fill="#b75742"/>
      <rect id="Rectangle_77" data-name="Rectangle 77" width="6.261" height="60.212" transform="translate(209.815 129.419)" fill="#b75742"/>
      <rect id="Rectangle_78" data-name="Rectangle 78" width="169.062" height="5.166" transform="translate(40.754 184.464)" fill="#b75742"/>
      <rect id="Rectangle_79" data-name="Rectangle 79" width="53.993" height="15.155" transform="translate(150.111 141.248)" fill="#184655"/>
      <path id="Path_204" data-name="Path 204" d="M1934.492,560.321l-3.44-106.284h165.281l-170.812-3.551,5.531,109.973Z" transform="translate(-1893.839 -450.486)" fill="#466eb6"/>
      <rect id="Rectangle_80" data-name="Rectangle 80" width="4.701" height="60.212" transform="translate(36.052 129.419)" fill="#b75742"/>
      <g id="Group_116" data-name="Group 116" transform="translate(159.54 79.856)">
        <path id="Path_205" data-name="Path 205" d="M2434.243,823.923a47.678,47.678,0,0,1,.178-8.02c.116-2.549.216-5.1.271-7.65.112-5.231.068-10.466-.091-15.7s-.466-10.456-.928-15.668c-.4-4.541-.954-9.358-3.628-13.2a10.962,10.962,0,0,0-5.108-4.094c-2.512-.9-5.177-.34-7.774-.356a1.159,1.159,0,0,1,0-2.316c2.516.062,5.072-.363,7.541.32a12.088,12.088,0,0,1,5.284,3.2c3.292,3.326,4.654,7.845,5.275,12.374.73,5.324.991,10.744,1.22,16.109q.355,8.323.148,16.651-.114,4.594-.381,9.183c-.09,1.531-.214,3.058-.351,4.586a22.676,22.676,0,0,1-.7,4.71.491.491,0,0,1-.959-.13Z" transform="translate(-2416.045 -756.847)" fill="#184655"/>
      </g>
      <path id="Path_206" data-name="Path 206" d="M2145.45,625.886V690h70.185l2.547-64.116Z" transform="translate(-2056.443 -580.167)" fill="#13375b"/>
      <g id="Group_117" data-name="Group 117" transform="translate(129.043 100.619)">
        <path id="Path_207" data-name="Path 207" d="M2300.035,836.852a25.448,25.448,0,0,1,1.4,7.142c.27,2.475.392,4.958.479,7.445.171,4.856.2,9.719.53,14.568.522,7.573,1.9,17.232,9.45,21.064,3.325,1.687,7.755,2.007,10.761-.513,1.254-1.051,3.07.764,1.8,1.8a11.774,11.774,0,0,1-10.759,2,15.833,15.833,0,0,1-9.284-7.227c-2.324-3.818-3.3-8.277-3.822-12.667a149.553,149.553,0,0,1-.69-15.482q-.062-4.48-.262-8.952c-.136-3.008-.683-6.047-.584-9.052a.5.5,0,0,1,.977-.132Z" transform="translate(-2299.045 -836.506)" fill="#184655"/>
      </g>
      <path id="Path_208" data-name="Path 208" d="M2196.753,812.884h36.054a8.192,8.192,0,0,0,8.192-8.192v-2.617h-52.438v2.617A8.193,8.193,0,0,0,2196.753,812.884Z" transform="translate(-2088.317 -710.43)" fill="#184655"/>
      <path id="Path_209" data-name="Path 209" d="M2196.753,806.095h36.054A8.192,8.192,0,0,0,2241,797.9v-2.618h-52.438V797.9A8.193,8.193,0,0,0,2196.753,806.095Z" transform="translate(-2088.317 -705.41)" fill="#355389"/>
    </g>
    <path id="Path_210" data-name="Path 210" d="M602.266,619.208a30.247,30.247,0,0,0-5.181-2.27c-9.582-2.615-28.544-6.825-28.544-6.825-.767-.2-1.482-.4-2.156-.583.859-6.385,4.413-34.674,1.222-43.5-1.087-3.007-7.321-9.456-11.283,2.383-4.015,12,.06,41.971.956,45.917,0,.022.006.043.01.065.594,3.457,7.693,5.782,12.153,6.128,4.395.34,22.157.858,23.281,1.325s3.7,5.693,3.7,5.693,1.09,6.276,2.144,6.1-.623-7.757-.623-7.757a19.554,19.554,0,0,1,2.524,4.536,28.724,28.724,0,0,0,1.485,3.743c.684.962.787-1.969.638-2.842-.2-1.169-2.477-7.4-2.311-7.566.458-.458,2.693,3.949,2.693,3.949s2.175,6.13,2.6,6.13c1.522,0,.411-2.549-.041-5.18s-3.039-6.439-2.436-6.542,3.225,5.784,3.932,4.786S605.217,620.147,602.266,619.208Z" transform="translate(-410.028 -386.688)" fill="#f7a491"/>
    <path id="Path_211" data-name="Path 211" d="M565.487,566.03c-1.087-3.007-7.321-9.456-11.283,2.383-1.474,4.406-2.622,12.331-2.473,19.4,4.651.444,10.454-.249,15.061.342C567.337,579.463,567.03,570.3,565.487,566.03Z" transform="translate(-407.908 -386.688)" fill="#b75742"/>
    <circle id="Ellipse_29" data-name="Ellipse 29" cx="0.603" cy="0.603" r="0.603" transform="translate(436.409 187.998)" fill="#184655"/>
    <circle id="Ellipse_30" data-name="Ellipse 30" cx="0.603" cy="0.603" r="0.603" transform="translate(438.453 189.752)" fill="#184655"/>
    <circle id="Ellipse_31" data-name="Ellipse 31" cx="0.603" cy="0.603" r="0.603" transform="translate(440.223 191.328)" fill="#184655"/>
    <circle id="Ellipse_32" data-name="Ellipse 32" cx="0.603" cy="0.603" r="0.603" transform="translate(437.616 192.619)" fill="#184655"/>
    <circle id="Ellipse_33" data-name="Ellipse 33" cx="0.603" cy="0.603" r="0.603" transform="translate(436.151 191.187)" fill="#184655"/>
    <circle id="Ellipse_34" data-name="Ellipse 34" cx="0.603" cy="0.603" r="0.603" transform="translate(434.689 189.752)" fill="#184655"/>
    <path id="Path_212" data-name="Path 212" d="M1393.91,667.85s-.335-.935,3.672-.935,7.772,1.351,7.772,2.22V670s-1.786,8.348-3.089,7.576.386-6.032.386-6.032-.793,4.943-2.037,5.222,0-5.995,0-5.995-1.228,5.356-2.274,5.356-.717-6.157-.717-6.456v-.3Z" transform="translate(-1030.571 -464.585)" fill="#f48c7f"/>
  </g>
</svg>
